<?xml version="1.0" encoding="UTF-8"?>
<svg version="1.1" xmlns="http://www.w3.org/2000/svg" width="512" height="512">
<path d="M0 0 C0.89074219 0.28875 1.78148437 0.5775 2.69921875 0.875 C21.80208624 7.59249186 37.54039305 23.93003212 46.31713867 41.79492188 C55.10836592 60.73746923 56.96053548 83.21997051 50.28369141 103.13671875 C43.06314553 122.32058771 30.6727407 139.66362965 12 149 C11.67 161.54 11.34 174.08 11 187 C22.57798633 186.80260734 22.57798633 186.80260734 34.15478516 186.54956055 C35.61619229 186.5349449 37.07761992 186.52220677 38.5390625 186.51171875 C39.28567139 186.48613892 40.03228027 186.46055908 40.80151367 186.4342041 C44.76793746 186.43092173 47.28298897 186.80977463 50.46630859 189.28051758 C54.09508682 193.17538756 54.1229712 196.10615791 54.16113281 201.30004883 C54.17074036 202.35827347 54.1803479 203.41649811 54.19024658 204.50679016 C54.1966214 206.2146595 54.1966214 206.2146595 54.203125 207.95703125 C54.20882507 209.13335617 54.21452515 210.30968109 54.22039795 211.52165222 C54.22984246 214.01060081 54.23637975 216.49956187 54.24023438 218.98852539 C54.24993614 222.78749512 54.28096411 226.58592293 54.3125 230.38476562 C54.31903071 232.80468429 54.32428091 235.22460682 54.328125 237.64453125 C54.3404718 238.77703812 54.3528186 239.90954498 54.36553955 241.07637024 C54.33503658 251.92821297 54.33503658 251.92821297 51 257 C44 260 44 260 11 260 C11.33 301.58 11.66 343.16 12 386 C25.2409561 381.56326459 25.2409561 381.56326459 37.6875 375.75 C38.38045166 375.37359375 39.07340332 374.9971875 39.78735352 374.609375 C50.91101092 368.42094201 60.81143209 360.80261837 70 352 C70.87011719 351.20464844 71.74023438 350.40929687 72.63671875 349.58984375 C94.52669944 328.88648113 104.96721482 301.62903702 112 273 C111.21496094 273.03480469 110.42992187 273.06960938 109.62109375 273.10546875 C103.26909358 273.26913992 98.53714947 273.25006599 93 270 C90.58257031 266.37385546 90.15920474 264.24490368 90.234375 259.94140625 C91.75764609 254.0892474 96.49050242 249.8864788 100.54248047 245.57861328 C102.63972885 243.30712115 104.56620637 240.91110023 106.5 238.5 C110.24787798 233.8954642 114.06983444 229.35980809 117.9140625 224.8359375 C120.81244823 221.4194046 123.671551 217.97495162 126.5 214.5 C129.95159013 210.26821318 133.42846541 206.05920225 136.9375 201.875 C137.64712891 201.02131836 137.64712891 201.02131836 138.37109375 200.15039062 C142.50584264 195.24037632 142.50584264 195.24037632 146.13671875 194.65625 C152.7872107 194.24886918 152.7872107 194.24886918 155.8984375 196.17578125 C157.76770584 198.01433391 159.37803793 199.93928101 161 202 C162.01126953 203.21623047 162.01126953 203.21623047 163.04296875 204.45703125 C164.55658112 206.28676089 166.05727618 208.12723064 167.546875 209.9765625 C170.15420099 213.19005026 172.81784484 216.34907345 175.5 219.5 C179.61858416 224.3458117 183.66691929 229.24238175 187.67578125 234.1796875 C189.8320159 236.79616047 192.02870779 239.37036262 194.2409668 241.93920898 C206.4430429 256.15951877 206.4430429 256.15951877 207.625 262.1875 C206.80204393 265.89080234 205.43794125 268.10082662 203 271 C198.8785022 273.19322562 195.30195561 273.21125151 190.6875 273.125 C189.43324219 273.10695313 188.17898438 273.08890625 186.88671875 273.0703125 C185.93410156 273.04710937 184.98148437 273.02390625 184 273 C183.87044922 274.85625 183.87044922 274.85625 183.73828125 276.75 C180.74816853 315.24111101 168.61464149 352.46916144 146 384 C145.58008789 384.58668457 145.16017578 385.17336914 144.72753906 385.77783203 C138.73905948 394.0406249 132.05635209 401.63771747 125 409 C124.44715332 409.58539551 123.89430664 410.17079102 123.32470703 410.77392578 C99.58529825 435.81863946 70.51296869 452.47475682 38.1875 464.0625 C13.27426294 473.02229512 -4.91068359 486.90124422 -22 507 C-23.64156736 508.64156736 -25.49215801 508.28815992 -27.75 508.375 C-28.61109375 508.42398438 -29.4721875 508.47296875 -30.359375 508.5234375 C-34.13632633 507.77475188 -35.48315098 505.8595186 -38 503 C-38.83917969 502.07703125 -39.67835938 501.1540625 -40.54296875 500.203125 C-41.41566406 499.22859375 -42.28835937 498.2540625 -43.1875 497.25 C-59.0195414 479.95531645 -77.10917086 470.09803174 -98.92578125 462.21875 C-116.93322492 455.65460316 -134.53140487 447.44406239 -150 436 C-150.52207031 435.61634277 -151.04414063 435.23268555 -151.58203125 434.83740234 C-159.08694701 429.29439811 -166.23939187 423.4377701 -173 417 C-173.58652344 416.44602539 -174.17304688 415.89205078 -174.77734375 415.32128906 C-184.96712073 405.63895067 -193.89671795 395.48675771 -202 384 C-202.40766602 383.42636719 -202.81533203 382.85273438 -203.23535156 382.26171875 C-225.80598331 350.06735381 -237.77492013 312.05600713 -240 273 C-240.94101563 273.03480469 -241.88203125 273.06960938 -242.8515625 273.10546875 C-244.09679687 273.13253906 -245.34203125 273.15960938 -246.625 273.1875 C-247.85476562 273.22230469 -249.08453125 273.25710938 -250.3515625 273.29296875 C-254.31086214 272.97503784 -256.63644098 272.06759951 -260 270 C-262.1979747 267.28916453 -262.92397877 265.51042828 -263.4375 262.0625 C-262.56198863 255.9339204 -257.75960509 251.37285588 -253.8125 246.8125 C-252.82868068 245.66339904 -251.84561829 244.51364963 -250.86328125 243.36328125 C-250.37811035 242.79561035 -249.89293945 242.22793945 -249.39306641 241.64306641 C-247.396426 239.28810848 -245.44701662 236.8960583 -243.5 234.5 C-239.75379155 229.89751534 -235.93477213 225.36277589 -232.09033203 220.8425293 C-229.14041096 217.36756977 -226.24335594 213.85546927 -223.375 210.3125 C-221.91949777 208.53933896 -220.46116159 206.76850039 -219 205 C-218.22527344 204.05253906 -217.45054687 203.10507813 -216.65234375 202.12890625 C-215.88019531 201.22011719 -215.10804688 200.31132812 -214.3125 199.375 C-213.62800781 198.55773437 -212.94351563 197.74046875 -212.23828125 196.8984375 C-209.3699534 194.46561492 -207.75570149 194.04630951 -204 194 C-198.00225602 195.77266655 -195.00113564 198.65864485 -191.25 203.375 C-190.73977295 203.9935083 -190.2295459 204.6120166 -189.70385742 205.24926758 C-188.64644567 206.53111225 -187.59396091 207.81703682 -186.54638672 209.10693359 C-184.62783278 211.45560224 -182.66382479 213.76288733 -180.69433594 216.06884766 C-176.16136976 221.37866492 -171.72579669 226.76362629 -167.3203125 232.1796875 C-165.17449784 234.78789993 -163.00068221 237.36796776 -160.80981445 239.93823242 C-159.39850213 241.5973709 -157.99745915 243.2647417 -156.59765625 244.93359375 C-155.01367371 246.81961916 -153.40662729 248.65096175 -151.74609375 250.47265625 C-148.39373148 254.31263485 -146.54748297 257.07074527 -146.25 262.25 C-146.52482413 265.93149825 -146.97393592 266.9645239 -149.25 270.0625 C-153.58458393 273.1164114 -157.00637275 273.11949595 -162.25 273.0625 C-163.32765625 273.05347656 -164.4053125 273.04445313 -165.515625 273.03515625 C-166.33546875 273.02355469 -167.1553125 273.01195312 -168 273 C-159.21995041 311.26756502 -140.7430437 346.12759452 -106.82421875 367.86035156 C-94.40309036 375.62023209 -81.91265275 381.36244908 -68 386 C-67.505 323.63 -67.505 323.63 -67 260 C-77.89 260 -88.78 260 -100 260 C-107 257 -107 257 -108.91479492 254.08251953 C-110.72221351 248.79586979 -110.40828538 243.19843855 -110.36328125 237.6796875 C-110.36402901 235.91445236 -110.36402901 235.91445236 -110.36479187 234.11355591 C-110.36245811 231.63411769 -110.352771 229.15467679 -110.33618164 226.67529297 C-110.3125372 222.88096967 -110.31563296 219.08734729 -110.32226562 215.29296875 C-110.31669011 212.88020415 -110.30958104 210.4674425 -110.30078125 208.0546875 C-110.30169266 206.92126923 -110.30260406 205.78785095 -110.30354309 204.62008667 C-110.29401108 203.56193756 -110.28447906 202.50378845 -110.2746582 201.41357422 C-110.27005081 200.48648651 -110.26544342 199.5593988 -110.26069641 198.60421753 C-109.84722965 194.47390599 -108.70108139 191.76303969 -105.89770508 188.71191406 C-102.11980037 186.47999327 -98.89358601 186.4939891 -94.63671875 186.609375 C-93.84473587 186.61503479 -93.05275299 186.62069458 -92.23677063 186.62652588 C-89.71971906 186.64882692 -87.20411757 186.69900861 -84.6875 186.75 C-82.97593209 186.77007325 -81.26434176 186.78832258 -79.55273438 186.8046875 C-75.36793515 186.84867075 -71.184213 186.91765231 -67 187 C-66.87048107 181.71494007 -66.81386408 176.43581239 -66.82299805 171.14916992 C-66.81604715 169.35373755 -66.7896221 167.55826606 -66.74291992 165.76342773 C-66.09704399 155.31765948 -66.09704399 155.31765948 -70.3684082 146.35058594 C-73.182201 144.5789996 -75.94905074 143.30493686 -79 142 C-96.55419271 129.07507029 -105.96643534 109.09827356 -109.6875 88.125 C-111.92083726 65.03134241 -106.27919429 43.05755629 -91.53125 24.97265625 C-69.16362807 -0.99063863 -32.67003189 -12.07826596 0 0 Z M-38 68 C-40.9741633 72.31733382 -41.6486549 75.81076076 -41 81 C-38.88561987 84.92670595 -36.76874874 87.63262715 -33 90 C-28.96537972 90.79893471 -24.80396343 90.92775262 -21.0859375 89.015625 C-16.87093008 85.6519245 -15.21850462 82.93012411 -14.625 77.6875 C-15.07355217 73.27673702 -16.15635228 70.39657923 -19 67 C-25.71827066 62.47246977 -31.84907082 62.98295423 -38 68 Z " fill="#062A74" transform="translate(284,4)"/>
<path d="M0 0 C9.5170869 9.21008409 19.4145924 19.46518228 26 31 C25.44570312 31.18175781 24.89140625 31.36351562 24.3203125 31.55078125 C23.59585938 31.80214844 22.87140625 32.05351562 22.125 32.3125 C21.40570313 32.55613281 20.68640625 32.79976563 19.9453125 33.05078125 C17.66005095 33.96335547 17.66005095 33.96335547 16 37 C11.27642886 67.64828718 30.72913723 103.99169733 48.05859375 127.83203125 C49.97020227 130.29208463 51.94949789 132.65443474 54 135 C54.43393066 135.49951172 54.86786133 135.99902344 55.31494141 136.51367188 C65.93350276 148.65125212 77.76663652 158.27911536 91.33105469 166.93066406 C92.73444623 167.82985291 94.12298879 168.7521576 95.5078125 169.6796875 C108.30394924 177.92806833 123.41834359 182.92644718 138 187 C138.79019531 187.22300781 139.58039063 187.44601562 140.39453125 187.67578125 C142.59059816 188.22584772 144.76508953 188.63576617 147 189 C148.1240625 189.18433594 149.248125 189.36867188 150.40625 189.55859375 C176.52081222 193.4092577 203.02545014 191.50534 228 183 C228.65242676 182.78504883 229.30485352 182.57009766 229.97705078 182.34863281 C270.26666883 168.94880459 302.69165345 139.72337485 321.93798828 102.15185547 C324.68639933 96.58300605 326.9587795 90.86405136 329 85 C329.25765137 84.26668457 329.51530273 83.53336914 329.78076172 82.77783203 C337.71339971 60.34403764 337.71339971 60.34403764 338 37 C335.07918425 33.40370652 332.44478621 32.21221442 328 31 C330.90800414 26.43422628 334.12222235 22.37910913 337.6875 18.3125 C342.90629509 12.29688086 347.99380614 6.19453281 353 0 C357.97668417 3.70061131 361.6186916 8.03229663 365.4765625 12.87109375 C367.28174368 15.13228254 369.13514101 17.34289299 371.0234375 19.53515625 C371.5285083 20.12232422 372.0335791 20.70949219 372.55395508 21.31445312 C373.54767118 22.46593513 374.54482812 23.61445804 375.5456543 24.75976562 C379 28.7796376 379 28.7796376 379 31 C377.27473958 31.65104167 375.54947917 32.30208333 373.82421875 32.953125 C371.42059051 34.33250909 370.44566445 35.62363325 369 38 C368.46916207 41.05443901 368.46916207 41.05443901 368.41015625 44.46875 C368.35077881 45.75177002 368.29140137 47.03479004 368.23022461 48.35668945 C368.20362762 49.03269196 368.17703064 49.70869446 368.14962769 50.40518188 C366.14239479 98.66524772 346.08505371 141.27805458 313 176 C312.27425781 176.77859375 311.54851562 177.5571875 310.80078125 178.359375 C290.61247475 199.4059644 264.60618313 213.03849206 237.57983398 223.02832031 C214.39356126 231.61842912 195.24652764 242.98696002 178 261 C174.18031273 259.44934714 172.02411777 257.06492249 169.25 254.0625 C154.54028738 238.8238249 135.37359484 230.10180336 115.83013916 222.85012817 C88.19348555 212.58929956 64.75121374 198.78083477 43.44433594 178.38134766 C42.16198382 177.15491961 40.86702339 175.94170513 39.5703125 174.73046875 C19.12279124 155.11976776 5.24219816 129.68638059 -4.18798828 103.26757812 C-4.85470929 101.40573064 -5.54690228 99.55302344 -6.24609375 97.703125 C-12.03518791 81.75495898 -13.5766709 65.27811611 -14.14111328 48.44799805 C-14.1976709 47.16707275 -14.25422852 45.88614746 -14.3125 44.56640625 C-14.34988281 43.42115479 -14.38726562 42.27590332 -14.42578125 41.09594727 C-15.11793517 37.36414289 -16.34247516 35.67164144 -19 33 C-22.12133744 31.65227097 -22.12133744 31.65227097 -25 31 C-23.29959941 26.85590993 -20.35864431 23.7560358 -17.4375 20.4375 C-16.35442783 19.19231089 -15.2724084 17.94620536 -14.19140625 16.69921875 C-13.38533936 15.76988525 -13.38533936 15.76988525 -12.56298828 14.82177734 C-9.55017564 11.31012349 -6.64935425 7.7087243 -3.7421875 4.109375 C-2 2 -2 2 0 0 Z " fill="#FBC950" transform="translate(79,225)"/>
<path d="M0 0 C10.52518513 9.1976843 19.3723354 22.95340889 20.8359375 37.1015625 C21.99512523 55.37256904 19.44907427 72.16753198 7.08789062 86.58374023 C-2.9237637 97.60249437 -16.31166354 106.5626034 -31.4921875 107.90844727 C-50.07918297 108.71665211 -65.93016468 105.8721092 -80.3125 93.25 C-81.89120602 91.74599615 -83.45546613 90.22657615 -85 88.6875 C-85.56460938 88.14609375 -86.12921875 87.6046875 -86.7109375 87.046875 C-97.94128462 75.28174945 -101.53581374 58.83300977 -101.41772461 43.1184082 C-100.95921878 27.88710319 -94.32455631 14.63595203 -83.95703125 3.51953125 C-59.68382484 -19.20329072 -25.92798749 -19.99439812 0 0 Z M-50 37.6875 C-52.9741633 42.00483382 -53.6486549 45.49826076 -53 50.6875 C-50.88561987 54.61420595 -48.76874874 57.32012715 -45 59.6875 C-40.96537972 60.48643471 -36.80396343 60.61525262 -33.0859375 58.703125 C-28.87093008 55.3394245 -27.21850462 52.61762411 -26.625 47.375 C-27.07355217 42.96423702 -28.15635228 40.08407923 -31 36.6875 C-37.71827066 32.15996977 -43.84907082 32.67045423 -50 37.6875 Z " fill="#FAC950" transform="translate(296,34.3125)"/>
<path d="M0 0 C11.88 0 23.76 0 36 0 C36 43.89 36 87.78 36 133 C31.68366295 133.71938951 28.15942796 134.12812299 23.8671875 134.1328125 C22.73152344 134.13410156 21.59585937 134.13539063 20.42578125 134.13671875 C18.66814453 134.13091797 18.66814453 134.13091797 16.875 134.125 C15.10576172 134.13080078 15.10576172 134.13080078 13.30078125 134.13671875 C12.16769531 134.13542969 11.03460938 134.13414062 9.8671875 134.1328125 C8.83706543 134.13168457 7.80694336 134.13055664 6.74560547 134.12939453 C4 134 4 134 0 133 C0 89.11 0 45.22 0 0 Z " fill="#FC8E01" transform="translate(238,263)"/>
<path d="M0 0 C40.26 0 80.52 0 122 0 C122 10.56 122 21.12 122 32 C81.74 32 41.48 32 0 32 C0 21.44 0 10.88 0 0 Z " fill="#FAC950" transform="translate(195,211)"/>
<path d="M0 0 C9.59354016 5.69243255 15.44628075 13.81936394 18.375 24.5625 C19.820042 34.53712619 17.33486374 43.58485879 11.6875 51.875 C5.53752971 59.41566709 -3.11677956 63.89939829 -12.73046875 64.87890625 C-20.20120482 65.15041014 -26.03364999 64.09733018 -32.625 60.5625 C-33.26050781 60.22347656 -33.89601562 59.88445312 -34.55078125 59.53515625 C-42.09915868 54.83206521 -47.07312302 46.62934369 -49.18359375 38.12109375 C-50.99272211 27.63455324 -48.98933004 19.15330298 -43.0859375 10.23828125 C-32.8763971 -2.46316119 -14.90687005 -6.90945833 0 0 Z M-25.625 21.5625 C-28.5991633 25.87983382 -29.2736549 29.37326076 -28.625 34.5625 C-26.51061987 38.48920595 -24.39374874 41.19512715 -20.625 43.5625 C-16.59037972 44.36143471 -12.42896343 44.49025262 -8.7109375 42.578125 C-4.49593008 39.2144245 -2.84350462 36.49262411 -2.25 31.25 C-2.69855217 26.83923702 -3.78135228 23.95907923 -6.625 20.5625 C-13.34327066 16.03496977 -19.47407082 16.54545423 -25.625 21.5625 Z " fill="#072B74" transform="translate(271.625,50.4375)"/>
<path d="M0 0 C11.88 0 23.76 0 36 0 C36 9.9 36 19.8 36 30 C24.12 30 12.24 30 0 30 C0 20.1 0 10.2 0 0 Z " fill="#FB8E01" transform="translate(238,161)"/>
</svg>
