<?xml version="1.0" encoding="UTF-8"?>
<svg version="1.1" xmlns="http://www.w3.org/2000/svg" width="512" height="512">
<path d="M0 0 C1.52419304 -0.01073296 1.52419304 -0.01073296 3.07917786 -0.02168274 C4.18830536 -0.02437164 5.29743286 -0.02706055 6.44017029 -0.02983093 C7.61302078 -0.03640213 8.78587128 -0.04297333 9.9942627 -0.04974365 C13.88044079 -0.0694727 17.76660535 -0.08114519 21.65281677 -0.09111023 C22.99481158 -0.09516026 24.33680618 -0.09927726 25.67880058 -0.10346031 C31.98832716 -0.12250577 38.29784212 -0.13673523 44.60739189 -0.14507228 C51.86841484 -0.154827 59.12913151 -0.18110258 66.39004666 -0.22157317 C72.01573288 -0.25184269 77.64133188 -0.26655156 83.26709789 -0.26985329 C86.62052029 -0.27219252 89.97335663 -0.28300964 93.32673836 -0.30631447 C97.0770338 -0.33075347 100.82653776 -0.32973129 104.57688904 -0.32279968 C105.67184692 -0.33560974 106.76680481 -0.3484198 107.89494324 -0.36161804 C118.88516649 -0.28794636 127.70319222 2.89048132 135.96141052 10.14717102 C136.5672699 10.64861633 137.17312927 11.15006165 137.79734802 11.66670227 C144.30125986 17.50318211 149.30238898 26.34089665 150.15428162 35.13911438 C150.69282862 49.16255191 149.43945561 60.9990132 139.96531677 72.15107727 C129.93739889 82.13989996 117.87246833 86.14466608 103.96141052 86.20967102 C102.64141052 86.18904602 101.32141052 86.16842102 99.96141052 86.14717102 C99.96141052 89.11717102 99.96141052 92.08717102 99.96141052 95.14717102 C100.60247742 95.24368958 101.24354431 95.34020813 101.90403748 95.43965149 C109.57652446 96.70206516 116.78745092 98.79269782 124.14891052 101.27217102 C125.33782898 101.6717804 126.52674744 102.07138977 127.75169373 102.48310852 C136.26019367 105.41295771 144.27963855 108.73372251 152.12986755 113.12471008 C154.0696793 114.20761219 156.0273676 115.25234765 157.98875427 116.29560852 C205.2684156 141.77553074 242.14076195 186.41062503 257.92674255 237.78779602 C260.83722083 247.77598155 263.05127477 257.92479618 264.96141052 268.14717102 C265.16274597 269.21572327 265.16274597 269.21572327 265.3681488 270.30586243 C273.27046393 314.7966746 263.2195142 362.82491521 241.96141052 402.14717102 C241.64204529 402.74577942 241.32268005 403.34438782 240.99363708 403.96113586 C233.279224 418.32874073 223.66369891 430.89989063 212.96141052 443.14717102 C212.23824646 443.99408508 211.5150824 444.84099915 210.77000427 445.71357727 C206.49414265 450.65884972 201.96648884 454.95372702 196.96141052 459.14717102 C195.99203552 459.99279602 195.02266052 460.83842102 194.02391052 461.70967102 C159.52206885 491.70415874 113.35385632 511.91705937 67.24656677 512.38545227 C66.44168823 512.39524612 65.63680969 512.40503998 64.80754089 512.41513062 C38.46651208 512.6694017 14.13201944 510.50377073 -11.03858948 502.14717102 C-12.10013245 501.79549866 -12.10013245 501.79549866 -13.18312073 501.4367218 C-40.69107899 492.12057055 -64.17421157 477.03390991 -86.03858948 458.14717102 C-86.81589417 457.4949054 -87.59319885 456.84263977 -88.39405823 456.17060852 C-92.38773534 452.78718381 -95.89299426 449.21797617 -99.27296448 445.22138977 C-100.44361061 443.84613955 -101.6417238 442.49377551 -102.86671448 441.16670227 C-142.20628904 398.54882982 -156.93403046 341.89807814 -155.03858948 285.14717102 C-152.50872201 243.37380392 -135.69952281 201.33560921 -109.03858948 169.14717102 C-108.5574469 168.56451477 -108.07630432 167.98185852 -107.58058167 167.38154602 C-98.25430553 156.15402902 -88.47085403 146.2667393 -77.03858948 137.14717102 C-76.29480042 136.51295227 -75.55101135 135.87873352 -74.78468323 135.22529602 C-62.03149554 124.4904389 -47.19145289 116.00666094 -32.03858948 109.14717102 C-31.03843811 108.69350159 -31.03843811 108.69350159 -30.01808167 108.23066711 C-16.77307309 102.31489982 -2.52072377 96.8166932 11.96141052 95.14717102 C11.96141052 92.17717102 11.96141052 89.20717102 11.96141052 86.14717102 C10.72391052 86.18842102 9.48641052 86.22967102 8.21141052 86.27217102 C-4.70807066 86.1912979 -16.19959826 82.82017789 -26.03858948 74.14717102 C-36.45942011 62.1738889 -39.28269331 50.83431218 -38.26612854 35.32051086 C-37.38756006 26.92886215 -33.51061591 20.3744166 -28.03858948 14.14717102 C-27.53714417 13.54131165 -27.03569885 12.93545227 -26.51905823 12.31123352 C-19.81769646 4.84353598 -10.0483677 0.04870332 0 0 Z M-12.78858948 29.14717102 C-17.63712625 35.61188671 -17.96739635 41.14219634 -17.03858948 49.14717102 C-14.73171229 55.36484858 -9.97640156 60.30108898 -3.97218323 63.11592102 C1.46508159 65.15844137 6.18506753 65.42223497 11.96141052 65.14717102 C12.27271912 63.87873352 12.27271912 63.87873352 12.59031677 62.58467102 C14.66054232 54.96208323 16.74822488 49.20698083 22.96141052 44.14717102 C29.73525963 40.4583969 36.07369244 39.54940104 43.68406677 39.61592102 C44.6695903 39.61209412 45.65511383 39.60826721 46.67050171 39.60432434 C48.73859183 39.60162118 50.80671709 39.6088695 52.8747406 39.62568665 C56.01964743 39.64714194 59.16227616 39.62581792 62.30711365 39.60029602 C64.328603 39.60293913 66.35009096 39.60806376 68.37156677 39.61592102 C69.29993851 39.6078241 70.22831024 39.59972717 71.18481445 39.59138489 C80.18469771 39.71917383 87.64327109 42.68209811 93.96141052 49.14717102 C97.21223612 54.13606179 98.72349764 59.37024424 99.96141052 65.14717102 C108.72306264 65.56439255 115.4259636 64.54494892 122.33641052 58.83467102 C127.5245201 53.84292416 129.12906215 49.98413072 129.46141052 42.77217102 C129.28380971 35.6842841 127.39467401 31.57165378 122.43406677 26.62373352 C114.9433597 20.02886165 107.40726595 19.99729649 97.8603363 20.00190735 C96.85793915 19.99854874 95.85554199 19.99519012 94.82276917 19.99172974 C91.51740776 19.98225046 88.21209717 19.98027819 84.90672302 19.97920227 C82.60275756 19.97598777 80.2987923 19.97262355 77.99482727 19.96911621 C73.16809109 19.96313264 68.3413728 19.96127554 63.51463318 19.96186829 C57.33882042 19.96196991 51.16312263 19.94831436 44.98733711 19.93109608 C40.22946143 19.91996212 35.47161342 19.9179495 30.71372604 19.91847801 C28.43722512 19.91730014 26.16072344 19.91288917 23.88423538 19.90514565 C20.69650021 19.895317 17.50901322 19.89823517 14.3212738 19.9042511 C12.91984131 19.89582184 12.91984131 19.89582184 11.49009705 19.88722229 C1.86322345 19.9332445 -6.19158906 21.53080903 -12.78858948 29.14717102 Z " fill="#FAC950" transform="translate(200.03858947753906,-0.1471710205078125)"/>
<path d="M0 0 C25.19093862 20.08637578 43.69083511 47.31018123 52.140625 78.5390625 C52.33382324 79.21001953 52.52702148 79.88097656 52.72607422 80.57226562 C58.63444895 101.69771978 58.84869526 128.32227303 53.140625 149.5390625 C52.84260986 150.69172607 52.84260986 150.69172607 52.53857422 151.86767578 C42.97958419 188.34936431 21.55668738 221.32460422 -10.859375 241.5390625 C-11.70314697 242.06935059 -11.70314697 242.06935059 -12.56396484 242.61035156 C-48.15505404 264.66080124 -88.5980236 270.43183445 -129.17553711 260.94628906 C-139.6100278 258.32934071 -149.22601181 254.27979439 -158.859375 249.5390625 C-159.87515625 249.04535156 -160.8909375 248.55164063 -161.9375 248.04296875 C-173.7396101 241.95211368 -184.3091543 233.70902939 -193.859375 224.5390625 C-194.35260254 224.08225098 -194.84583008 223.62543945 -195.35400391 223.15478516 C-220.94279081 199.4393084 -238.3089584 164.05849744 -240.03637695 128.94067383 C-240.58186902 94.93978401 -240.58186902 94.93978401 -235.859375 78.5390625 C-235.52035156 77.28609375 -235.18132812 76.033125 -234.83203125 74.7421875 C-223.37576558 36.74489354 -196.72111596 5.02998243 -162.24365234 -14.19604492 C-148.93455082 -21.32331467 -134.68425169 -26.58541524 -119.859375 -29.4609375 C-118.99030518 -29.63608887 -118.12123535 -29.81124023 -117.22583008 -29.99169922 C-75.81621419 -37.69949157 -33.06756275 -25.35179811 0 0 Z " fill="#FEFEFE" transform="translate(347.859375,184.4609375)"/>
<path d="M0 0 C1.52419304 -0.01073296 1.52419304 -0.01073296 3.07917786 -0.02168274 C4.18830536 -0.02437164 5.29743286 -0.02706055 6.44017029 -0.02983093 C7.61302078 -0.03640213 8.78587128 -0.04297333 9.9942627 -0.04974365 C13.88044079 -0.0694727 17.76660535 -0.08114519 21.65281677 -0.09111023 C22.99481158 -0.09516026 24.33680618 -0.09927726 25.67880058 -0.10346031 C31.98832716 -0.12250577 38.29784212 -0.13673523 44.60739189 -0.14507228 C51.86841484 -0.154827 59.12913151 -0.18110258 66.39004666 -0.22157317 C72.01573288 -0.25184269 77.64133188 -0.26655156 83.26709789 -0.26985329 C86.62052029 -0.27219252 89.97335663 -0.28300964 93.32673836 -0.30631447 C97.0770338 -0.33075347 100.82653776 -0.32973129 104.57688904 -0.32279968 C105.67184692 -0.33560974 106.76680481 -0.3484198 107.89494324 -0.36161804 C118.88516649 -0.28794636 127.70319222 2.89048132 135.96141052 10.14717102 C136.5672699 10.64861633 137.17312927 11.15006165 137.79734802 11.66670227 C144.30125986 17.50318211 149.30238898 26.34089665 150.15428162 35.13911438 C150.69282862 49.16255191 149.43945561 60.9990132 139.96531677 72.15107727 C129.93739889 82.13989996 117.87246833 86.14466608 103.96141052 86.20967102 C102.64141052 86.18904602 101.32141052 86.16842102 99.96141052 86.14717102 C99.96141052 89.11717102 99.96141052 92.08717102 99.96141052 95.14717102 C100.60247742 95.24368958 101.24354431 95.34020813 101.90403748 95.43965149 C109.57652446 96.70206516 116.78745092 98.79269782 124.14891052 101.27217102 C125.33782898 101.6717804 126.52674744 102.07138977 127.75169373 102.48310852 C136.26019367 105.41295771 144.27963855 108.73372251 152.12986755 113.12471008 C154.0696793 114.20761219 156.0273676 115.25234765 157.98875427 116.29560852 C205.2684156 141.77553074 242.14076195 186.41062503 257.92674255 237.78779602 C260.83722083 247.77598155 263.05127477 257.92479618 264.96141052 268.14717102 C265.16274597 269.21572327 265.16274597 269.21572327 265.3681488 270.30586243 C273.27046393 314.7966746 263.2195142 362.82491521 241.96141052 402.14717102 C241.64204529 402.74577942 241.32268005 403.34438782 240.99363708 403.96113586 C233.279224 418.32874073 223.66369891 430.89989063 212.96141052 443.14717102 C212.23824646 443.99408508 211.5150824 444.84099915 210.77000427 445.71357727 C206.49414265 450.65884972 201.96648884 454.95372702 196.96141052 459.14717102 C195.99203552 459.99279602 195.02266052 460.83842102 194.02391052 461.70967102 C159.52206885 491.70415874 113.35385632 511.91705937 67.24656677 512.38545227 C66.44168823 512.39524612 65.63680969 512.40503998 64.80754089 512.41513062 C38.46651208 512.6694017 14.13201944 510.50377073 -11.03858948 502.14717102 C-12.10013245 501.79549866 -12.10013245 501.79549866 -13.18312073 501.4367218 C-40.69107899 492.12057055 -64.17421157 477.03390991 -86.03858948 458.14717102 C-86.81589417 457.4949054 -87.59319885 456.84263977 -88.39405823 456.17060852 C-92.38773534 452.78718381 -95.89299426 449.21797617 -99.27296448 445.22138977 C-100.44361061 443.84613955 -101.6417238 442.49377551 -102.86671448 441.16670227 C-142.20628904 398.54882982 -156.93403046 341.89807814 -155.03858948 285.14717102 C-152.50872201 243.37380392 -135.69952281 201.33560921 -109.03858948 169.14717102 C-108.5574469 168.56451477 -108.07630432 167.98185852 -107.58058167 167.38154602 C-98.25430553 156.15402902 -88.47085403 146.2667393 -77.03858948 137.14717102 C-76.29480042 136.51295227 -75.55101135 135.87873352 -74.78468323 135.22529602 C-62.03149554 124.4904389 -47.19145289 116.00666094 -32.03858948 109.14717102 C-31.03843811 108.69350159 -31.03843811 108.69350159 -30.01808167 108.23066711 C-16.77307309 102.31489982 -2.52072377 96.8166932 11.96141052 95.14717102 C11.96141052 92.17717102 11.96141052 89.20717102 11.96141052 86.14717102 C10.72391052 86.18842102 9.48641052 86.22967102 8.21141052 86.27217102 C-4.70807066 86.1912979 -16.19959826 82.82017789 -26.03858948 74.14717102 C-36.45942011 62.1738889 -39.28269331 50.83431218 -38.26612854 35.32051086 C-37.38756006 26.92886215 -33.51061591 20.3744166 -28.03858948 14.14717102 C-27.53714417 13.54131165 -27.03569885 12.93545227 -26.51905823 12.31123352 C-19.81769646 4.84353598 -10.0483677 0.04870332 0 0 Z M-12.78858948 29.14717102 C-17.63712625 35.61188671 -17.96739635 41.14219634 -17.03858948 49.14717102 C-14.73171229 55.36484858 -9.97640156 60.30108898 -3.97218323 63.11592102 C1.46508159 65.15844137 6.18506753 65.42223497 11.96141052 65.14717102 C12.27271912 63.87873352 12.27271912 63.87873352 12.59031677 62.58467102 C14.66054232 54.96208323 16.74822488 49.20698083 22.96141052 44.14717102 C29.73525963 40.4583969 36.07369244 39.54940104 43.68406677 39.61592102 C44.6695903 39.61209412 45.65511383 39.60826721 46.67050171 39.60432434 C48.73859183 39.60162118 50.80671709 39.6088695 52.8747406 39.62568665 C56.01964743 39.64714194 59.16227616 39.62581792 62.30711365 39.60029602 C64.328603 39.60293913 66.35009096 39.60806376 68.37156677 39.61592102 C69.29993851 39.6078241 70.22831024 39.59972717 71.18481445 39.59138489 C80.18469771 39.71917383 87.64327109 42.68209811 93.96141052 49.14717102 C97.21223612 54.13606179 98.72349764 59.37024424 99.96141052 65.14717102 C108.72306264 65.56439255 115.4259636 64.54494892 122.33641052 58.83467102 C127.5245201 53.84292416 129.12906215 49.98413072 129.46141052 42.77217102 C129.28380971 35.6842841 127.39467401 31.57165378 122.43406677 26.62373352 C114.9433597 20.02886165 107.40726595 19.99729649 97.8603363 20.00190735 C96.85793915 19.99854874 95.85554199 19.99519012 94.82276917 19.99172974 C91.51740776 19.98225046 88.21209717 19.98027819 84.90672302 19.97920227 C82.60275756 19.97598777 80.2987923 19.97262355 77.99482727 19.96911621 C73.16809109 19.96313264 68.3413728 19.96127554 63.51463318 19.96186829 C57.33882042 19.96196991 51.16312263 19.94831436 44.98733711 19.93109608 C40.22946143 19.91996212 35.47161342 19.9179495 30.71372604 19.91847801 C28.43722512 19.91730014 26.16072344 19.91288917 23.88423538 19.90514565 C20.69650021 19.895317 17.50901322 19.89823517 14.3212738 19.9042511 C12.91984131 19.89582184 12.91984131 19.89582184 11.49009705 19.88722229 C1.86322345 19.9332445 -6.19158906 21.53080903 -12.78858948 29.14717102 Z M-84.03858948 171.14717102 C-87.2235126 174.68488562 -90.14130823 178.37273123 -93.03858948 182.14717102 C-93.81331604 183.0830304 -94.5880426 184.01888977 -95.38624573 184.98310852 C-111.61072266 204.98729719 -122.76014069 229.25286167 -129.03858948 254.14717102 C-129.32258606 255.27010559 -129.32258606 255.27010559 -129.61231995 256.41572571 C-132.23523774 266.92067747 -134.1825514 277.00219701 -134.27687073 287.86592102 C-134.28684586 288.79263107 -134.29682098 289.71934113 -134.30709839 290.6741333 C-134.84309398 318.69177071 -134.84309398 318.69177071 -130.03858948 346.14717102 C-129.7106842 347.29604797 -129.38277893 348.44492493 -129.04493713 349.62861633 C-122.719039 371.11500023 -114.4915251 392.04544104 -101.03858948 410.14717102 C-100.65348206 410.67069153 -100.26837463 411.19421204 -99.87159729 411.7335968 C-94.33079934 419.23630299 -88.46246542 426.37747468 -82.03858948 433.14717102 C-80.68314026 434.58189758 -80.68314026 434.58189758 -79.30030823 436.04560852 C-55.32152098 460.9672686 -23.57902666 478.89292177 9.96141052 487.14717102 C11.00426208 487.42174133 12.04711365 487.69631165 13.12156677 487.97920227 C60.93113677 499.54695282 112.88987128 490.1224091 154.80027771 465.08686829 C167.24546697 457.39329116 178.45590106 448.3005405 188.96141052 438.14717102 C189.88437927 437.27576477 190.80734802 436.40435852 191.75828552 435.50654602 C202.89068028 424.75152057 212.15497834 412.50794166 219.96141052 399.14717102 C220.42160583 398.36325989 220.88180115 397.57934875 221.35594177 396.77168274 C230.63389045 380.69133303 236.94052542 363.94598301 241.96141052 346.14717102 C242.36408142 344.73540588 242.36408142 344.73540588 242.77488708 343.29512024 C250.14338697 315.81610836 249.06944322 280.3186194 240.96141052 253.14717102 C240.67201599 252.14540833 240.38262146 251.14364563 240.0844574 250.11152649 C231.5443495 221.10507721 217.55336472 195.65344767 197.04734802 173.42060852 C195.10918502 171.30822862 193.25117781 169.1471903 191.39891052 166.95967102 C179.63234102 153.49440663 163.57372884 142.6677922 147.96141052 134.14717102 C147.33444275 133.80347473 146.70747498 133.45977844 146.06150818 133.10566711 C132.51657627 125.78157427 118.25439634 120.41070415 103.39891052 116.39717102 C102.71723816 116.21065979 102.0355658 116.02414856 101.33323669 115.83198547 C86.8800661 112.13196052 72.59837051 110.61532501 57.71141052 110.77217102 C56.90747864 110.77715607 56.10354675 110.78214111 55.2752533 110.78727722 C1.21515469 111.17846467 -46.14389611 132.8775147 -84.03858948 171.14717102 Z " fill="#062A74" transform="translate(200.03858947753906,-0.1471710205078125)"/>
<path d="M0 0 C1.12019531 0.63550781 2.24039063 1.27101562 3.39453125 1.92578125 C40.79847129 24.06642903 68.95098106 60.25918783 80.8125 102.125 C81.08658691 103.08865479 81.08658691 103.08865479 81.36621094 104.07177734 C85.06010453 118.04507353 86.55588687 131.71444749 86.4375 146.125 C86.43412628 146.92848877 86.43075256 147.73197754 86.42727661 148.55981445 C86.26993378 174.55581122 80.88002989 198.73860813 69 222 C68.5656665 222.87615967 68.5656665 222.87615967 68.12255859 223.77001953 C48.82722859 262.6157738 15.28869072 290.78438255 -25 306 C-26.175625 306.46277344 -27.35125 306.92554688 -28.5625 307.40234375 C-46.05173813 313.82417338 -64.01606116 315.36997998 -82.5 315.375 C-83.25155365 315.37690338 -84.0031073 315.37880676 -84.7774353 315.38076782 C-99.48574357 315.37654667 -113.72544834 314.18291406 -127.875 309.875 C-129.40326416 309.41758423 -129.40326416 309.41758423 -130.96240234 308.95092773 C-157.31353889 300.80937222 -179.61599746 286.31918373 -200 268 C-201.01320313 267.09701172 -201.01320313 267.09701172 -202.046875 266.17578125 C-230.28607241 239.48301608 -248.83028385 196.97620652 -250.41195679 158.34793091 C-250.50862322 154.564331 -250.52208504 150.78461351 -250.5 147 C-250.49856995 146.2007309 -250.49713989 145.40146179 -250.4956665 144.57797241 C-250.4327733 130.27900752 -248.86721784 116.81259279 -245 103 C-244.77538086 102.18096191 -244.55076172 101.36192383 -244.31933594 100.51806641 C-237.93631099 77.93590899 -226.50272385 56.6043255 -211 39 C-210.2471875 38.13761719 -209.494375 37.27523437 -208.71875 36.38671875 C-206.50986544 33.89415895 -204.26743004 31.43932907 -202 29 C-201.38898438 28.33484375 -200.77796875 27.6696875 -200.1484375 26.984375 C-149.47715555 -26.05875419 -62.81697814 -35.88518364 0 0 Z M-193 48 C-216.69288097 75.54746344 -230.49943111 109.27591909 -230.3125 145.6875 C-230.31034485 146.44178284 -230.3081897 147.19606567 -230.30596924 147.97320557 C-230.25563553 158.94042664 -229.86418583 169.3538753 -227 180 C-226.80132324 180.76844238 -226.60264648 181.53688477 -226.39794922 182.32861328 C-215.92115602 222.31307873 -191.85369257 254.90994094 -156.25 276.125 C-121.4276209 295.68802392 -81.12008214 301.48149953 -42.47607422 290.79418945 C-18.05319851 283.61303721 2.82814607 271.74983 21 254 C21.99323965 253.07775277 22.98804952 252.15719392 23.984375 251.23828125 C48.25476199 228.45335513 64.84390993 192.64836698 66.14526367 159.2746582 C66.1655851 155.71797143 66.18568358 152.16148102 66.18530273 148.60473633 C66.18747756 146.33590596 66.20563953 144.06757203 66.22460938 141.79882812 C66.25821699 133.33388209 65.81732183 125.3078684 64 117 C63.75044556 115.85156616 63.75044556 115.85156616 63.49584961 114.67993164 C54.75273917 77.2451791 31.04570718 42.7753843 -1.5625 22.20874023 C-64.44669204 -16.13506862 -142.61873226 -5.75751488 -193 48 Z " fill="#072C75" transform="translate(338,154)"/>
<path d="M0 0 C3.08929712 0.87826617 5.96897004 2.11823154 8.90234375 3.41796875 C9.75777267 3.78295471 10.6132016 4.14794067 11.49455261 4.52398682 C14.31504207 5.73133618 17.12618342 6.95896005 19.9375 8.1875 C21.9101176 9.03841335 23.88327243 9.88808223 25.85693359 10.73657227 C30.04227773 12.53754576 34.22421174 14.34618675 38.40478516 16.15820312 C45.17136537 19.08345849 51.96511078 21.94225452 58.76171875 24.796875 C62.12294327 26.21460295 65.48353389 27.63381945 68.84378052 29.05386353 C71.02714714 29.97455344 73.21194117 30.89186583 75.39816284 31.80575562 C78.46025977 33.08753439 81.51584657 34.38375571 84.5703125 35.68359375 C85.48387009 36.0620343 86.39742767 36.44047485 87.33866882 36.8303833 C88.17581924 37.18985046 89.01296967 37.54931763 89.87548828 37.91967773 C90.60357697 38.22655014 91.33166565 38.53342255 92.08181763 38.84959412 C94.43490972 40.26083166 95.57703215 41.6629401 97 44 C97.65514096 47.93084575 97.97233487 50.39308868 95.88671875 53.83984375 C93.54619721 56.5869075 90.98102311 59.06028313 88.37646484 61.55517578 C87.18366372 62.69930456 85.9946808 63.84742576 84.80932617 64.99926758 C83.61273964 66.1571035 82.40331917 67.30183567 81.1809082 68.43237305 C79.28589683 70.19711342 79.28589683 70.19711342 77 73 C77.41080075 77.61235141 80.77284542 80.14046324 83.9375 83.1875 C84.48857422 83.73341797 85.03964844 84.27933594 85.60742188 84.84179688 C88.53708602 87.77638679 88.53708602 87.77638679 92 90 C92.38502686 89.12819092 92.38502686 89.12819092 92.77783203 88.23876953 C94.1128105 85.79335352 95.59060229 84.15075701 97.5546875 82.1796875 C98.25207031 81.47972656 98.94945312 80.77976562 99.66796875 80.05859375 C100.39628906 79.33800781 101.12460937 78.61742187 101.875 77.875 C102.59558594 77.14667969 103.31617188 76.41835938 104.05859375 75.66796875 C104.75855469 74.97058594 105.45851563 74.27320313 106.1796875 73.5546875 C106.81632324 72.92030762 107.45295898 72.28592773 108.10888672 71.63232422 C111.17315168 68.98738805 113.41049912 68.07502739 117.4375 67.5625 C121.08094477 68.00994059 122.22856512 68.55098811 124.67211914 71.17260742 C127.68874353 75.32400172 129.49763727 80.17908661 131.5 84.875 C132.01771973 86.06464355 132.53543945 87.25428711 133.06884766 88.47998047 C134.73277951 92.31145459 136.36988248 96.15403601 138 100 C138.26486206 100.62463135 138.52972412 101.2492627 138.8026123 101.89282227 C141.21133312 107.57969916 143.60848835 113.27130921 145.97338867 118.9765625 C148.57370106 125.24538391 151.20204664 131.49743198 153.93377686 137.71035767 C155.24979129 140.70354536 156.55452799 143.70160305 157.85943604 146.699646 C158.48731634 148.13277325 159.12093405 149.56340257 159.76068115 150.99127197 C166.0220465 164.97442171 166.0220465 164.97442171 165 173 C163.5625 176 163.5625 176 161 178 C154.14129906 179.94177476 149.09983125 178.41941767 142.83203125 175.50390625 C141.97054474 175.12387955 141.10905823 174.74385284 140.22146606 174.35231018 C137.40980791 173.10756912 134.61165771 171.83506888 131.8125 170.5625 C129.85789473 169.69215365 127.90223172 168.82417916 125.94555664 167.95849609 C122.94184575 166.62931356 119.93885193 165.29874141 116.93913269 163.96057129 C107.00156374 159.53012399 96.97939679 155.31227746 86.9375 151.125 C57.32701881 138.76484803 57.32701881 138.76484803 55 134 C54.23515383 130.52877507 53.9829015 129.2570008 55 126 C57.59738782 122.25926443 60.7523588 119.17804889 64 116 C65.01736928 114.97438356 66.03295153 113.94699184 67.046875 112.91796875 C69.67723526 110.25719481 72.33205532 107.62306337 75 105 C73.38989473 100.92623969 70.46177729 98.23492931 67.375 95.25 C66.859375 94.74339844 66.34375 94.23679687 65.8125 93.71484375 C64.54616661 92.47196098 63.2736856 91.23534724 62 90 C58.55541102 91.46669405 56.48474424 93.36184523 53.953125 96.09765625 C53.19 96.89880859 52.426875 97.69996094 51.640625 98.52539062 C50.05224453 100.21109833 48.47399167 101.90640906 46.90625 103.61132812 C40.3327215 110.45507718 40.3327215 110.45507718 35.796875 111.37109375 C31.2472254 110.92642635 29.0239665 109.24363329 26 106 C24.2434082 102.93359375 24.2434082 102.93359375 22.80078125 99.4375 C22.5278273 98.78971085 22.25487335 98.14192169 21.97364807 97.47450256 C21.07105601 95.3224524 20.19203376 93.16156452 19.3125 91 C18.67562889 89.46993891 18.03707759 87.94057626 17.39697266 86.41186523 C16.00792468 83.08881648 14.62792077 79.76219565 13.25341797 76.43310547 C10.8575669 70.64142241 8.41796834 64.86859858 5.97265625 59.09765625 C5.54876114 58.09697113 5.12486603 57.09628601 4.68812561 56.0652771 C3.8365163 54.05497157 2.98485745 52.04468702 2.13314819 50.03442383 C-0.6040381 43.568803 -3.33112082 37.09894788 -6.05029297 30.62573242 C-7.23379063 27.80998857 -8.42795985 24.99962071 -9.64111328 22.1965332 C-10.09470215 21.13909912 -10.54829102 20.08166504 -11.015625 18.9921875 C-11.39235352 18.12577637 -11.76908203 17.25936523 -12.15722656 16.36669922 C-13.52064128 12.53792104 -13.9870628 8.96443255 -13 5 C-9.54628128 -0.28850679 -5.93937023 -0.7383562 0 0 Z " fill="#072C76" transform="translate(180,212)"/>
<path d="M0 0 C0.92156116 3.00162016 1.0091078 5.15358322 0.4765625 8.23828125 C0.34362793 9.05087402 0.21069336 9.8634668 0.07373047 10.70068359 C-0.07435059 11.56258301 -0.22243164 12.42448242 -0.375 13.3125 C-1.42343396 19.57935283 -2.0982846 25.52341388 -2.125 31.875 C-2.55673288 39.88796229 -6.26084878 44.86628538 -10.73730469 51.14599609 C-25.12640521 72.27337996 -33.9622867 100.4848871 -34.23828125 125.96875 C-34.24812042 126.71793701 -34.25795959 127.46712402 -34.26809692 128.23901367 C-34.5291559 153.30326294 -31.97033355 175.41078672 -23 199 C-22.74460449 199.67385742 -22.48920898 200.34771484 -22.22607422 201.04199219 C-6.48832103 241.73908506 26.76917013 273.89925324 66.31640625 291.44140625 C87.94829647 300.59424209 109.17266237 304.43965847 132.5 304.375 C133.28069855 304.37412384 134.06139709 304.37324768 134.86575317 304.37234497 C169.21417403 304.24602384 200.65986486 294.48384291 229 275 C232.24304586 272.83796943 233.51725428 272.67931948 237.3046875 272.4375 C238.35793213 272.3638623 239.41117676 272.29022461 240.49633789 272.21435547 C242.16877563 272.10824951 242.16877563 272.10824951 243.875 272 C252.67608385 271.37723729 261.31879859 270.62233187 270 269 C242.81889058 302.97638677 196.88992857 322.09135175 154.70703125 327.34765625 C144.45185923 328.44742639 134.29268205 328.48405752 124 328 C123.03078613 327.95601074 122.06157227 327.91202148 121.06298828 327.86669922 C106.95353667 327.13645468 93.58653721 324.85195682 80 321 C78.98848877 320.71600342 78.98848877 320.71600342 77.95654297 320.42626953 C38.58668438 309.0721117 1.48195462 282.61886955 -22 249 C-22.64050293 248.1013623 -22.64050293 248.1013623 -23.29394531 247.18457031 C-37.23619873 227.44575639 -46.81397617 205.29811226 -53 182 C-53.2371875 181.13987305 -53.474375 180.27974609 -53.71875 179.39355469 C-57.43582574 165.26092297 -57.40874152 150.82793208 -57.5 136.3125 C-57.51071533 135.36008423 -57.52143066 134.40766846 -57.5324707 133.4263916 C-57.64846041 119.8186895 -56.19780858 107.22326364 -53 94 C-52.83067963 93.28739014 -52.66135925 92.57478027 -52.48690796 91.84057617 C-44.0099551 56.37361559 -25.20133901 26.01428543 0 0 Z " fill="#FA8D02" transform="translate(123,164)"/>
<path d="M0 0 C0.33 0 0.66 0 1 0 C1.12677124 0.86443726 1.12677124 0.86443726 1.25610352 1.74633789 C3.4252379 16.15467456 6.72817055 29.78861145 11.24316406 43.63671875 C12.23666204 46.7389963 13.12910342 49.8613232 14 53 C15.11375 53.0928125 15.11375 53.0928125 16.25 53.1875 C19.94570593 54.27941311 21.03449378 55.72415631 23 59 C23.31918696 62.06419482 23.2479588 64.28168635 22.2421875 67.1953125 C21.88025392 71.38673686 23.82107579 74.32879334 25.8125 77.875 C26.42557007 78.99503418 26.42557007 78.99503418 27.05102539 80.13769531 C47.94659747 117.66476112 78.22833741 147.13645931 115 169 C115.5971582 169.36303223 116.19431641 169.72606445 116.80957031 170.10009766 C123.62593892 174.19195356 128.50126966 175.38990241 136.421875 174.96484375 C139 175 139 175 142.1875 176.6875 C144.18107537 179.2310272 144.48567338 180.86728331 145 184 C145.66572021 184.18103271 146.33144043 184.36206543 147.01733398 184.54858398 C151.8595469 185.86703136 156.6997757 187.19185064 161.53515625 188.53515625 C162.44716797 188.78716797 163.35917969 189.03917969 164.29882812 189.29882812 C166.14590988 189.80922315 167.99226411 190.32225816 169.83789062 190.83789062 C177.66337508 192.99225259 185.51875765 194.93017923 193.625 195.625 C194.46289062 195.69976562 195.30078125 195.77453125 196.1640625 195.8515625 C197.07285156 195.92503906 197.07285156 195.92503906 198 196 C195.25291391 198.22797939 192.8234871 199.60284993 189.47265625 200.71875 C188.60455322 201.00983643 187.7364502 201.30092285 186.84204102 201.60083008 C185.92479248 201.89755615 185.00754395 202.19428223 184.0625 202.5 C183.11753662 202.80897217 182.17257324 203.11794434 181.19897461 203.4362793 C174.20295407 205.68852533 167.23457436 207.66583174 160 209 C158.94554687 209.20367187 157.89109375 209.40734375 156.8046875 209.6171875 C126.53557783 214.74397406 95.27540872 208.42266426 68 195 C66.98421875 194.50628906 65.9684375 194.01257813 64.921875 193.50390625 C53.1197649 187.41305118 42.5502207 179.16996689 33 170 C32.50677246 169.54318848 32.01354492 169.08637695 31.50537109 168.61572266 C5.91658419 144.9002459 -11.4495834 109.51943494 -13.17700195 74.40161133 C-13.72705392 40.11649987 -13.72705392 40.11649987 -9 24 C-8.79681152 23.29875 -8.59362305 22.5975 -8.38427734 21.875 C-6.14506702 14.34422832 -3.3635326 7.10079104 0 0 Z " fill="#D1DBFC" transform="translate(121,239)"/>
<path d="M0 0 C1.52419304 -0.01073296 1.52419304 -0.01073296 3.07917786 -0.02168274 C4.18830536 -0.02437164 5.29743286 -0.02706055 6.44017029 -0.02983093 C7.61302078 -0.03640213 8.78587128 -0.04297333 9.9942627 -0.04974365 C13.88044079 -0.0694727 17.76660535 -0.08114519 21.65281677 -0.09111023 C22.99481158 -0.09516026 24.33680618 -0.09927726 25.67880058 -0.10346031 C31.98832716 -0.12250577 38.29784212 -0.13673523 44.60739189 -0.14507228 C51.86841484 -0.154827 59.12913151 -0.18110258 66.39004666 -0.22157317 C72.01573288 -0.25184269 77.64133188 -0.26655156 83.26709789 -0.26985329 C86.62052029 -0.27219252 89.97335663 -0.28300964 93.32673836 -0.30631447 C97.0770338 -0.33075347 100.82653776 -0.32973129 104.57688904 -0.32279968 C105.67184692 -0.33560974 106.76680481 -0.3484198 107.89494324 -0.36161804 C118.88516649 -0.28794636 127.70319222 2.89048132 135.96141052 10.14717102 C136.87019958 10.89933899 136.87019958 10.89933899 137.79734802 11.66670227 C144.30125986 17.50318211 149.30238898 26.34089665 150.15428162 35.13911438 C150.69282862 49.16255191 149.43945561 60.9990132 139.96531677 72.15107727 C129.2081735 82.86628236 116.51606559 86.22931629 101.74656677 86.27998352 C99.96141052 86.14717102 99.96141052 86.14717102 98.96141052 85.14717102 C98.8747162 83.65845242 98.85437559 82.16572602 98.86375427 80.67451477 C98.86697693 79.77539368 98.87019958 78.87627258 98.8735199 77.9499054 C98.8818988 77.00437805 98.89027771 76.05885071 98.89891052 75.08467102 C98.90342224 74.13527649 98.90793396 73.18588196 98.9125824 72.2077179 C98.92440942 69.85414037 98.94089027 67.50068625 98.96141052 65.14717102 C100.44641052 65.01762024 100.44641052 65.01762024 101.96141052 64.88545227 C111.15939794 63.95738594 117.87061067 62.56092876 124.33641052 55.58467102 C128.56180358 49.24658144 128.8467003 43.70826839 127.96141052 36.14717102 C125.66015204 30.08972618 121.4764498 26.30154993 116.02391052 22.95967102 C110.22216574 20.6741352 103.99123896 20.99894632 97.8603363 21.00190735 C96.85793915 20.99854874 95.85554199 20.99519012 94.82276917 20.99172974 C91.51740776 20.98225046 88.21209717 20.98027819 84.90672302 20.97920227 C82.60275756 20.97598777 80.2987923 20.97262355 77.99482727 20.96911621 C73.16809109 20.96313264 68.3413728 20.96127554 63.51463318 20.96186829 C57.33882042 20.96196991 51.16312263 20.94831436 44.98733711 20.93109608 C40.22946143 20.91996212 35.47161342 20.9179495 30.71372604 20.91847801 C28.43722512 20.91730014 26.16072344 20.91288917 23.88423538 20.90514565 C20.69650021 20.895317 17.50901322 20.89823517 14.3212738 20.9042511 C12.91984131 20.89582184 12.91984131 20.89582184 11.49009705 20.88722229 C3.33631101 20.92620226 -3.45199238 21.90783242 -10.03858948 27.14717102 C-15.54414274 33.26445243 -16.54957683 37.7202261 -16.42140198 45.87763977 C-15.72128591 51.85720253 -12.86923597 55.26567323 -8.78858948 59.45967102 C-1.98409384 63.63515698 5.11395345 64.61539392 12.96141052 65.14717102 C12.99029199 68.45965289 13.00816851 71.77210269 13.02391052 75.08467102 C13.03228943 76.03019836 13.04066833 76.97572571 13.04930115 77.9499054 C13.0525238 78.84902649 13.05574646 79.74814758 13.05906677 80.67451477 C13.06430359 81.50716858 13.06954041 82.33982239 13.07493591 83.19770813 C12.96141052 85.14717102 12.96141052 85.14717102 11.96141052 86.14717102 C-2.20941019 86.84409663 -15.19080415 83.70942335 -26.03858948 74.14717102 C-36.45942011 62.1738889 -39.28269331 50.83431218 -38.26612854 35.32051086 C-37.38756006 26.92886215 -33.51061591 20.3744166 -28.03858948 14.14717102 C-27.53714417 13.54131165 -27.03569885 12.93545227 -26.51905823 12.31123352 C-19.81769646 4.84353598 -10.0483677 0.04870332 0 0 Z " fill="#FC8E01" transform="translate(200.03858947753906,-0.1471710205078125)"/>
<path d="M0 0 C0.83426514 -0.00630432 1.66853027 -0.01260864 2.52807617 -0.019104 C3.43017822 -0.01505554 4.33228027 -0.01100708 5.26171875 -0.00683594 C6.64870972 -0.00970612 6.64870972 -0.00970612 8.0637207 -0.01263428 C10.02067334 -0.0139966 11.97763499 -0.0102969 13.93457031 -0.00195312 C16.93705465 0.00874572 19.93894062 -0.00184685 22.94140625 -0.01464844 C24.83984508 -0.01332685 26.73828353 -0.01076448 28.63671875 -0.00683594 C29.5388208 -0.0108844 30.44092285 -0.01493286 31.37036133 -0.019104 C32.62175903 -0.00964752 32.62175903 -0.00964752 33.8984375 0 C34.63408936 0.00159119 35.36974121 0.00318237 36.12768555 0.00482178 C37.94921875 0.25878906 37.94921875 0.25878906 39.94921875 2.25878906 C40.17626953 5.23974609 40.17626953 5.23974609 40.14453125 9.01660156 C40.13953613 10.22977051 40.13454102 11.44293945 40.12939453 12.69287109 C40.11118652 14.24087402 40.09297852 15.78887695 40.07421875 17.38378906 C40.03296875 22.29253906 39.99171875 27.20128906 39.94921875 32.25878906 C24.76921875 32.25878906 9.58921875 32.25878906 -6.05078125 32.25878906 C-6.09203125 27.35003906 -6.13328125 22.44128906 -6.17578125 17.38378906 C-6.19398926 15.83578613 -6.21219727 14.2877832 -6.23095703 12.69287109 C-6.23595215 11.47970215 -6.24094727 10.2665332 -6.24609375 9.01660156 C-6.25656738 7.77023926 -6.26704102 6.52387695 -6.27783203 5.23974609 C-5.9262452 0.6237512 -4.23795107 0.00916652 0 0 Z " fill="#D0DAFC" transform="translate(239.05078125,59.7412109375)"/>
<path d="M0 0 C0.33 0 0.66 0 1 0 C1.12677124 0.86443726 1.12677124 0.86443726 1.25610352 1.74633789 C3.4252379 16.15467456 6.72817055 29.78861145 11.24316406 43.63671875 C12.23666204 46.7389963 13.12910342 49.8613232 14 53 C15.11375 53.0928125 15.11375 53.0928125 16.25 53.1875 C19.94570593 54.27941311 21.03449378 55.72415631 23 59 C23.69416823 63.07823837 23.1781762 64.68522205 21.125 68.3125 C19 71 19 71 17 72 C14.74879258 72.08573394 12.49500697 72.10712188 10.2421875 72.09765625 C9.24761032 72.09553383 9.24761032 72.09553383 8.23294067 72.09336853 C6.11358137 72.08776754 3.99432741 72.075215 1.875 72.0625 C0.43880361 72.05748512 -0.99739444 72.05292219 -2.43359375 72.04882812 C-5.95576345 72.03779782 -9.47787145 72.02053259 -13 72 C-13.72892532 46.12875838 -11.1594556 23.55885071 0 0 Z " fill="#CFDAFB" transform="translate(121,239)"/>
<path d="M0 0 C11.42610903 4.24103989 22.6085398 9.02305891 33.8125 13.8125 C35.68024946 14.60893289 37.54808738 15.40515838 39.41601562 16.20117188 C43.94503257 18.13172771 48.47284731 20.06507676 53 22 C51.71977125 24.80969467 50.39285871 26.8539238 48.20263672 29.02441406 C47.64220673 29.58469299 47.08177673 30.14497192 46.50436401 30.722229 C45.90222076 31.31404968 45.30007751 31.90587036 44.6796875 32.515625 C44.06102814 33.13145447 43.44236877 33.74728394 42.80496216 34.3817749 C40.83296186 36.34260336 38.85411263 38.29635301 36.875 40.25 C35.53469836 41.58026799 34.19484917 42.910992 32.85546875 44.2421875 C29.57553411 47.5001015 26.28944058 50.75168533 23 54 C20.26558367 50.71100923 18.73404278 47.33501138 17.109375 43.390625 C16.84362167 42.75068604 16.57786835 42.11074707 16.30406189 41.45141602 C15.44753841 39.38637311 14.59869677 37.31827023 13.75 35.25 C12.58700804 32.436515 11.42051633 29.62448632 10.25390625 26.8125 C9.97049881 26.12786682 9.68709137 25.44323364 9.39509583 24.737854 C6.74037561 18.33869378 3.94253109 12.0092451 1.07421875 5.703125 C0 3 0 3 0 0 Z " fill="#65C9CF" transform="translate(196,241)"/>
<path d="M0 0 C2.2317743 2.78806381 3.78085289 5.45404937 5.17651367 8.73681641 C5.57670212 9.67103424 5.97689056 10.60525208 6.38920593 11.56777954 C7.02219353 13.06950211 7.02219353 13.06950211 7.66796875 14.6015625 C8.10764481 15.63437347 8.54732086 16.66718445 9.00032043 17.73129272 C9.92659651 19.91056355 10.85017517 22.09098258 11.77124023 24.27246094 C13.18628345 27.62212021 14.61102541 30.96752854 16.03710938 34.3125 C16.93547338 36.4294425 17.83327922 38.54662198 18.73046875 40.6640625 C19.37256538 42.17185776 19.37256538 42.17185776 20.02763367 43.71011353 C20.41836563 44.63802704 20.8090976 45.56594055 21.21166992 46.52197266 C21.55791916 47.34041656 21.9041684 48.15886047 22.26091003 49.00210571 C23 51 23 51 23 53 C19.65990847 52.41004067 16.69156167 51.58945297 13.56445312 50.28173828 C12.7200769 49.93112335 11.87570068 49.58050842 11.0057373 49.2192688 C10.10665649 48.84011322 9.20757568 48.46095764 8.28125 48.0703125 C7.34575317 47.67931366 6.41025635 47.28831482 5.44641113 46.88546753 C3.4719533 46.05887896 1.49846206 45.22997819 -0.47412109 44.39892578 C-3.48661549 43.13063502 -6.502795 41.8714438 -9.51953125 40.61328125 C-11.44033169 39.80783404 -13.3609121 39.00186186 -15.28125 38.1953125 C-16.18033081 37.82020538 -17.07941162 37.44509827 -18.0057373 37.05862427 C-22.19725826 35.2868613 -26.17663513 33.50057532 -30 31 C-24.33425951 24.07189276 -17.96966361 17.85795858 -11.625 11.5625 C-10.49586045 10.43838533 -9.36695222 9.31403826 -8.23828125 8.18945312 C-5.49484812 5.45694765 -2.74830015 2.72760991 0 0 Z " fill="#F95F50" transform="translate(293,308)"/>
<path d="M0 0 C9.9 0 19.8 0 30 0 C28.68 0.33 27.36 0.66 26 1 C26.02094727 1.81678223 26.04189453 2.63356445 26.06347656 3.47509766 C26.1468513 7.19160555 26.19872988 10.90791633 26.25 14.625 C26.28351563 15.91019531 26.31703125 17.19539063 26.3515625 18.51953125 C26.47477167 30.40921574 26.47477167 30.40921574 22 35 C18.78305636 36.60847182 15.47862778 36.61309149 12 36 C9.30894802 33.82425584 7.54467072 32.08934144 6 29 C5.91456105 26.89471067 5.89285275 24.78668843 5.90234375 22.6796875 C5.90556641 21.42285156 5.90878906 20.16601562 5.91210938 18.87109375 C5.92048828 17.55238281 5.92886719 16.23367187 5.9375 14.875 C5.94251511 13.53515789 5.94707799 12.195314 5.95117188 10.85546875 C5.96298914 7.57026794 5.97946383 4.28515603 6 1 C4.02 1 2.04 1 0 1 C0 0.67 0 0.34 0 0 Z " fill="#92B0F2" transform="translate(240,153)"/>
<path d="M0 0 C2.8100346 1.79363911 4.50940468 3.01880935 6 6 C6.15495763 8.24974161 6.25010928 10.50371536 6.31640625 12.7578125 C6.33718735 13.42086395 6.35796844 14.08391541 6.37937927 14.76705933 C6.44479231 16.88626694 6.50372105 19.005599 6.5625 21.125 C6.60569309 22.56121081 6.64930764 23.99740902 6.69335938 25.43359375 C6.80046499 28.95559594 6.90175575 32.47773825 7 36 C3.68751813 36.02888146 0.37506833 36.04675799 -2.9375 36.0625 C-3.88302734 36.07087891 -4.82855469 36.07925781 -5.80273438 36.08789062 C-7.15141602 36.09272461 -7.15141602 36.09272461 -8.52734375 36.09765625 C-9.77632446 36.10551147 -9.77632446 36.10551147 -11.05053711 36.11352539 C-13 36 -13 36 -14 35 C-14.26650744 30.94026457 -14.27129546 26.87681982 -14.29516602 22.80908203 C-14.31231676 20.77176649 -14.35617502 18.73610069 -14.40039062 16.69921875 C-14.40876953 15.41144531 -14.41714844 14.12367188 -14.42578125 12.796875 C-14.44036377 11.61448242 -14.45494629 10.43208984 -14.4699707 9.21386719 C-13.90758146 5.36800125 -12.69459397 3.74506862 -10 1 C-6.79826746 -0.60086627 -3.47422941 -0.49917089 0 0 Z " fill="#91B0F2" transform="translate(260,414)"/>
<path d="M0 0 C0.33 0 0.66 0 1 0 C1 9.24 1 18.48 1 28 C-3.1826455 28.11511868 -7.35975386 28.21452349 -11.54272461 28.2746582 C-12.96381291 28.29973147 -14.38477313 28.33379999 -15.80541992 28.37719727 C-17.85367462 28.43817858 -19.90021883 28.46627762 -21.94921875 28.48828125 C-23.79519653 28.52755737 -23.79519653 28.52755737 -25.6784668 28.56762695 C-29.90613361 27.84514806 -31.32647361 26.26907893 -34 23 C-35.45147903 20.09704195 -35.37239025 18.22738221 -35 15 C-33.18689858 12.07062346 -31.12704101 9.56352051 -28 8 C-25.89471067 7.91456105 -23.78668843 7.89285275 -21.6796875 7.90234375 C-20.42285156 7.90556641 -19.16601562 7.90878906 -17.87109375 7.91210938 C-16.55238281 7.92048828 -15.23367188 7.92886719 -13.875 7.9375 C-12.53515789 7.94251511 -11.195314 7.94707799 -9.85546875 7.95117188 C-6.57026794 7.96298914 -3.28515603 7.97946383 0 8 C0 5.36 0 2.72 0 0 Z " fill="#95B3F3" transform="translate(403,283)"/>
<path d="M0 0 C0.33 0 0.66 0 1 0 C1 2.64 1 5.28 1 8 C2.13429443 7.97643433 2.13429443 7.97643433 3.29150391 7.95239258 C6.73592576 7.88981953 10.18022774 7.85093795 13.625 7.8125 C15.40970703 7.77479492 15.40970703 7.77479492 17.23046875 7.73632812 C24.2672891 7.67736036 29.56271318 7.67728941 34.875 12.8125 C36.42388547 15.82422174 36.46964169 17.64541648 36 21 C32.84210526 26.57894737 32.84210526 26.57894737 30 28 C27.74879258 28.08573394 25.49500697 28.10712188 23.2421875 28.09765625 C22.24761032 28.09553383 22.24761032 28.09553383 21.23294067 28.09336853 C19.11358137 28.08776754 16.99432741 28.075215 14.875 28.0625 C13.43880361 28.05748512 12.00260556 28.05292219 10.56640625 28.04882812 C7.04419752 28.03864833 3.52221679 28.01907338 0 28 C0 18.76 0 9.52 0 0 Z " fill="#94B2F3" transform="translate(108,283)"/>
</svg>
