<?xml version="1.0" encoding="UTF-8"?>
<svg version="1.1" xmlns="http://www.w3.org/2000/svg" width="512" height="512">
<path d="M0 0 C0.825 -0.01289063 1.65 -0.02578125 2.5 -0.0390625 C6.08829709 0.91407891 7.55179268 2.87061672 10 5.625 C11.5698061 8.52088356 11.5698061 8.52088356 12.92610168 11.77090454 C13.18175595 12.37178119 13.43741021 12.97265784 13.70081156 13.59174287 C14.25657495 14.90052549 14.80705792 16.21156034 15.35281372 17.52454758 C16.87611976 21.185706 18.44190266 24.82874343 20.00215149 28.47427368 C20.3337092 29.25161716 20.66526691 30.02896063 21.00687182 30.82985997 C25.68398157 41.75932351 30.66429784 52.55341216 35.62538624 63.35613441 C39.64252175 72.12602084 43.54841447 80.91957688 47.22680664 89.83740234 C61.63956615 128.83539504 61.63956615 128.83539504 89.95589095 156.91820848 C107.22290238 163.99578083 126.7571869 164.23175152 145.15610307 164.39672673 C156.94471019 164.50381253 168.28852411 166.10174261 179.89612007 168.13310623 C184.83107463 168.97978639 189.78442038 169.69576881 194.73828125 170.421875 C196.62850269 170.70451212 198.51863995 170.98771277 200.40869141 171.27148438 C204.33709472 171.85916227 208.26620222 172.44185408 212.19580078 173.02148438 C217.14307808 173.75150221 222.08878911 174.49138153 227.03356552 175.23814392 C228.8645948 175.5128601 230.69616227 175.78401719 232.52829361 176.05128479 C235.02575521 176.41602981 237.52100148 176.7933882 240.01611328 177.17382812 C240.74169434 177.27667114 241.46727539 177.37951416 242.21484375 177.48547363 C246.6245098 178.17475197 250.1799743 179.30214878 254 181.625 C256.75017781 185.75026671 256.8988094 188.79802121 256 193.625 C254.8278656 195.42625427 254.8278656 195.42625427 253.20092773 197.18139648 C252.56226776 197.87304901 251.92360779 198.56470154 251.26559448 199.27731323 C246.63199963 204.07880326 241.94576564 208.82200693 237.22265625 213.53515625 C236.08582754 214.67266033 234.94914717 215.81031267 233.81260681 216.94810486 C231.44155079 219.32062686 229.06871727 221.69135241 226.69458008 224.06079102 C223.67101539 227.07865912 220.65196367 230.10099576 217.63424015 233.12470341 C215.29130167 235.47127732 212.9459596 237.81543735 210.59991264 240.15890312 C209.48655516 241.27159957 208.37392319 242.3850225 207.26207161 243.49922371 C203.86621582 246.90068185 200.44587389 250.27418717 197 253.625 C196.322789 254.29587646 195.645578 254.96675293 194.94784546 255.65795898 C191.2096193 259.17249192 187.38921511 261.59286091 182.84570312 263.98388672 C164.45090144 273.66482092 145.3463477 287.19756297 137.61083984 307.24694824 C130.18203743 331.75907458 139.68163933 363.7611756 144.5 388.125 C144.6626321 388.94874209 144.82526421 389.77248419 144.99282455 390.62118816 C148.38694654 407.73914619 152.09795005 424.77351112 156.13555336 441.7506516 C158.41353772 451.34749889 160.62148012 460.9322501 162.15039062 470.68164062 C162.29038231 471.50261986 162.43037399 472.32359909 162.57460785 473.16945648 C163.33468998 478.59019129 162.71866054 481.83612303 160 486.625 C155.64217326 489.53021782 152.11480011 489.42550272 147 488.625 C142.54651532 486.93748684 138.4676453 484.69031829 134.3125 482.375 C133.1168627 481.72892417 131.9200627 481.08499587 130.72216797 480.44311523 C128.29307685 479.13866889 125.86972875 477.82444427 123.45068359 476.50146484 C118.54197833 473.83213495 113.58549526 471.25885697 108.625 468.6875 C106.75242064 467.70998691 104.88002872 466.73211467 103.0078125 465.75390625 C95.55742808 461.86886671 88.09145697 458.01399534 80.62652588 454.15701294 C71.65967118 449.52359606 62.70434444 444.86868257 53.75976562 440.19238281 C48.39841132 437.39164734 43.03064542 434.60372714 37.65625 431.828125 C37.02606461 431.50247055 36.39587921 431.1768161 35.74659729 430.84129333 C32.58162379 429.20622294 29.41515819 427.57416244 26.24584961 425.94750977 C21.13036512 423.3172191 16.0286769 420.6814176 11.03515625 417.82421875 C9.9977832 417.23688965 9.9977832 417.23688965 8.93945312 416.63769531 C7.23224357 415.65973604 5.53909114 414.65733969 3.84765625 413.65234375 C0.08952321 412.29652895 -1.32119887 413.1841409 -5 414.625 C-7.06006157 415.6027651 -9.099757 416.62418951 -11.12109375 417.6796875 C-12.2915625 418.288125 -13.46203125 418.8965625 -14.66796875 419.5234375 C-15.92452076 420.18221234 -17.18103013 420.8410685 -18.4375 421.5 C-19.74718871 422.18268916 -21.05708726 422.86497591 -22.3671875 423.546875 C-25.64514231 425.25425966 -28.92052449 426.96650984 -32.19500732 428.68054199 C-34.7967834 430.04191497 -37.40031357 431.39991763 -40.00390625 432.7578125 C-42.75425474 434.19237724 -45.50440812 435.62730353 -48.25366211 437.06396484 C-56.61450075 441.43151289 -64.99366808 445.76333866 -73.37402344 450.09326172 C-82.33632867 454.72433266 -91.28741142 459.3763223 -100.22705078 464.05102539 C-105.66226404 466.89079309 -111.1049715 469.71554113 -116.5546875 472.52734375 C-117.20346863 472.86222809 -117.85224976 473.19711243 -118.52069092 473.54214478 C-121.70230744 475.18422641 -124.88468389 476.82480455 -128.06835938 478.46289062 C-129.22916016 479.06166016 -130.38996094 479.66042969 -131.5859375 480.27734375 C-132.689375 480.84646484 -133.7928125 481.41558594 -134.9296875 482.00195312 C-137.6687168 483.4498751 -140.34621842 484.96932635 -143.0234375 486.52734375 C-147.74066574 489.17040293 -151.67732394 489.77685311 -157 488.625 C-160.37704346 486.28174535 -161.69990073 484.85457835 -162.67484856 480.8599844 C-163.02873824 477.33907859 -162.72379847 474.47828836 -162.1399231 470.99024963 C-162.03531072 470.34894432 -161.93069835 469.70763902 -161.82291591 469.04690021 C-161.47202666 466.91057193 -161.10736793 464.77683407 -160.74267578 462.64282227 C-160.48745516 461.10665522 -160.23309279 459.57034538 -159.97952271 458.03390503 C-159.28972186 453.86922048 -158.58800147 449.70662272 -157.8841691 445.54428983 C-157.14887227 441.1832023 -156.42472971 436.82026386 -155.69943237 432.45750427 C-154.32353479 424.19157165 -152.9378891 415.92730484 -151.54861343 407.66361135 C-149.81724871 397.36238386 -148.097886 387.05915953 -146.37890625 376.75585938 C-145.77669381 373.14662658 -145.17439889 369.53740757 -144.57199097 365.9282074 C-144.42600712 365.05356352 -144.28002327 364.17891965 -144.12961566 363.27777141 C-143.12348887 357.25182553 -142.1139932 351.22645005 -141.10305786 345.2013092 C-140.70127717 342.80488637 -140.29955111 340.40845438 -139.89783859 338.01202011 C-139.52767359 335.80548277 -139.15661294 333.59909731 -138.78552246 331.39271545 C-138.56165041 330.05739601 -138.33782172 328.7220693 -138.11404419 327.38673401 C-137.82587924 325.67144422 -137.82587924 325.67144422 -137.53189278 323.92150211 C-137.35636816 322.83365642 -137.18084354 321.74581072 -137 320.625 C-136.76941611 319.39312675 -136.53883223 318.16125349 -136.30126095 316.89205074 C-135.636106 313.46777882 -135.636106 313.46777882 -138.06578064 310.5904541 C-139.08178814 309.54830044 -140.12027797 308.52777959 -141.17553711 307.52539062 C-141.7380014 306.96015182 -142.3004657 306.39491302 -142.87997437 305.81254578 C-144.74393535 303.94905961 -146.63476454 302.11562745 -148.52734375 300.28125 C-149.83407412 298.98691489 -151.1391095 297.69086653 -152.44252014 296.39318848 C-155.88253564 292.97804618 -159.34630745 289.58799648 -162.81518555 286.20220947 C-166.31754546 282.77428427 -169.79480977 279.32110308 -173.27539062 275.87109375 C-186.79360761 262.32617438 -186.79360761 262.32617438 -200.9365387 249.45022583 C-209.06018523 242.26448919 -216.67096927 234.45356483 -224.38807678 226.83717632 C-227.5099639 223.75642692 -230.64095787 220.68634315 -233.79541016 217.63891602 C-236.86783276 214.67031425 -239.91490276 211.67775411 -242.94586182 208.66684914 C-244.09829857 207.53029827 -245.25932963 206.40239038 -246.42913818 205.28372765 C-256.66183013 195.47805405 -256.66183013 195.47805405 -257.01953125 189.16723633 C-256.82713431 185.85403881 -256.04799395 184.683098 -253.90501881 182.08896732 C-250.40898748 179.12371735 -248.13580098 178.65428213 -243.63371277 177.95901489 C-242.93059344 177.84472991 -242.2274741 177.73044493 -241.50304812 177.61269677 C-239.33779239 177.26490244 -237.1696285 176.94420694 -235 176.625 C-233.13160178 176.32512491 -233.13160178 176.32512491 -231.22545815 176.01919174 C-227.44046839 175.41560687 -223.65168427 174.84471511 -219.8605957 174.28076172 C-218.42790485 174.0654488 -216.99525326 173.84987455 -215.56263733 173.63406372 C-212.51618979 173.17570302 -209.46948088 172.71913879 -206.42254066 172.26406479 C-201.60133402 171.54398642 -196.78075893 170.81973911 -191.96025085 170.09500122 C-184.342015 168.95013275 -176.72337172 167.80800197 -169.10454577 166.66706765 C-155.43536703 164.62002102 -141.76679776 162.5689129 -128.09852856 160.5158025 C-123.30817417 159.79636405 -118.51760915 159.07834947 -113.72686446 158.36151481 C-110.75361883 157.91642293 -107.78051989 157.47035704 -104.80745506 157.0240593 C-103.43087008 156.81763639 -102.05422177 156.61163527 -100.67750549 156.40608978 C-98.79694663 156.12526952 -96.91663267 155.84281068 -95.03633118 155.56027222 C-93.98506703 155.4028549 -92.93380289 155.24543758 -91.85068226 155.08325005 C-90.90995711 154.93202753 -89.96923197 154.78080502 -89 154.625 C-88.12015033 154.55838102 -87.24030066 154.49176205 -86.33378887 154.42312431 C-82.82295217 153.22246552 -82.23891778 151.19618537 -80.62304688 147.91973877 C-80.32011971 147.31804642 -80.01719254 146.71635408 -79.70508575 146.09642863 C-78.69232826 144.07403463 -77.70588492 142.03989135 -76.71875 140.00488281 C-75.99864711 138.55395472 -75.27692732 137.10382815 -74.55371094 135.65444946 C-72.9984849 132.52908907 -71.45478446 129.39839051 -69.91967773 126.26309967 C-67.49146344 121.30416726 -65.03763994 116.35819592 -62.58007812 111.41375732 C-58.25188433 102.69740213 -53.94590755 93.9702136 -49.64453125 85.24060059 C-43.17349107 72.10840204 -36.68367145 58.98549897 -30.17552948 45.8716495 C-27.73723314 40.9564783 -25.30998454 36.03605321 -22.89143372 31.11113787 C-21.38304897 28.04424555 -19.86645461 24.9814657 -18.34777832 21.91965866 C-17.64643522 20.50125154 -16.94857627 19.08111536 -16.2545166 17.6591301 C-15.3046013 15.71407256 -14.34234729 13.77560638 -13.37695312 11.8381958 C-12.84235474 10.75270069 -12.30775635 9.66720558 -11.75695801 8.54881668 C-8.8145508 3.65225157 -5.99378624 -0.09365291 0 0 Z " fill="#FCCA50" transform="translate(256,11.375)"/>
<path d="M0 0 C0.825 -0.01289063 1.65 -0.02578125 2.5 -0.0390625 C6.08829709 0.91407891 7.55179268 2.87061672 10 5.625 C11.5698061 8.52088356 11.5698061 8.52088356 12.92610168 11.77090454 C13.18175595 12.37178119 13.43741021 12.97265784 13.70081156 13.59174287 C14.25657495 14.90052549 14.80705792 16.21156034 15.35281372 17.52454758 C16.87611976 21.185706 18.44190266 24.82874343 20.00215149 28.47427368 C20.3337092 29.25161716 20.66526691 30.02896063 21.00687182 30.82985997 C25.68398157 41.75932351 30.66429784 52.55341216 35.62538624 63.35613441 C39.64252175 72.12602084 43.54841447 80.91957688 47.22680664 89.83740234 C61.63956615 128.83539504 61.63956615 128.83539504 89.95589095 156.91820848 C107.22290238 163.99578083 126.7571869 164.23175152 145.15610307 164.39672673 C156.94471019 164.50381253 168.28852411 166.10174261 179.89612007 168.13310623 C184.83107463 168.97978639 189.78442038 169.69576881 194.73828125 170.421875 C196.62850269 170.70451212 198.51863995 170.98771277 200.40869141 171.27148438 C204.33709472 171.85916227 208.26620222 172.44185408 212.19580078 173.02148438 C217.14307808 173.75150221 222.08878911 174.49138153 227.03356552 175.23814392 C228.8645948 175.5128601 230.69616227 175.78401719 232.52829361 176.05128479 C235.02575521 176.41602981 237.52100148 176.7933882 240.01611328 177.17382812 C240.74169434 177.27667114 241.46727539 177.37951416 242.21484375 177.48547363 C246.6245098 178.17475197 250.1799743 179.30214878 254 181.625 C256.75017781 185.75026671 256.8988094 188.79802121 256 193.625 C254.8278656 195.42625427 254.8278656 195.42625427 253.20092773 197.18139648 C252.56226776 197.87304901 251.92360779 198.56470154 251.26559448 199.27731323 C246.63199963 204.07880326 241.94576564 208.82200693 237.22265625 213.53515625 C236.08582754 214.67266033 234.94914717 215.81031267 233.81260681 216.94810486 C231.44155079 219.32062686 229.06871727 221.69135241 226.69458008 224.06079102 C223.67101539 227.07865912 220.65196367 230.10099576 217.63424015 233.12470341 C215.29130167 235.47127732 212.9459596 237.81543735 210.59991264 240.15890312 C209.48655516 241.27159957 208.37392319 242.3850225 207.26207161 243.49922371 C203.86621582 246.90068185 200.44587389 250.27418717 197 253.625 C196.322789 254.29587646 195.645578 254.96675293 194.94784546 255.65795898 C191.2096193 259.17249192 187.38921511 261.59286091 182.84570312 263.98388672 C164.45090144 273.66482092 145.3463477 287.19756297 137.61083984 307.24694824 C130.18203743 331.75907458 139.68163933 363.7611756 144.5 388.125 C144.6626321 388.94874209 144.82526421 389.77248419 144.99282455 390.62118816 C148.38694654 407.73914619 152.09795005 424.77351112 156.13555336 441.7506516 C158.41353772 451.34749889 160.62148012 460.9322501 162.15039062 470.68164062 C162.29038231 471.50261986 162.43037399 472.32359909 162.57460785 473.16945648 C163.33468998 478.59019129 162.71866054 481.83612303 160 486.625 C155.64217326 489.53021782 152.11480011 489.42550272 147 488.625 C142.54651532 486.93748684 138.4676453 484.69031829 134.3125 482.375 C133.1168627 481.72892417 131.9200627 481.08499587 130.72216797 480.44311523 C128.29307685 479.13866889 125.86972875 477.82444427 123.45068359 476.50146484 C118.54197833 473.83213495 113.58549526 471.25885697 108.625 468.6875 C106.75242064 467.70998691 104.88002872 466.73211467 103.0078125 465.75390625 C95.55742808 461.86886671 88.09145697 458.01399534 80.62652588 454.15701294 C71.65967118 449.52359606 62.70434444 444.86868257 53.75976562 440.19238281 C48.39841132 437.39164734 43.03064542 434.60372714 37.65625 431.828125 C37.02606461 431.50247055 36.39587921 431.1768161 35.74659729 430.84129333 C32.58162379 429.20622294 29.41515819 427.57416244 26.24584961 425.94750977 C21.13036512 423.3172191 16.0286769 420.6814176 11.03515625 417.82421875 C9.9977832 417.23688965 9.9977832 417.23688965 8.93945312 416.63769531 C7.23224357 415.65973604 5.53909114 414.65733969 3.84765625 413.65234375 C0.08952321 412.29652895 -1.32119887 413.1841409 -5 414.625 C-7.06006157 415.6027651 -9.099757 416.62418951 -11.12109375 417.6796875 C-12.2915625 418.288125 -13.46203125 418.8965625 -14.66796875 419.5234375 C-15.92452076 420.18221234 -17.18103013 420.8410685 -18.4375 421.5 C-19.74718871 422.18268916 -21.05708726 422.86497591 -22.3671875 423.546875 C-25.64514231 425.25425966 -28.92052449 426.96650984 -32.19500732 428.68054199 C-34.7967834 430.04191497 -37.40031357 431.39991763 -40.00390625 432.7578125 C-42.75425474 434.19237724 -45.50440812 435.62730353 -48.25366211 437.06396484 C-56.61450075 441.43151289 -64.99366808 445.76333866 -73.37402344 450.09326172 C-82.33632867 454.72433266 -91.28741142 459.3763223 -100.22705078 464.05102539 C-105.66226404 466.89079309 -111.1049715 469.71554113 -116.5546875 472.52734375 C-117.20346863 472.86222809 -117.85224976 473.19711243 -118.52069092 473.54214478 C-121.70230744 475.18422641 -124.88468389 476.82480455 -128.06835938 478.46289062 C-129.22916016 479.06166016 -130.38996094 479.66042969 -131.5859375 480.27734375 C-132.689375 480.84646484 -133.7928125 481.41558594 -134.9296875 482.00195312 C-137.6687168 483.4498751 -140.34621842 484.96932635 -143.0234375 486.52734375 C-147.74066574 489.17040293 -151.67732394 489.77685311 -157 488.625 C-160.37704346 486.28174535 -161.69990073 484.85457835 -162.67484856 480.8599844 C-163.02873824 477.33907859 -162.72379847 474.47828836 -162.1399231 470.99024963 C-162.03531072 470.34894432 -161.93069835 469.70763902 -161.82291591 469.04690021 C-161.47202666 466.91057193 -161.10736793 464.77683407 -160.74267578 462.64282227 C-160.48745516 461.10665522 -160.23309279 459.57034538 -159.97952271 458.03390503 C-159.28972186 453.86922048 -158.58800147 449.70662272 -157.8841691 445.54428983 C-157.14887227 441.1832023 -156.42472971 436.82026386 -155.69943237 432.45750427 C-154.32353479 424.19157165 -152.9378891 415.92730484 -151.54861343 407.66361135 C-149.81724871 397.36238386 -148.097886 387.05915953 -146.37890625 376.75585938 C-145.77669381 373.14662658 -145.17439889 369.53740757 -144.57199097 365.9282074 C-144.42600712 365.05356352 -144.28002327 364.17891965 -144.12961566 363.27777141 C-143.12348887 357.25182553 -142.1139932 351.22645005 -141.10305786 345.2013092 C-140.70127717 342.80488637 -140.29955111 340.40845438 -139.89783859 338.01202011 C-139.52767359 335.80548277 -139.15661294 333.59909731 -138.78552246 331.39271545 C-138.56165041 330.05739601 -138.33782172 328.7220693 -138.11404419 327.38673401 C-137.82587924 325.67144422 -137.82587924 325.67144422 -137.53189278 323.92150211 C-137.35636816 322.83365642 -137.18084354 321.74581072 -137 320.625 C-136.76941611 319.39312675 -136.53883223 318.16125349 -136.30126095 316.89205074 C-135.636106 313.46777882 -135.636106 313.46777882 -138.06578064 310.5904541 C-139.08178814 309.54830044 -140.12027797 308.52777959 -141.17553711 307.52539062 C-141.7380014 306.96015182 -142.3004657 306.39491302 -142.87997437 305.81254578 C-144.74393535 303.94905961 -146.63476454 302.11562745 -148.52734375 300.28125 C-149.83407412 298.98691489 -151.1391095 297.69086653 -152.44252014 296.39318848 C-155.88253564 292.97804618 -159.34630745 289.58799648 -162.81518555 286.20220947 C-166.31754546 282.77428427 -169.79480977 279.32110308 -173.27539062 275.87109375 C-186.79360761 262.32617438 -186.79360761 262.32617438 -200.9365387 249.45022583 C-209.06018523 242.26448919 -216.67096927 234.45356483 -224.38807678 226.83717632 C-227.5099639 223.75642692 -230.64095787 220.68634315 -233.79541016 217.63891602 C-236.86783276 214.67031425 -239.91490276 211.67775411 -242.94586182 208.66684914 C-244.09829857 207.53029827 -245.25932963 206.40239038 -246.42913818 205.28372765 C-256.66183013 195.47805405 -256.66183013 195.47805405 -257.01953125 189.16723633 C-256.82713431 185.85403881 -256.04799395 184.683098 -253.90501881 182.08896732 C-250.40898748 179.12371735 -248.13580098 178.65428213 -243.63371277 177.95901489 C-242.93059344 177.84472991 -242.2274741 177.73044493 -241.50304812 177.61269677 C-239.33779239 177.26490244 -237.1696285 176.94420694 -235 176.625 C-233.13160178 176.32512491 -233.13160178 176.32512491 -231.22545815 176.01919174 C-227.44046839 175.41560687 -223.65168427 174.84471511 -219.8605957 174.28076172 C-218.42790485 174.0654488 -216.99525326 173.84987455 -215.56263733 173.63406372 C-212.51618979 173.17570302 -209.46948088 172.71913879 -206.42254066 172.26406479 C-201.60133402 171.54398642 -196.78075893 170.81973911 -191.96025085 170.09500122 C-184.342015 168.95013275 -176.72337172 167.80800197 -169.10454577 166.66706765 C-155.43536703 164.62002102 -141.76679776 162.5689129 -128.09852856 160.5158025 C-123.30817417 159.79636405 -118.51760915 159.07834947 -113.72686446 158.36151481 C-110.75361883 157.91642293 -107.78051989 157.47035704 -104.80745506 157.0240593 C-103.43087008 156.81763639 -102.05422177 156.61163527 -100.67750549 156.40608978 C-98.79694663 156.12526952 -96.91663267 155.84281068 -95.03633118 155.56027222 C-93.98506703 155.4028549 -92.93380289 155.24543758 -91.85068226 155.08325005 C-90.90995711 154.93202753 -89.96923197 154.78080502 -89 154.625 C-88.12015033 154.55838102 -87.24030066 154.49176205 -86.33378887 154.42312431 C-82.82295217 153.22246552 -82.23891778 151.19618537 -80.62304688 147.91973877 C-80.32011971 147.31804642 -80.01719254 146.71635408 -79.70508575 146.09642863 C-78.69232826 144.07403463 -77.70588492 142.03989135 -76.71875 140.00488281 C-75.99864711 138.55395472 -75.27692732 137.10382815 -74.55371094 135.65444946 C-72.9984849 132.52908907 -71.45478446 129.39839051 -69.91967773 126.26309967 C-67.49146344 121.30416726 -65.03763994 116.35819592 -62.58007812 111.41375732 C-58.25188433 102.69740213 -53.94590755 93.9702136 -49.64453125 85.24060059 C-43.17349107 72.10840204 -36.68367145 58.98549897 -30.17552948 45.8716495 C-27.73723314 40.9564783 -25.30998454 36.03605321 -22.89143372 31.11113787 C-21.38304897 28.04424555 -19.86645461 24.9814657 -18.34777832 21.91965866 C-17.64643522 20.50125154 -16.94857627 19.08111536 -16.2545166 17.6591301 C-15.3046013 15.71407256 -14.34234729 13.77560638 -13.37695312 11.8381958 C-12.84235474 10.75270069 -12.30775635 9.66720558 -11.75695801 8.54881668 C-8.8145508 3.65225157 -5.99378624 -0.09365291 0 0 Z M-1 33.625 C-1.34676662 34.32314221 -1.69353325 35.02128443 -2.05080795 35.74058247 C-10.48607461 52.72150024 -18.93238546 69.6968816 -27.39104843 86.66615772 C-31.48131426 94.87247933 -35.5678104 103.08063784 -39.64550781 111.29321289 C-43.1993157 118.45063872 -46.76012256 125.60453035 -50.32940507 132.75425261 C-52.21935852 136.54068216 -54.1057422 140.32879727 -55.98375702 144.12116432 C-57.7512933 147.69015766 -59.52814602 151.25435248 -61.31227112 154.81508064 C-61.9655819 156.12307847 -62.61546308 157.43279575 -63.26165009 158.74432755 C-64.14431644 160.53453235 -65.04054376 162.31803185 -65.93743896 164.10115051 C-66.43520718 165.1012959 -66.93297539 166.10144129 -67.44582748 167.13189411 C-69.42265393 170.30299487 -71.39794086 172.15883663 -75.0078125 173.20922852 C-75.70648438 173.30647217 -76.40515625 173.40371582 -77.125 173.50390625 C-77.90738037 173.61927734 -78.68976074 173.73464844 -79.49584961 173.85351562 C-80.32221924 173.96373047 -81.14858887 174.07394531 -82 174.1875 C-83.73052576 174.43840917 -85.46099478 174.68971004 -87.19140625 174.94140625 C-88.02559082 175.05887207 -88.85977539 175.17633789 -89.71923828 175.29736328 C-92.46748426 175.6921552 -95.20203679 176.15012045 -97.9375 176.625 C-105.7332613 177.93694314 -113.55620917 179.07243665 -121.37548828 180.23388672 C-123.91616082 180.61250601 -126.45623068 180.99489778 -128.99609375 181.37890625 C-130.64321828 181.62767627 -132.2903537 181.87637414 -133.9375 182.125 C-134.76145264 182.24939453 -135.58540527 182.37378906 -136.43432617 182.50195312 C-140.65913363 183.13618771 -144.88550215 183.75313804 -149.1171875 184.33984375 C-157.96650647 185.56868362 -166.77039601 186.9102402 -175.5625 188.5 C-191.62599837 191.39531489 -207.82666633 193.4490345 -224 195.625 C-222.5800745 198.85548748 -220.86380613 201.00742488 -218.3671875 203.48828125 C-217.64273438 204.21080078 -216.91828125 204.93332031 -216.171875 205.67773438 C-215.41390625 206.42345703 -214.6559375 207.16917969 -213.875 207.9375 C-213.14023438 208.67162109 -212.40546875 209.40574219 -211.6484375 210.16210938 C-208.37273137 213.4118636 -205.07427555 216.56584544 -201.56103516 219.55737305 C-195.93308773 224.45847537 -190.72834941 229.78565913 -185.47212219 235.07771301 C-183.55623531 237.00651763 -181.63710727 238.93204603 -179.71716309 240.85681152 C-174.95222592 245.63502439 -170.19278345 250.41869816 -165.4331665 255.20220947 C-161.39984525 259.25535284 -157.36441926 263.30637892 -153.32624817 267.35469055 C-151.44763083 269.23972776 -149.57208252 271.12778098 -147.69665527 273.01599121 C-142.47856959 278.25625249 -137.28317798 283.45567141 -131.62582397 288.22869873 C-128.64391411 290.78964296 -125.89306287 293.58725896 -123.125 296.375 C-122.5578125 296.93832031 -121.990625 297.50164062 -121.40625 298.08203125 C-115.09308145 304.41015991 -115.09308145 304.41015991 -114.74304199 308.97865295 C-114.90623614 315.04805158 -116.07457652 320.99793072 -117.11132812 326.96655273 C-117.33851285 328.30276701 -117.56509446 329.63908395 -117.79112244 330.97549438 C-118.27684849 333.8401796 -118.76660261 336.70413567 -119.25950623 339.56759453 C-120.03980115 344.10192936 -120.80979245 348.63797737 -121.57824707 353.17433167 C-123.48826691 364.43969281 -125.41280978 375.70256772 -127.33807373 386.96533203 C-128.8351567 395.7246117 -130.32865159 404.48447508 -131.81224203 413.24605137 C-132.57512593 417.74894221 -133.34502321 422.25055833 -134.12039948 426.75131404 C-134.60253311 429.55888315 -135.07846599 432.36747827 -135.5527668 435.17638016 C-135.87695609 437.08507497 -136.20853546 438.99251006 -136.54039001 440.89988708 C-137.60431328 447.24162604 -138.23196603 453.19456803 -138 459.625 C-132.93447545 458.12674626 -128.55700891 455.93539736 -123.9375 453.4375 C-122.24931896 452.53659569 -120.56047135 451.63693976 -118.87109375 450.73828125 C-117.47866455 449.99698975 -117.47866455 449.99698975 -116.05810547 449.24072266 C-110.85517087 446.49179873 -105.62347313 443.7985432 -100.39352417 441.10150146 C-91.86942774 436.70557519 -83.35065647 432.30134259 -74.875 427.8125 C-65.87266286 423.04860932 -56.81024998 418.40241556 -47.75 413.75 C-37.32303839 408.39473489 -26.89767083 403.03699951 -16.5 397.625 C-15.56381836 397.13918457 -14.62763672 396.65336914 -13.66308594 396.15283203 C-12.81520508 395.71052246 -11.96732422 395.26821289 -11.09375 394.8125 C-10.36865234 394.43480469 -9.64355469 394.05710937 -8.89648438 393.66796875 C-7.21265303 392.74194822 -5.59892315 391.69094877 -4 390.625 C3.31227576 389.39325301 8.9273547 393.18218533 15.25 396.5 C16.41313721 397.09643311 17.57627441 397.69286621 18.7746582 398.30737305 C22.19133734 400.06458288 25.59729792 401.84090297 29 403.625 C29.84675293 404.0669873 30.69350586 404.50897461 31.56591797 404.96435547 C35.2841712 406.90691723 38.99375077 408.86521073 42.69921875 410.83203125 C49.60373507 414.48559721 56.55523739 418.04876629 63.5 421.625 C71.80899009 425.90491539 80.11486304 430.188757 88.375 434.5625 C97.27836303 439.27440183 106.23253869 443.88718846 115.1875 448.5 C115.91177185 448.87325409 116.6360437 449.24650818 117.38226318 449.631073 C124.56915261 453.33395133 131.75550387 457.03563875 139 460.625 C137.50488999 446.62852254 135.08416583 432.78629916 132.71422958 418.91717529 C131.97879181 414.61300136 131.24943376 410.30780995 130.52102661 406.00244141 C128.45110322 393.77334549 126.37292141 381.54565948 124.28955078 369.31884766 C123.1339904 362.53681373 121.9831815 355.75399008 120.83738434 348.97029972 C120.115218 344.69646637 119.38719042 340.42368767 118.65466666 336.151618 C118.09375901 332.87019713 117.54145468 329.5873385 116.98779297 326.3046875 C116.78521881 325.13363968 116.58264465 323.96259186 116.37393188 322.75605774 C113.87385724 307.7994793 113.87385724 307.7994793 116.07421875 303.55078125 C116.60660156 303.01839844 117.13898438 302.48601562 117.6875 301.9375 C118.32171875 301.28523438 118.9559375 300.63296875 119.609375 299.9609375 C120.39828125 299.19007813 121.1871875 298.41921875 122 297.625 C123.02793506 296.57737529 124.05383016 295.52774664 125.078125 294.4765625 C129.38726729 290.08693426 133.66995466 285.72681472 138.37329102 281.75610352 C144.0208672 276.83064085 149.24990461 271.48623507 154.52787781 266.17228699 C156.44376469 264.24348237 158.36289273 262.31795397 160.28283691 260.39318848 C164.35805972 256.30661159 168.42932718 252.21610853 172.5 248.125 C177.2220532 243.37924102 181.94577069 238.63516336 186.67375183 233.89530945 C188.55236917 232.01027224 190.42791748 230.12221902 192.30334473 228.23400879 C198.03502685 222.47793976 203.80910311 216.89164788 210 211.625 C212.55399067 209.2401572 215.0279241 206.78192346 217.5 204.3125 C218.13164062 203.69310547 218.76328125 203.07371094 219.4140625 202.43554688 C220.00960938 201.84193359 220.60515625 201.24832031 221.21875 200.63671875 C221.75435547 200.10522217 222.28996094 199.57372559 222.84179688 199.02612305 C224.21237595 197.67105569 224.21237595 197.67105569 224 195.625 C223.030625 195.51542969 222.06125 195.40585938 221.0625 195.29296875 C219.70829961 195.13309787 218.35413491 194.97292456 217 194.8125 C215.0509375 194.58626953 215.0509375 194.58626953 213.0625 194.35546875 C208.8765506 193.80331537 204.75373783 193.01558037 200.609375 192.2109375 C191.53629579 190.46127315 182.41104581 189.24803611 173.25 188.0625 C170.0673509 187.64721801 166.88506508 187.22927373 163.703125 186.80859375 C162.94270401 186.70808212 162.18228302 186.6075705 161.39881897 186.50401306 C156.11882349 185.79707394 150.86573945 184.97913432 145.61572266 184.07397461 C141.60678465 183.38586214 137.58572456 182.78535386 133.5625 182.1875 C132.30276367 181.99909546 132.30276367 181.99909546 131.01757812 181.80688477 C124.6823382 180.86374995 118.34187116 179.95977336 112 179.0625 C105.69027713 178.16788041 99.3883615 177.2615137 93.11328125 176.14453125 C90.54951064 175.71670002 87.99402436 175.35236718 85.41796875 175.01171875 C84.60674561 174.89634766 83.79552246 174.78097656 82.9597168 174.66210938 C81.3554443 174.43408772 79.74874731 174.22235279 78.13989258 174.02929688 C77.40279053 173.92037109 76.66568848 173.81144531 75.90625 173.69921875 C75.24947266 173.61244873 74.59269531 173.52567871 73.91601562 173.4362793 C69.34087113 171.49907171 67.08781992 166.17331552 64.97540283 161.93656921 C64.40615585 160.80219925 63.83690887 159.66782928 63.25041199 158.49908447 C62.63199855 157.25164245 62.01370101 156.00414297 61.39550781 154.7565918 C60.73534345 153.43541618 60.07464943 152.11450512 59.41346741 150.7938385 C57.62532016 147.21840296 55.84458474 143.63932218 54.06517506 140.05953193 C52.20235648 136.31511154 50.33271815 132.57409956 48.46380615 128.8327179 C44.92814851 121.75208703 41.39861872 114.66842011 37.87128997 107.58363706 C33.8542553 99.5160087 29.8303864 91.45179611 25.80594492 83.38786066 C17.52969607 66.80402492 9.26202284 50.2159273 1 33.625 C0.34 33.625 -0.32 33.625 -1 33.625 Z " fill="#1C2E71" transform="translate(256,11.375)"/>
<path d="M0 0 C0.03440186 0.62116699 0.06880371 1.24233398 0.10424805 1.88232422 C1.40840796 24.01462557 4.28465581 46.1019451 12 67 C12.40726318 68.12269287 12.40726318 68.12269287 12.82275391 69.26806641 C19.38501675 87.135829 27.70863276 104.61060758 39 120 C39.57766113 120.78745605 39.57766113 120.78745605 40.16699219 121.59082031 C45.11948591 128.2949494 50.32511036 134.6622037 55.98046875 140.79296875 C57.73904907 142.71482152 59.40819775 144.67647489 61.0625 146.6875 C64.36081212 150.55046881 68.12713937 153.72887309 72 157 C72.91394531 157.81339844 73.82789063 158.62679687 74.76953125 159.46484375 C103.36972628 184.72173962 139.55771094 201.22435564 177 208 C177.83490967 208.16628906 178.66981934 208.33257812 179.5300293 208.50390625 C190.39758803 210.45842036 201.30110047 210.45063392 212.3125 210.625 C214.32488509 210.66326629 216.33725532 210.70232273 218.34960938 210.7421875 C223.23294941 210.83722998 228.11636565 210.92159668 233 211 C235.16916957 217.76079685 236.24750369 224.67596324 237.41796875 231.66796875 C237.64159171 232.99361608 237.86533333 234.3192434 238.08918762 235.64485168 C238.5550898 238.41046616 239.01768326 241.17661107 239.47827148 243.94311523 C240.06853754 247.4852219 240.66998265 251.02533131 241.27424145 254.56507397 C241.73874295 257.29650172 242.1958727 260.02912547 242.65093422 262.76214027 C242.97565782 264.70173276 243.30774357 266.64008805 243.63993835 268.57841492 C243.83376602 269.75676407 244.02759369 270.93511322 244.22729492 272.14916992 C244.48805061 273.70301643 244.48805061 273.70301643 244.7540741 275.28825378 C244.98789896 277.86656573 244.81615792 279.56724387 244 282 C243.45512939 281.71503662 242.91025879 281.43007324 242.34887695 281.13647461 C230.41350776 274.89660583 218.46536767 268.68210333 206.5 262.5 C197.82417881 258.01743799 189.15463379 253.52338648 180.5 249 C170.71193488 243.88484631 160.90533028 238.80591431 151.09399414 233.7355957 C149.8712514 233.10368828 148.64851378 232.47177094 147.42578125 231.83984375 C146.818517 231.52600235 146.21125275 231.21216095 145.58558655 230.8888092 C141.15288328 228.59736638 136.7223553 226.30175319 132.29296875 224.00390625 C131.67046234 223.68097595 131.04795593 223.35804565 130.40658569 223.02532959 C127.43000055 221.48104534 124.45365932 219.93629341 121.47753906 218.39111328 C120.42147461 217.84310059 119.36541016 217.29508789 118.27734375 216.73046875 C117.35171631 216.24989014 116.42608887 215.76931152 115.47241211 215.27416992 C114.65651611 214.85369385 113.84062012 214.43321777 113 214 C112.29786377 213.62157959 111.59572754 213.24315918 110.87231445 212.85327148 C107.76948732 211.43921739 105.37083238 211.65732202 102 212 C99.08904373 213.09794001 96.45039639 214.5887693 93.75 216.125 C92.05810616 217.05096893 90.36534636 217.9753568 88.671875 218.8984375 C87.76115234 219.39956055 86.85042969 219.90068359 85.91210938 220.41699219 C80.65104752 223.2768786 75.32160195 226.00494799 70 228.75 C67.68212995 229.95020857 65.36442358 231.15073331 63.046875 232.3515625 C61.88349609 232.95387695 60.72011719 233.55619141 59.52148438 234.17675781 C53.76351069 237.15793831 48.00654319 240.14105832 42.25 243.125 C41.12513184 243.70805908 40.00026367 244.29111816 38.84130859 244.8918457 C30.84597317 249.03802639 22.85959445 253.20110784 14.87792969 257.37353516 C9.381759 260.24397004 3.8778535 263.09893265 -1.6328125 265.94140625 C-2.28583344 266.27841049 -2.93885437 266.61541473 -3.61166382 266.96263123 C-6.82132153 268.61889548 -10.0317794 270.27357281 -13.24365234 271.92553711 C-20.30115576 275.55344389 -20.30115576 275.55344389 -27.21875 279.4375 C-30 281 -30 281 -32 281 C-32.27811809 273.29016644 -31.20848756 266.11486418 -29.88867188 258.52905273 C-29.66141895 257.19107989 -29.43483963 255.85299248 -29.20887756 254.51480103 C-28.72365623 251.64949555 -28.23387946 248.78502095 -27.74049377 245.92111015 C-26.95956274 241.38707585 -26.18986739 236.85117723 -25.42175293 232.31495667 C-23.92852463 223.50533276 -22.42477581 214.69752237 -20.91921234 205.88999939 C-19.00234081 194.67581077 -17.08791425 183.4612245 -15.18775797 172.2441898 C-14.42438535 167.74027176 -13.65454543 163.23752292 -12.87960052 158.73558223 C-12.39802173 155.93015559 -11.92191546 153.12381972 -11.4472332 150.31721878 C-11.12249664 148.40724172 -10.79116993 146.49838874 -10.45960999 144.58958435 C-8.20619104 134.24742428 -8.20619104 134.24742428 -10.546875 124.453125 C-11.27390625 123.72609375 -12.0009375 122.9990625 -12.75 122.25 C-13.56855469 121.41339844 -14.38710937 120.57679688 -15.23046875 119.71484375 C-16.14441406 118.81894531 -17.05835938 117.92304688 -18 117 C-18.99825238 115.98258223 -19.9942871 114.96298462 -20.98828125 113.94140625 C-24.9908719 109.8579041 -28.98522804 105.84236237 -33.35522461 102.14916992 C-39.00794154 97.2165602 -44.24384817 91.86733279 -49.52787781 86.54728699 C-51.44376469 84.61848237 -53.36289273 82.69295397 -55.28283691 80.76818848 C-60.04777408 75.98997561 -64.80721655 71.20630184 -69.5668335 66.42279053 C-73.60015475 62.36964716 -77.63558074 58.31862108 -81.67375183 54.27030945 C-83.55236917 52.38527224 -85.42791748 50.49721902 -87.30334473 48.60900879 C-92.51955319 43.37060731 -97.71336995 38.1726166 -103.36730957 33.3997345 C-106.38691682 30.81097158 -109.18730064 27.99692116 -112 25.1875 C-112.58394531 24.61580078 -113.16789062 24.04410156 -113.76953125 23.45507812 C-115.22015204 22.00955319 -116.61552317 20.50899533 -118 19 C-118 18.34 -118 17.68 -118 17 C-117.0298999 16.86948242 -116.0597998 16.73896484 -115.06030273 16.60449219 C-91.21696899 13.40277876 -91.21696899 13.40277876 -67.48901367 9.45458984 C-58.18981675 7.7850478 -48.83171222 6.58323504 -39.46142578 5.39428711 C-32.25666259 4.47299532 -25.13562628 3.35073484 -18 2 C-15.71036025 1.61281666 -13.41900725 1.23540513 -11.125 0.875 C-10.07570313 0.70742187 -9.02640625 0.53984375 -7.9453125 0.3671875 C-5.25210069 0.031429 -2.70843855 -0.02683884 0 0 Z " fill="#FB8E01" transform="translate(150,190)"/>
</svg>
