<?xml version="1.0" encoding="UTF-8"?>
<svg version="1.1" xmlns="http://www.w3.org/2000/svg" width="512" height="512">
<path d="M0 0 C1.63520901 1.53083396 3.25973906 3.07313235 4.875 4.625 C5.83019531 5.51703125 6.78539062 6.4090625 7.76953125 7.328125 C21.15092643 20.04833708 32.09592081 35.87567012 39.875 52.625 C39.875 53.285 39.875 53.945 39.875 54.625 C40.535 54.625 41.195 54.625 41.875 54.625 C42.1328125 53.7690625 42.390625 52.913125 42.65625 52.03125 C48.54961251 35.56005733 60.89364693 21.0469686 72.875 8.625 C73.71417969 7.71105469 74.55335938 6.79710937 75.41796875 5.85546875 C97.29435922 -17.27856595 128.76092781 -30.52903374 160.4453125 -31.625 C197.74918579 -32.31813003 230.59602457 -20.40671535 257.6315918 5.29492188 C281.4642162 28.56405796 296.58395048 64.25685846 297.06524658 97.58409119 C297.06949646 98.27692703 297.07374634 98.96976288 297.078125 99.68359375 C297.08382507 100.43101334 297.08952515 101.17843292 297.09539795 101.94850159 C297.1047838 103.52416601 297.11135616 105.0998495 297.11523438 106.67553711 C297.12484904 109.02560082 297.15589534 111.37475341 297.1875 113.72460938 C297.2869271 127.80047378 295.33485828 141.21769193 291.125 154.6875 C290.86895996 155.51910645 290.61291992 156.35071289 290.34912109 157.20751953 C280.50332814 188.25233143 260.6351004 215.00116849 238.6484375 238.60546875 C236.57781288 240.8340128 234.58227715 243.11651882 232.59765625 245.421875 C228.57169036 250.04089327 224.27966707 254.36731859 219.9375 258.6875 C219.17759766 259.45126953 218.41769531 260.21503906 217.63476562 261.00195312 C213.4745753 265.15503809 209.22950659 269.13908008 204.77514648 272.97436523 C201.73643573 275.61405731 198.81090751 278.37217157 195.875 281.125 C190.94983793 285.71701226 185.99153757 290.24598136 180.875 294.625 C179.82930999 295.5246035 178.78374931 296.42435733 177.73828125 297.32421875 C167.22279549 306.36526814 156.6826426 315.37460849 145.9296875 324.1328125 C142.19346264 327.18103688 138.4712679 330.24604748 134.75 333.3125 C134.03021973 333.90546875 133.31043945 334.4984375 132.56884766 335.109375 C130.33743712 336.9477614 128.10619303 338.78634962 125.875 340.625 C115.71804831 348.99499885 105.55274065 357.35405034 95.359375 365.6796875 C92.52953372 367.99270148 89.70143455 370.30782541 86.875 372.625 C86.23755859 373.14755371 85.60011719 373.67010742 84.94335938 374.20849609 C74.70245332 382.60455748 74.70245332 382.60455748 64.56103516 391.12011719 C62.97839841 392.46523943 61.38992001 393.80319618 59.80078125 395.140625 C57.90275736 396.75229816 56.02367246 398.38664946 54.16796875 400.046875 C49.56963998 404.03068057 46.12954253 406.48438963 39.98046875 406.98046875 C34.08655935 405.98539314 29.32502019 400.84058961 24.875 397.125 C24.12532959 396.50351074 23.37565918 395.88202148 22.60327148 395.24169922 C17.48732766 390.99283684 12.40774608 386.7018867 7.34228516 382.39306641 C3.39808568 379.0455312 -0.61525122 375.79670703 -4.66796875 372.58203125 C-9.19284881 368.97795349 -13.65293103 365.2942291 -18.125 361.625 C-19.95810162 360.12471683 -21.79143427 358.62471592 -23.625 357.125 C-24.54023438 356.37605469 -25.45546875 355.62710937 -26.3984375 354.85546875 C-28.15317784 353.42000065 -29.90835155 351.98506204 -31.6640625 350.55078125 C-38.07577975 345.31099419 -44.47026626 340.05057819 -50.85913086 334.78295898 C-54.83247086 331.50806284 -58.81607568 328.24672581 -62.8125 325 C-67.58757597 321.10168305 -72.2626081 317.09402112 -76.92993164 313.06811523 C-80.48942953 310.00436099 -84.09201387 307.00891822 -87.75 304.0625 C-92.80308144 299.96198767 -97.57809348 295.60915243 -102.34765625 291.1875 C-105.23864944 288.520142 -108.18301642 285.92676397 -111.15234375 283.34765625 C-115.18815079 279.82331782 -119.15715261 276.22545411 -123.125 272.625 C-124.57519531 271.31595703 -124.57519531 271.31595703 -126.0546875 269.98046875 C-132.5258884 264.10081524 -138.80637786 258.04638897 -145 251.875 C-145.70133057 251.17826172 -146.40266113 250.48152344 -147.12524414 249.76367188 C-151.66233798 245.21309885 -155.93599576 240.49572927 -160.125 235.625 C-161.06233886 234.56511041 -162.00105874 233.50643994 -162.94140625 232.44921875 C-175.12143681 218.60917321 -186.27080297 203.82474205 -195.125 187.625 C-195.46724609 187.00093262 -195.80949219 186.37686523 -196.16210938 185.73388672 C-207.06618666 165.56748113 -215.18159693 142.83974445 -215.328125 119.69921875 C-215.33513931 118.95846603 -215.34215363 118.21771332 -215.34938049 117.45451355 C-215.36681223 115.07378005 -215.3732337 112.693295 -215.375 110.3125 C-215.37567474 109.50065247 -215.37634949 108.68880493 -215.37704468 107.85235596 C-215.36156703 96.15849054 -214.9788371 85.01733359 -212.125 73.625 C-211.95871094 72.90860352 -211.79242188 72.19220703 -211.62109375 71.45410156 C-208.84124813 59.54709616 -204.5521067 48.56699725 -199.125 37.625 C-198.66335449 36.68962402 -198.66335449 36.68962402 -198.19238281 35.73535156 C-184.0109802 7.63317752 -158.03470245 -14.55011703 -128.29003906 -24.69873047 C-83.51156052 -38.68569321 -35.63763903 -31.28883046 0 0 Z " fill="#FC7C9F" transform="translate(215.125,68.375)"/>
<path d="M0 0 C1.63520901 1.53083396 3.25973906 3.07313235 4.875 4.625 C5.83019531 5.51703125 6.78539062 6.4090625 7.76953125 7.328125 C21.15092643 20.04833708 32.09592081 35.87567012 39.875 52.625 C39.875 53.285 39.875 53.945 39.875 54.625 C40.535 54.625 41.195 54.625 41.875 54.625 C42.1328125 53.7690625 42.390625 52.913125 42.65625 52.03125 C48.54961251 35.56005733 60.89364693 21.0469686 72.875 8.625 C73.71417969 7.71105469 74.55335938 6.79710937 75.41796875 5.85546875 C97.29435922 -17.27856595 128.76092781 -30.52903374 160.4453125 -31.625 C197.74918579 -32.31813003 230.59602457 -20.40671535 257.6315918 5.29492188 C281.4642162 28.56405796 296.58395048 64.25685846 297.06524658 97.58409119 C297.06949646 98.27692703 297.07374634 98.96976288 297.078125 99.68359375 C297.08382507 100.43101334 297.08952515 101.17843292 297.09539795 101.94850159 C297.1047838 103.52416601 297.11135616 105.0998495 297.11523438 106.67553711 C297.12484904 109.02560082 297.15589534 111.37475341 297.1875 113.72460938 C297.2869271 127.80047378 295.33485828 141.21769193 291.125 154.6875 C290.86895996 155.51910645 290.61291992 156.35071289 290.34912109 157.20751953 C280.50332814 188.25233143 260.6351004 215.00116849 238.6484375 238.60546875 C236.57781288 240.8340128 234.58227715 243.11651882 232.59765625 245.421875 C228.57169036 250.04089327 224.27966707 254.36731859 219.9375 258.6875 C219.17759766 259.45126953 218.41769531 260.21503906 217.63476562 261.00195312 C213.4745753 265.15503809 209.22950659 269.13908008 204.77514648 272.97436523 C201.73643573 275.61405731 198.81090751 278.37217157 195.875 281.125 C190.94983793 285.71701226 185.99153757 290.24598136 180.875 294.625 C179.82930999 295.5246035 178.78374931 296.42435733 177.73828125 297.32421875 C167.22279549 306.36526814 156.6826426 315.37460849 145.9296875 324.1328125 C142.19346264 327.18103688 138.4712679 330.24604748 134.75 333.3125 C134.03021973 333.90546875 133.31043945 334.4984375 132.56884766 335.109375 C130.33743712 336.9477614 128.10619303 338.78634962 125.875 340.625 C115.71804831 348.99499885 105.55274065 357.35405034 95.359375 365.6796875 C92.52953372 367.99270148 89.70143455 370.30782541 86.875 372.625 C86.23755859 373.14755371 85.60011719 373.67010742 84.94335938 374.20849609 C74.70245332 382.60455748 74.70245332 382.60455748 64.56103516 391.12011719 C62.97839841 392.46523943 61.38992001 393.80319618 59.80078125 395.140625 C57.90275736 396.75229816 56.02367246 398.38664946 54.16796875 400.046875 C49.56963998 404.03068057 46.12954253 406.48438963 39.98046875 406.98046875 C34.08655935 405.98539314 29.32502019 400.84058961 24.875 397.125 C24.12532959 396.50351074 23.37565918 395.88202148 22.60327148 395.24169922 C17.48732766 390.99283684 12.40774608 386.7018867 7.34228516 382.39306641 C3.39808568 379.0455312 -0.61525122 375.79670703 -4.66796875 372.58203125 C-9.19284881 368.97795349 -13.65293103 365.2942291 -18.125 361.625 C-19.95810162 360.12471683 -21.79143427 358.62471592 -23.625 357.125 C-24.54023438 356.37605469 -25.45546875 355.62710937 -26.3984375 354.85546875 C-28.15317784 353.42000065 -29.90835155 351.98506204 -31.6640625 350.55078125 C-38.07577975 345.31099419 -44.47026626 340.05057819 -50.85913086 334.78295898 C-54.83247086 331.50806284 -58.81607568 328.24672581 -62.8125 325 C-67.58757597 321.10168305 -72.2626081 317.09402112 -76.92993164 313.06811523 C-80.48942953 310.00436099 -84.09201387 307.00891822 -87.75 304.0625 C-92.80308144 299.96198767 -97.57809348 295.60915243 -102.34765625 291.1875 C-105.23864944 288.520142 -108.18301642 285.92676397 -111.15234375 283.34765625 C-115.18815079 279.82331782 -119.15715261 276.22545411 -123.125 272.625 C-124.57519531 271.31595703 -124.57519531 271.31595703 -126.0546875 269.98046875 C-132.5258884 264.10081524 -138.80637786 258.04638897 -145 251.875 C-145.70133057 251.17826172 -146.40266113 250.48152344 -147.12524414 249.76367188 C-151.66233798 245.21309885 -155.93599576 240.49572927 -160.125 235.625 C-161.06233886 234.56511041 -162.00105874 233.50643994 -162.94140625 232.44921875 C-175.12143681 218.60917321 -186.27080297 203.82474205 -195.125 187.625 C-195.46724609 187.00093262 -195.80949219 186.37686523 -196.16210938 185.73388672 C-207.06618666 165.56748113 -215.18159693 142.83974445 -215.328125 119.69921875 C-215.33513931 118.95846603 -215.34215363 118.21771332 -215.34938049 117.45451355 C-215.36681223 115.07378005 -215.3732337 112.693295 -215.375 110.3125 C-215.37567474 109.50065247 -215.37634949 108.68880493 -215.37704468 107.85235596 C-215.36156703 96.15849054 -214.9788371 85.01733359 -212.125 73.625 C-211.95871094 72.90860352 -211.79242188 72.19220703 -211.62109375 71.45410156 C-208.84124813 59.54709616 -204.5521067 48.56699725 -199.125 37.625 C-198.66335449 36.68962402 -198.66335449 36.68962402 -198.19238281 35.73535156 C-184.0109802 7.63317752 -158.03470245 -14.55011703 -128.29003906 -24.69873047 C-83.51156052 -38.68569321 -35.63763903 -31.28883046 0 0 Z M83.3515625 26.94580078 C69.03576598 43.22623207 57.61085708 63.22992876 50.75 83.8125 C49.27242675 88.01982722 48.03354545 90.54572728 43.875 92.625 C40.26392083 93.22684653 38.56745854 93.03783299 35.41796875 91.16015625 C31.95471932 87.7075466 30.80560463 84.11111899 29.1875 79.5625 C21.21591554 58.51328603 9.88375364 40.36553291 -5.125 23.625 C-6.20007813 22.42230469 -6.20007813 22.42230469 -7.296875 21.1953125 C-11.70869682 16.53470374 -16.54744043 12.62760588 -21.6875 8.8125 C-22.30077148 8.35601074 -22.91404297 7.89952148 -23.54589844 7.42919922 C-31.04476235 1.75083162 -31.04476235 1.75083162 -39.87109375 -0.30078125 C-60.63843949 8.22930704 -75.76949574 35.39941786 -84.07910156 54.859375 C-91.29272086 72.94628518 -93.48242399 91.73819638 -93.5625 111.0625 C-93.56876404 111.76826172 -93.57502808 112.47402344 -93.58148193 113.20117188 C-93.66215866 127.55410421 -91.50904693 141.11430075 -86.6875 154.6875 C-86.34823486 155.64793213 -86.00896973 156.60836426 -85.65942383 157.59790039 C-79.29980634 174.88903275 -70.17426384 190.91903137 -59.125 205.625 C-58.66738281 206.23666016 -58.20976562 206.84832031 -57.73828125 207.47851562 C-52.36024149 214.61157396 -46.7029476 221.3948562 -40.609375 227.9296875 C-38.73271288 229.96568885 -36.93168616 232.02352057 -35.13671875 234.12890625 C-30.32226316 239.65041608 -25.11499712 244.78440353 -19.92797852 249.95239258 C-18.191064 251.683947 -16.45956111 253.42078359 -14.72851562 255.15820312 C-9.55668075 260.33314304 -4.3795747 265.43607822 1.19116211 270.1862793 C3.76145904 272.38241672 6.21373024 274.69576131 8.6875 277 C13.36274918 281.32469833 18.19755409 285.38461671 23.16015625 289.37890625 C25.98173495 291.7133059 28.68090712 294.14490598 31.375 296.625 C35.78656385 300.68038943 40.32687882 304.5097374 44.98828125 308.2734375 C48.17511552 310.86947841 51.30841763 313.52247646 54.4375 316.1875 C59.02883622 320.0909427 63.67645188 323.90705548 68.3984375 327.65234375 C74.96561226 332.88329525 81.43949086 338.23308694 87.875 343.625 C91.72835832 341.99331478 94.63528252 339.410109 97.75 336.6875 C102.34714041 332.72832476 107.01490011 328.90096517 111.8125 325.1875 C117.29274889 320.93322683 122.59068997 316.50526912 127.83569336 311.96508789 C131.30601835 308.96260618 134.81057596 306.01620193 138.375 303.125 C144.36954342 298.25388492 150.21746679 293.21993198 156.06787109 288.17773438 C157.85924144 286.63854018 159.65695887 285.10712881 161.45703125 283.578125 C167.66179502 278.30139141 173.77714404 272.95424844 179.75390625 267.41992188 C182.46031192 264.91412579 185.198156 262.46087846 188 260.0625 C192.01997764 256.58463553 195.71008467 252.80587307 199.44140625 249.0234375 C201.5026938 246.99192778 203.59686556 245.10768941 205.8125 243.25 C210.78104955 238.98839838 215.04826613 234.09037814 219.41308594 229.23095703 C220.85052836 227.65188285 222.31336385 226.10190803 223.7890625 224.55859375 C256.97186748 189.71609896 278.08531149 148.63895772 277.015625 99.90136719 C276.71741878 92.95357642 275.49852041 86.37100723 273.875 79.625 C273.45734375 77.76101562 273.45734375 77.76101562 273.03125 75.859375 C268.32872718 56.48173784 259.76765085 39.86416604 246.875 24.625 C246.09962891 23.63113281 246.09962891 23.63113281 245.30859375 22.6171875 C234.2156179 8.88302692 218.21639143 -0.10083108 201.75 -5.75 C201.05874023 -5.98887939 200.36748047 -6.22775879 199.65527344 -6.47387695 C188.51326524 -10.05190678 177.13070458 -10.74071741 165.5 -10.6875 C164.22576172 -10.68258545 162.95152344 -10.6776709 161.63867188 -10.67260742 C130.67360764 -10.28653405 103.97466851 4.38583221 83.3515625 26.94580078 Z " fill="#DA4B85" transform="translate(215.125,68.375)"/>
<path d="M0 0 C1.63520901 1.53083396 3.25973906 3.07313235 4.875 4.625 C5.83019531 5.51703125 6.78539062 6.4090625 7.76953125 7.328125 C21.15092643 20.04833708 32.09592081 35.87567012 39.875 52.625 C39.875 53.285 39.875 53.945 39.875 54.625 C40.535 54.625 41.195 54.625 41.875 54.625 C42.1328125 53.7690625 42.390625 52.913125 42.65625 52.03125 C48.54961251 35.56005733 60.89364693 21.0469686 72.875 8.625 C73.71417969 7.71105469 74.55335938 6.79710937 75.41796875 5.85546875 C97.29435922 -17.27856595 128.76092781 -30.52903374 160.4453125 -31.625 C197.74918579 -32.31813003 230.59602457 -20.40671535 257.6315918 5.29492188 C281.4642162 28.56405796 296.58395048 64.25685846 297.06524658 97.58409119 C297.06949646 98.27692703 297.07374634 98.96976288 297.078125 99.68359375 C297.08382507 100.43101334 297.08952515 101.17843292 297.09539795 101.94850159 C297.1047838 103.52416601 297.11135616 105.0998495 297.11523438 106.67553711 C297.12484904 109.02560082 297.15589534 111.37475341 297.1875 113.72460938 C297.2869271 127.80047378 295.33485828 141.21769193 291.125 154.6875 C290.86895996 155.51910645 290.61291992 156.35071289 290.34912109 157.20751953 C280.50332814 188.25233143 260.6351004 215.00116849 238.6484375 238.60546875 C236.57781288 240.8340128 234.58227715 243.11651882 232.59765625 245.421875 C228.57169036 250.04089327 224.27966707 254.36731859 219.9375 258.6875 C219.17759766 259.45126953 218.41769531 260.21503906 217.63476562 261.00195312 C213.4745753 265.15503809 209.22950659 269.13908008 204.77514648 272.97436523 C201.73643573 275.61405731 198.81090751 278.37217157 195.875 281.125 C190.94983793 285.71701226 185.99153757 290.24598136 180.875 294.625 C179.82930999 295.5246035 178.78374931 296.42435733 177.73828125 297.32421875 C167.22279549 306.36526814 156.6826426 315.37460849 145.9296875 324.1328125 C142.19346264 327.18103688 138.4712679 330.24604748 134.75 333.3125 C134.03021973 333.90546875 133.31043945 334.4984375 132.56884766 335.109375 C130.33743712 336.9477614 128.10619303 338.78634962 125.875 340.625 C115.71804831 348.99499885 105.55274065 357.35405034 95.359375 365.6796875 C92.52953372 367.99270148 89.70143455 370.30782541 86.875 372.625 C86.23755859 373.14755371 85.60011719 373.67010742 84.94335938 374.20849609 C74.70245332 382.60455748 74.70245332 382.60455748 64.56103516 391.12011719 C62.97839841 392.46523943 61.38992001 393.80319618 59.80078125 395.140625 C57.90275736 396.75229816 56.02367246 398.38664946 54.16796875 400.046875 C49.56963998 404.03068057 46.12954253 406.48438963 39.98046875 406.98046875 C34.08655935 405.98539314 29.32502019 400.84058961 24.875 397.125 C24.12532959 396.50351074 23.37565918 395.88202148 22.60327148 395.24169922 C17.48732766 390.99283684 12.40774608 386.7018867 7.34228516 382.39306641 C3.39808568 379.0455312 -0.61525122 375.79670703 -4.66796875 372.58203125 C-9.19284881 368.97795349 -13.65293103 365.2942291 -18.125 361.625 C-19.95810162 360.12471683 -21.79143427 358.62471592 -23.625 357.125 C-24.54023438 356.37605469 -25.45546875 355.62710937 -26.3984375 354.85546875 C-28.15317784 353.42000065 -29.90835155 351.98506204 -31.6640625 350.55078125 C-38.07577975 345.31099419 -44.47026626 340.05057819 -50.85913086 334.78295898 C-54.83247086 331.50806284 -58.81607568 328.24672581 -62.8125 325 C-67.58757597 321.10168305 -72.2626081 317.09402112 -76.92993164 313.06811523 C-80.48942953 310.00436099 -84.09201387 307.00891822 -87.75 304.0625 C-92.80308144 299.96198767 -97.57809348 295.60915243 -102.34765625 291.1875 C-105.23864944 288.520142 -108.18301642 285.92676397 -111.15234375 283.34765625 C-115.18815079 279.82331782 -119.15715261 276.22545411 -123.125 272.625 C-124.57519531 271.31595703 -124.57519531 271.31595703 -126.0546875 269.98046875 C-132.5258884 264.10081524 -138.80637786 258.04638897 -145 251.875 C-145.70133057 251.17826172 -146.40266113 250.48152344 -147.12524414 249.76367188 C-151.66233798 245.21309885 -155.93599576 240.49572927 -160.125 235.625 C-161.06233886 234.56511041 -162.00105874 233.50643994 -162.94140625 232.44921875 C-175.12143681 218.60917321 -186.27080297 203.82474205 -195.125 187.625 C-195.46724609 187.00093262 -195.80949219 186.37686523 -196.16210938 185.73388672 C-207.06618666 165.56748113 -215.18159693 142.83974445 -215.328125 119.69921875 C-215.33513931 118.95846603 -215.34215363 118.21771332 -215.34938049 117.45451355 C-215.36681223 115.07378005 -215.3732337 112.693295 -215.375 110.3125 C-215.37567474 109.50065247 -215.37634949 108.68880493 -215.37704468 107.85235596 C-215.36156703 96.15849054 -214.9788371 85.01733359 -212.125 73.625 C-211.95871094 72.90860352 -211.79242188 72.19220703 -211.62109375 71.45410156 C-208.84124813 59.54709616 -204.5521067 48.56699725 -199.125 37.625 C-198.66335449 36.68962402 -198.66335449 36.68962402 -198.19238281 35.73535156 C-184.0109802 7.63317752 -158.03470245 -14.55011703 -128.29003906 -24.69873047 C-83.51156052 -38.68569321 -35.63763903 -31.28883046 0 0 Z M-154.125 13.625 C-154.93195313 14.27726562 -155.73890625 14.92953125 -156.5703125 15.6015625 C-179.25639836 34.58960302 -191.59363173 65.53801403 -194.84375 94.3515625 C-195.98390942 109.23941334 -196.13816554 124.16848323 -192.125 138.625 C-191.93164062 139.36991699 -191.73828125 140.11483398 -191.5390625 140.88232422 C-185.09303845 165.59705687 -173.06751054 186.83783258 -157.125 206.625 C-156.38507813 207.55828125 -155.64515625 208.4915625 -154.8828125 209.453125 C-149.75528009 215.8397312 -144.32349555 221.91448803 -138.73486328 227.89746094 C-136.9398939 229.82363676 -135.1556296 231.75946825 -133.37109375 233.6953125 C-132.06027143 235.10972318 -130.74907644 236.52378859 -129.4375 237.9375 C-128.83212402 238.59516357 -128.22674805 239.25282715 -127.60302734 239.93041992 C-123.90509362 243.89635615 -120.04613995 247.5260245 -115.93041992 251.05541992 C-113.71888064 252.97806848 -111.66499842 255.0222324 -109.625 257.125 C-106.27243221 260.51768399 -102.83024318 263.71600684 -99.2109375 266.8203125 C-96.87474499 268.84151276 -94.59535149 270.91878839 -92.3125 273 C-87.94214316 276.94871445 -83.42196921 280.6712721 -78.84375 284.375 C-76.20352271 286.56001569 -73.6577028 288.81671391 -71.125 291.125 C-66.88332974 294.9859219 -62.50466073 298.63049703 -58.046875 302.23828125 C-54.85088968 304.84890563 -51.70431816 307.51224298 -48.5625 310.1875 C-43.95699759 314.10288538 -39.29406565 317.9294295 -34.55859375 321.6875 C-26.41771014 328.16884554 -18.42840954 334.84321446 -10.39770508 341.46020508 C-3.7698542 346.92039394 2.8688897 352.36708971 9.53125 357.78515625 C14.5672392 361.8877509 19.55462854 366.03913945 24.5 370.25 C29.51678423 374.52031404 34.62120558 378.64732102 39.875 382.625 C42.96364337 381.20908259 45.43049201 379.51787376 48.0625 377.375 C49.36960937 376.31345703 49.36960937 376.31345703 50.703125 375.23046875 C51.76094797 374.36262637 52.81818372 373.49406799 53.875 372.625 C54.51759766 372.09729004 55.16019531 371.56958008 55.82226562 371.02587891 C59.46954234 368.02917457 63.11300156 365.02787962 66.75390625 362.0234375 C71.78164593 357.8751223 76.8270949 353.74875017 81.875 349.625 C83.70845036 348.12514304 85.54178171 346.6251406 87.375 345.125 C90.0539992 342.93274854 92.73324208 340.74080532 95.4140625 338.55078125 C102.42497024 332.82132341 109.41578852 327.06770833 116.40234375 321.30859375 C119.34938358 318.87984197 122.30002319 316.45557981 125.25390625 314.03515625 C132.56609185 308.03850382 139.82790778 301.99587508 146.98461914 295.81420898 C150.44138035 292.83362151 153.94528196 289.92658711 157.5 287.0625 C162.55308144 282.96198767 167.32809348 278.60915243 172.09765625 274.1875 C174.37151223 272.08954005 176.66526748 270.02938521 179 268 C186.14158002 261.78993042 193.09328794 255.47604843 199.734375 248.73046875 C201.67487179 246.82184143 203.66649234 245.0614607 205.75 243.3125 C210.73689097 239.02535064 215.02784581 234.1131124 219.41308594 229.23095703 C220.85052836 227.65188285 222.31336385 226.10190803 223.7890625 224.55859375 C256.97186748 189.71609896 278.08531149 148.63895772 277.015625 99.90136719 C276.71741878 92.95357642 275.49852041 86.37100723 273.875 79.625 C273.45734375 77.76101562 273.45734375 77.76101562 273.03125 75.859375 C268.32872718 56.48173784 259.76765085 39.86416604 246.875 24.625 C246.09962891 23.63113281 246.09962891 23.63113281 245.30859375 22.6171875 C234.2156179 8.88302692 218.21639143 -0.10083108 201.75 -5.75 C201.05874023 -5.98887939 200.36748047 -6.22775879 199.65527344 -6.47387695 C188.51326524 -10.05190678 177.13070458 -10.74071741 165.5 -10.6875 C164.22576172 -10.68258545 162.95152344 -10.6776709 161.63867188 -10.67260742 C132.01869512 -10.30330464 106.79554155 3.01125004 86.27709961 23.80517578 C70.39663377 40.53009379 58.03916421 61.94500737 50.75 83.8125 C49.27242675 88.01982722 48.03354545 90.54572728 43.875 92.625 C40.26392083 93.22684653 38.56745854 93.03783299 35.41796875 91.16015625 C31.95471932 87.7075466 30.80560463 84.11111899 29.1875 79.5625 C21.21591554 58.51328603 9.88375364 40.36553291 -5.125 23.625 C-5.84171875 22.82320312 -6.5584375 22.02140625 -7.296875 21.1953125 C-23.63933001 3.93129048 -47.68980441 -9.19761165 -71.68017578 -10.57983398 C-75.03194264 -10.66241984 -78.37500908 -10.70129353 -81.72729492 -10.69067383 C-83.79205075 -10.68753113 -85.85534376 -10.71099135 -87.91992188 -10.73632812 C-112.2845617 -10.85265441 -135.77756145 -2.49850661 -154.125 13.625 Z " fill="#1D2E72" transform="translate(215.125,68.375)"/>
</svg>
