<?xml version="1.0" encoding="UTF-8"?>
<svg version="1.1" xmlns="http://www.w3.org/2000/svg" width="512" height="512">
<path d="M0 0 C1.8961151 -0.00269842 3.79222884 -0.00658375 5.68833923 -0.01159668 C9.64986428 -0.01747382 13.61102704 -0.00898555 17.57250977 0.00976562 C22.63532584 0.03256973 27.69729426 0.0194115 32.76007938 -0.00452423 C36.67132388 -0.01901723 40.58236924 -0.01436046 44.49361992 -0.00401306 C46.35982808 -0.00135626 48.22605467 -0.00457848 50.09224129 -0.01393127 C52.70528818 -0.02415666 55.31698465 -0.00851402 57.92993164 0.01367188 C58.69119354 0.00557495 59.45245544 -0.00252197 60.23678589 -0.01086426 C66.7320481 0.09066175 71.82641544 2.20312279 76.796875 6.390625 C83.67354489 14.48869854 85.20962139 20.97664632 84.58984375 31.53125 C84.06650266 34.95635003 83.25999963 38.26968714 82.38671875 41.62084961 C82.15263306 42.56212708 81.91854736 43.50340454 81.67736816 44.47320557 C80.91010025 47.54646351 80.12497282 50.61485534 79.33984375 53.68359375 C78.80049652 55.83273745 78.26243097 57.98220317 77.72558594 60.13197327 C76.31622294 65.76378213 74.89228595 71.39179486 73.46435547 77.0189209 C71.17544931 86.04834259 68.9077742 95.08310836 66.64221191 104.11841011 C65.8494116 107.27055238 65.04971007 110.42088264 64.24902344 113.57102966 C63.76350424 115.49644822 63.27814398 117.42190685 62.79296875 119.34741211 C62.56855103 120.22277115 62.3441333 121.09813019 62.11291504 122.00001526 C61.81000549 123.20867752 61.81000549 123.20867752 61.50097656 124.4417572 C61.32399231 125.13909438 61.14700806 125.83643156 60.96466064 126.55490017 C60.4656239 128.85097849 60.4656239 128.85097849 60.58984375 132.53125 C61.5540625 133.00175781 62.51828125 133.47226563 63.51171875 133.95703125 C64.78786671 134.58572179 66.06390249 135.21464007 67.33984375 135.84375 C67.9740625 136.15248047 68.60828125 136.46121094 69.26171875 136.77929688 C72.62132287 138.441601 75.68843296 140.15004165 78.58984375 142.53125 C79.20730469 141.685625 79.82476562 140.84 80.4609375 139.96875 C93.05843806 122.97216209 108.6269639 112.23863532 129.5234375 107.92578125 C133.23552102 107.4481756 136.91477698 107.23302541 140.65234375 107.15625 C141.69358398 107.10017578 141.69358398 107.10017578 142.75585938 107.04296875 C146.69430233 106.97564494 148.39478369 107.37774734 151.5234375 109.83984375 C154.12140215 113.2235822 154.58984375 115.27849709 154.58984375 119.53125 C153.39259164 122.98997832 152.38987087 124.91902962 149.4765625 127.1484375 C145.86002536 128.88085177 142.46168587 129.12657408 138.52734375 129.40625 C123.58885845 130.84778103 110.21967223 137.85395798 100.58984375 149.53125 C95.32303571 156.39396185 95.32303571 156.39396185 93.58984375 164.53125 C95.65963394 166.24280727 97.56212862 167.58964272 99.83984375 168.96875 C100.47011475 169.36126953 101.10038574 169.75378906 101.74975586 170.15820312 C110.44913464 175.44180123 119.37696552 179.57245007 129.6796875 179.70703125 C130.62908203 179.73087891 131.57847656 179.75472656 132.55664062 179.77929688 C134.53298504 179.82217614 136.50961549 179.85347546 138.48632812 179.87304688 C144.46412704 180.04731491 148.03600548 180.541079 152.58984375 184.53125 C154.48908001 187.58654311 154.58984375 189.41651782 154.58984375 193.03125 C153.56824304 196.60685249 152.53978189 198.21927253 149.62792969 200.50146484 C145.29803028 202.68923625 140.45584243 202.21263765 135.71484375 202.09375 C134.59730713 202.07570312 133.47977051 202.05765625 132.32836914 202.0390625 C115.95075046 201.56630162 99.5519932 197.0384469 86.58984375 186.53125 C86.21472656 187.12292969 85.83960938 187.71460938 85.453125 188.32421875 C75.9374189 203.01723598 75.9374189 203.01723598 68.4375 205.140625 C67.82777344 205.26953125 67.21804688 205.3984375 66.58984375 205.53125 C71.50313652 211.85814376 76.65929484 217.85549386 82.0859375 223.74609375 C85.30254951 227.32401008 88.30327703 231.05458484 91.3203125 234.80078125 C93.59327371 237.53537657 95.97104793 240.12459226 98.40234375 242.71875 C139.41888105 287.42359608 163.29199479 348.77491564 169.58984375 408.53125 C169.70070313 409.48 169.8115625 410.42875 169.92578125 411.40625 C172.6226107 438.81186816 171.50871473 464.27834315 153.58984375 486.53125 C153.120625 487.16417969 152.65140625 487.79710937 152.16796875 488.44921875 C144.36753665 498.47506824 132.40982697 505.30303392 120.58984375 509.53125 C119.49855903 509.92194971 119.49855903 509.92194971 118.38522816 510.32054234 C107.61549397 513.55004331 96.57136938 512.95984298 85.43432617 512.93530273 C83.09238867 512.94101189 80.75045394 512.94797826 78.40852356 512.95610046 C72.0736779 512.97398776 65.7389711 512.97287163 59.40410781 512.96715808 C53.43167526 512.96366657 47.45925958 512.97164038 41.4868323 512.97851873 C28.9335258 512.99221634 16.38028179 512.98682571 3.82697675 512.97533352 C-7.62734048 512.96540693 -19.08149603 512.97833669 -30.53578833 513.00226771 C-42.33019685 513.02672141 -54.12453028 513.03625105 -65.91896361 513.02961498 C-72.52733959 513.02613627 -79.13560734 513.02860509 -85.74396706 513.04586601 C-91.9616561 513.06139876 -98.17903797 513.05730932 -104.39671516 513.03856087 C-106.66896763 513.03489232 -108.94124317 513.03793235 -111.21347427 513.04844666 C-135.37485496 513.15164888 -155.21383844 508.09518952 -173.02783203 490.94140625 C-182.8401809 480.93149331 -189.63296667 467.20356792 -192.41015625 453.53125 C-192.59320313 452.67660156 -192.77625 451.82195312 -192.96484375 450.94140625 C-201.70476399 384.01201707 -172.59261203 309.63246686 -132.7956543 257.12866211 C-125.80171187 248.05609638 -118.29507827 239.46520339 -110.58984375 230.9921875 C-107.50953104 227.51441508 -104.61064417 223.89822712 -101.69140625 220.28515625 C-98.63080377 216.59042209 -95.41101436 213.05475056 -92.16015625 209.52734375 C-90.36233646 207.64674325 -90.36233646 207.64674325 -89.41015625 205.53125 C-90.25578125 205.325 -91.10140625 205.11875 -91.97265625 204.90625 C-100.43123925 201.5228168 -105.73638742 194.38137579 -109.44921875 186.2578125 C-113.09778092 175.99410023 -112.94860018 163.48157425 -108.41015625 153.53125 C-103.60208876 144.46931595 -96.20844245 137.02908609 -86.41015625 133.53125 C-85.42015625 133.53125 -84.43015625 133.53125 -83.41015625 133.53125 C-83.83425781 132.29673096 -84.25835937 131.06221191 -84.6953125 129.7902832 C-86.28074505 125.15808245 -87.83984604 120.51735868 -89.39160156 115.8737793 C-90.06361263 113.87465914 -90.7425094 111.87783871 -91.42871094 109.88354492 C-100.37669437 83.84178266 -100.37669437 83.84178266 -95.34765625 72.09375 C-91.40032274 65.24429242 -85.99299709 60.88902595 -78.41015625 58.53125 C-75.25658683 58.14874857 -72.14939085 58.17971387 -68.9765625 58.23828125 C-67.65965675 58.24464851 -67.65965675 58.24464851 -66.31614685 58.25114441 C-63.53466045 58.2678271 -60.75392061 58.30545915 -57.97265625 58.34375 C-56.07748448 58.35881032 -54.18230127 58.37249636 -52.28710938 58.38476562 C-47.66117428 58.4176964 -43.03579148 58.46940572 -38.41015625 58.53125 C-38.43372192 56.92068726 -38.43372192 56.92068726 -38.45776367 55.27758789 C-38.51245579 51.25764601 -38.54664783 47.23773638 -38.57495117 43.2175293 C-38.58994894 41.48439994 -38.61035397 39.75130796 -38.63647461 38.01831055 C-38.67325828 35.51341475 -38.68997276 33.0090248 -38.703125 30.50390625 C-38.71860886 29.74102798 -38.73409271 28.97814972 -38.75004578 28.19215393 C-38.752251 20.98954706 -37.17502533 13.73461681 -32.28515625 8.21875 C-31.76695312 7.60386719 -31.24875 6.98898438 -30.71484375 6.35546875 C-21.46770156 -0.96387939 -11.2256477 -0.05633034 0 0 Z " fill="#F6AF72" transform="translate(267.41015625,-0.53125)"/>
<path d="M0 0 C1.8961151 -0.00269842 3.79222884 -0.00658375 5.68833923 -0.01159668 C9.64986428 -0.01747382 13.61102704 -0.00898555 17.57250977 0.00976562 C22.63532584 0.03256973 27.69729426 0.0194115 32.76007938 -0.00452423 C36.67132388 -0.01901723 40.58236924 -0.01436046 44.49361992 -0.00401306 C46.35982808 -0.00135626 48.22605467 -0.00457848 50.09224129 -0.01393127 C52.70528818 -0.02415666 55.31698465 -0.00851402 57.92993164 0.01367188 C58.69119354 0.00557495 59.45245544 -0.00252197 60.23678589 -0.01086426 C66.7320481 0.09066175 71.82641544 2.20312279 76.796875 6.390625 C83.67354489 14.48869854 85.20962139 20.97664632 84.58984375 31.53125 C84.06650266 34.95635003 83.25999963 38.26968714 82.38671875 41.62084961 C82.15263306 42.56212708 81.91854736 43.50340454 81.67736816 44.47320557 C80.91010025 47.54646351 80.12497282 50.61485534 79.33984375 53.68359375 C78.80049652 55.83273745 78.26243097 57.98220317 77.72558594 60.13197327 C76.31622294 65.76378213 74.89228595 71.39179486 73.46435547 77.0189209 C71.17544931 86.04834259 68.9077742 95.08310836 66.64221191 104.11841011 C65.8494116 107.27055238 65.04971007 110.42088264 64.24902344 113.57102966 C63.76350424 115.49644822 63.27814398 117.42190685 62.79296875 119.34741211 C62.56855103 120.22277115 62.3441333 121.09813019 62.11291504 122.00001526 C61.81000549 123.20867752 61.81000549 123.20867752 61.50097656 124.4417572 C61.32399231 125.13909438 61.14700806 125.83643156 60.96466064 126.55490017 C60.4656239 128.85097849 60.4656239 128.85097849 60.58984375 132.53125 C61.5540625 133.00175781 62.51828125 133.47226563 63.51171875 133.95703125 C64.78786671 134.58572179 66.06390249 135.21464007 67.33984375 135.84375 C67.9740625 136.15248047 68.60828125 136.46121094 69.26171875 136.77929688 C72.62132287 138.441601 75.68843296 140.15004165 78.58984375 142.53125 C79.20730469 141.685625 79.82476562 140.84 80.4609375 139.96875 C93.05843806 122.97216209 108.6269639 112.23863532 129.5234375 107.92578125 C133.23552102 107.4481756 136.91477698 107.23302541 140.65234375 107.15625 C141.69358398 107.10017578 141.69358398 107.10017578 142.75585938 107.04296875 C146.69430233 106.97564494 148.39478369 107.37774734 151.5234375 109.83984375 C154.12140215 113.2235822 154.58984375 115.27849709 154.58984375 119.53125 C153.39259164 122.98997832 152.38987087 124.91902962 149.4765625 127.1484375 C145.86002536 128.88085177 142.46168587 129.12657408 138.52734375 129.40625 C123.58885845 130.84778103 110.21967223 137.85395798 100.58984375 149.53125 C95.32303571 156.39396185 95.32303571 156.39396185 93.58984375 164.53125 C95.65963394 166.24280727 97.56212862 167.58964272 99.83984375 168.96875 C100.47011475 169.36126953 101.10038574 169.75378906 101.74975586 170.15820312 C110.44913464 175.44180123 119.37696552 179.57245007 129.6796875 179.70703125 C130.62908203 179.73087891 131.57847656 179.75472656 132.55664062 179.77929688 C134.53298504 179.82217614 136.50961549 179.85347546 138.48632812 179.87304688 C144.46412704 180.04731491 148.03600548 180.541079 152.58984375 184.53125 C154.48908001 187.58654311 154.58984375 189.41651782 154.58984375 193.03125 C153.56824304 196.60685249 152.53978189 198.21927253 149.62792969 200.50146484 C145.29803028 202.68923625 140.45584243 202.21263765 135.71484375 202.09375 C134.59730713 202.07570312 133.47977051 202.05765625 132.32836914 202.0390625 C115.95075046 201.56630162 99.5519932 197.0384469 86.58984375 186.53125 C86.21472656 187.12292969 85.83960938 187.71460938 85.453125 188.32421875 C75.9374189 203.01723598 75.9374189 203.01723598 68.4375 205.140625 C67.82777344 205.26953125 67.21804688 205.3984375 66.58984375 205.53125 C71.50313652 211.85814376 76.65929484 217.85549386 82.0859375 223.74609375 C85.30254951 227.32401008 88.30327703 231.05458484 91.3203125 234.80078125 C93.59327371 237.53537657 95.97104793 240.12459226 98.40234375 242.71875 C139.41888105 287.42359608 163.29199479 348.77491564 169.58984375 408.53125 C169.70070313 409.48 169.8115625 410.42875 169.92578125 411.40625 C172.6226107 438.81186816 171.50871473 464.27834315 153.58984375 486.53125 C153.120625 487.16417969 152.65140625 487.79710937 152.16796875 488.44921875 C144.36753665 498.47506824 132.40982697 505.30303392 120.58984375 509.53125 C119.49855903 509.92194971 119.49855903 509.92194971 118.38522816 510.32054234 C107.61549397 513.55004331 96.57136938 512.95984298 85.43432617 512.93530273 C83.09238867 512.94101189 80.75045394 512.94797826 78.40852356 512.95610046 C72.0736779 512.97398776 65.7389711 512.97287163 59.40410781 512.96715808 C53.43167526 512.96366657 47.45925958 512.97164038 41.4868323 512.97851873 C28.9335258 512.99221634 16.38028179 512.98682571 3.82697675 512.97533352 C-7.62734048 512.96540693 -19.08149603 512.97833669 -30.53578833 513.00226771 C-42.33019685 513.02672141 -54.12453028 513.03625105 -65.91896361 513.02961498 C-72.52733959 513.02613627 -79.13560734 513.02860509 -85.74396706 513.04586601 C-91.9616561 513.06139876 -98.17903797 513.05730932 -104.39671516 513.03856087 C-106.66896763 513.03489232 -108.94124317 513.03793235 -111.21347427 513.04844666 C-135.37485496 513.15164888 -155.21383844 508.09518952 -173.02783203 490.94140625 C-182.8401809 480.93149331 -189.63296667 467.20356792 -192.41015625 453.53125 C-192.59320313 452.67660156 -192.77625 451.82195312 -192.96484375 450.94140625 C-201.70476399 384.01201707 -172.59261203 309.63246686 -132.7956543 257.12866211 C-125.80171187 248.05609638 -118.29507827 239.46520339 -110.58984375 230.9921875 C-107.50953104 227.51441508 -104.61064417 223.89822712 -101.69140625 220.28515625 C-98.63080377 216.59042209 -95.41101436 213.05475056 -92.16015625 209.52734375 C-90.36233646 207.64674325 -90.36233646 207.64674325 -89.41015625 205.53125 C-90.25578125 205.325 -91.10140625 205.11875 -91.97265625 204.90625 C-100.43123925 201.5228168 -105.73638742 194.38137579 -109.44921875 186.2578125 C-113.09778092 175.99410023 -112.94860018 163.48157425 -108.41015625 153.53125 C-103.60208876 144.46931595 -96.20844245 137.02908609 -86.41015625 133.53125 C-85.42015625 133.53125 -84.43015625 133.53125 -83.41015625 133.53125 C-83.83425781 132.29673096 -84.25835937 131.06221191 -84.6953125 129.7902832 C-86.28074505 125.15808245 -87.83984604 120.51735868 -89.39160156 115.8737793 C-90.06361263 113.87465914 -90.7425094 111.87783871 -91.42871094 109.88354492 C-100.37669437 83.84178266 -100.37669437 83.84178266 -95.34765625 72.09375 C-91.40032274 65.24429242 -85.99299709 60.88902595 -78.41015625 58.53125 C-75.25658683 58.14874857 -72.14939085 58.17971387 -68.9765625 58.23828125 C-67.65965675 58.24464851 -67.65965675 58.24464851 -66.31614685 58.25114441 C-63.53466045 58.2678271 -60.75392061 58.30545915 -57.97265625 58.34375 C-56.07748448 58.35881032 -54.18230127 58.37249636 -52.28710938 58.38476562 C-47.66117428 58.4176964 -43.03579148 58.46940572 -38.41015625 58.53125 C-38.43372192 56.92068726 -38.43372192 56.92068726 -38.45776367 55.27758789 C-38.51245579 51.25764601 -38.54664783 47.23773638 -38.57495117 43.2175293 C-38.58994894 41.48439994 -38.61035397 39.75130796 -38.63647461 38.01831055 C-38.67325828 35.51341475 -38.68997276 33.0090248 -38.703125 30.50390625 C-38.71860886 29.74102798 -38.73409271 28.97814972 -38.75004578 28.19215393 C-38.752251 20.98954706 -37.17502533 13.73461681 -32.28515625 8.21875 C-31.76695312 7.60386719 -31.24875 6.98898438 -30.71484375 6.35546875 C-21.46770156 -0.96387939 -11.2256477 -0.05633034 0 0 Z M-73.41015625 218.53125 C-74.5576596 219.86053681 -75.7216559 221.17598773 -76.91015625 222.46875 C-77.46960938 223.12101563 -78.0290625 223.77328125 -78.60546875 224.4453125 C-80.62666901 226.78150501 -82.70394464 229.06089851 -84.78515625 231.34375 C-88.62821923 235.60735017 -92.30338359 239.97677273 -95.91015625 244.44140625 C-97.73019197 246.69085665 -99.56234507 248.92598792 -101.41015625 251.15234375 C-128.85855133 284.34215359 -152.85788355 322.37193409 -163.41015625 364.53125 C-163.7453125 365.79839844 -164.08046875 367.06554687 -164.42578125 368.37109375 C-170.10818341 390.0588846 -172.54533429 411.48534866 -172.66015625 433.90625 C-172.66942139 435.02878174 -172.67868652 436.15131348 -172.68823242 437.30786133 C-172.63123954 452.16959269 -168.11062069 466.00719803 -157.78515625 477.03125 C-142.02963827 491.38305055 -125.56489577 492.98259077 -105.10253906 492.95117188 C-102.83956485 492.95851934 -100.57659438 492.96710753 -98.31362915 492.97683716 C-92.18946835 492.99899179 -86.06544235 493.00198681 -79.94124699 493.00008965 C-74.81735002 492.99996965 -69.69348131 493.0085457 -64.56959224 493.01686716 C-51.78352536 493.03717688 -38.99755714 493.03825949 -26.21148357 493.03106004 C-15.13859477 493.02548872 -4.06593763 493.04629932 7.00689706 493.07942051 C18.40804471 493.11325593 29.8090374 493.12784034 41.21024442 493.12370348 C47.59847277 493.12164185 53.98647038 493.12702474 60.37465668 493.15159607 C66.38637047 493.17395683 72.39760429 493.1719076 78.40932083 493.15166855 C80.60578667 493.14827488 82.80228541 493.15327598 84.99870682 493.16765213 C104.31909494 493.28530531 120.21513321 490.46376213 134.90234375 476.71875 C149.36105445 461.40256975 150.15037704 444.26420813 149.72167969 424.27685547 C147.44048148 359.46547974 120.48509066 299.6269503 78.09863281 251.26220703 C76.04174845 248.90244811 74.01575847 246.51696716 71.98754883 244.13256836 C67.8693634 239.2946744 63.70218739 234.52240522 59.40234375 229.84375 C55.27716155 225.35321349 51.40124696 220.70642118 47.59765625 215.94140625 C46.93507813 215.14605469 46.2725 214.35070312 45.58984375 213.53125 C45.09554367 212.83385208 44.60124359 212.13645416 44.09196472 211.41792297 C40.18250692 208.47007654 36.32223485 208.93312751 31.5480957 208.93432617 C30.52808975 208.91928543 29.5080838 208.90424469 28.45716858 208.88874817 C25.08064418 208.84561056 21.70490307 208.83296692 18.328125 208.82421875 C15.97885341 208.80882541 13.62958477 208.79297529 11.28031921 208.77668762 C6.35160821 208.74820541 1.42317377 208.73681625 -3.50561523 208.73510742 C-9.81004764 208.72993245 -16.11230726 208.66501603 -22.41617107 208.58481884 C-27.27111054 208.53272998 -32.12552921 208.52154608 -36.98072243 208.52160072 C-39.30393054 208.51504817 -41.62714671 208.49381392 -43.95007896 208.45741844 C-61.19121061 207.70382584 -61.19121061 207.70382584 -73.41015625 218.53125 Z " fill="#062A74" transform="translate(267.41015625,-0.53125)"/>
<path d="M0 0 C1.29873047 0.00966797 2.59746094 0.01933594 3.93554688 0.02929688 C5.30729764 0.0543629 6.67904243 0.07975774 8.05078125 0.10546875 C9.43423049 0.12051855 10.81769526 0.13420645 12.20117188 0.14648438 C15.58893332 0.18189652 18.97591264 0.23128821 22.36328125 0.29296875 C21.10485733 3.61440659 19.68332259 6.62633183 17.859375 9.671875 C5.81419047 30.0694728 -2.68724185 50.64006013 -9.63671875 73.29296875 C-9.87261719 74.06060547 -10.10851562 74.82824219 -10.3515625 75.61914062 C-11.69842721 80.13069725 -12.72147483 84.67891226 -13.63671875 89.29296875 C-13.90524658 90.53820312 -13.90524658 90.53820312 -14.17919922 91.80859375 C-17.59111447 108.11668488 -18.01362841 124.18785937 -18.01171875 140.79296875 C-18.01353149 141.81350342 -18.01534424 142.83403809 -18.01721191 143.88549805 C-18.00762901 191.58918548 -5.50373059 240.51089343 21.88671875 280.15234375 C23.36328125 282.29296875 23.36328125 282.29296875 23.36328125 283.29296875 C11.46217406 283.38600425 -0.43884536 283.45690327 -12.34024334 283.50021744 C-17.86766676 283.52101517 -23.39483978 283.54918897 -28.92211914 283.59472656 C-34.26490015 283.63846433 -39.60744161 283.66216449 -44.95038795 283.67247772 C-46.97996601 283.67981924 -49.00953224 283.69415433 -51.03900719 283.71588898 C-69.97059477 283.9104138 -85.30736981 281.09930481 -99.88671875 267.85546875 C-111.25331044 255.86554784 -115.02972363 241.20644406 -114.94921875 225.10546875 C-114.9450293 223.94144531 -114.94083984 222.77742187 -114.93652344 221.578125 C-114.15147126 158.77395042 -90.77117397 101.0308988 -51.63671875 52.29296875 C-51.09128418 51.61008789 -50.54584961 50.92720703 -49.98388672 50.22363281 C-46.24165449 45.54666632 -42.45602818 40.90715984 -38.63671875 36.29296875 C-38.15460938 35.7103125 -37.6725 35.12765625 -37.17578125 34.52734375 C-31.35413066 27.51563199 -25.34474655 20.71311584 -19.15234375 14.02734375 C-16.40167836 11.03749006 -13.72342855 7.9937689 -11.07421875 4.9140625 C-10.59984375 4.37910156 -10.12546875 3.84414062 -9.63671875 3.29296875 C-9.24895264 2.77057617 -8.86118652 2.24818359 -8.46166992 1.70996094 C-5.70957667 -0.42691522 -3.43968628 -0.04506139 0 0 Z " fill="#D36A5C" transform="translate(209.63671875,208.70703125)"/>
<path d="M0 0 C1.09070549 -0.00525696 1.09070549 -0.00525696 2.20344543 -0.01062012 C4.60773253 -0.01942477 7.01172552 -0.01359285 9.41601562 -0.00683594 C11.08606015 -0.00818295 12.75610428 -0.01012379 14.42614746 -0.01263428 C17.92655164 -0.01558382 21.42685377 -0.01129337 24.92724609 -0.00195312 C29.41656365 0.00944134 33.90564208 0.00288096 38.39495087 -0.00909805 C41.84358526 -0.01632124 45.29216286 -0.01402661 48.74079895 -0.00884247 C50.39622526 -0.00750724 52.05165671 -0.00914926 53.70707703 -0.01380157 C56.01970095 -0.01887437 58.3319363 -0.01114619 60.64453125 0 C61.96118774 0.00159119 63.27784424 0.00318237 64.63439941 0.00482178 C67.82226562 0.25878906 67.82226562 0.25878906 70.82226562 2.25878906 C72.07514823 8.44048227 70.20439964 14.94430311 68.63500977 20.90600586 C68.40253036 21.82427155 68.17005096 22.74253723 67.93052673 23.68862915 C67.16614651 26.6977375 66.38681677 29.702757 65.60742188 32.70800781 C65.07072419 34.81043748 64.5350498 36.9131286 64.00035095 39.0160675 C62.59454492 44.53493191 61.17635333 50.05053477 59.75506592 55.56542969 C57.48054645 64.40126547 55.22657908 73.24237586 52.96951103 82.08268166 C52.18106005 85.16447242 51.38834679 88.24514022 50.59474182 91.3256073 C50.10942871 93.21698044 49.62415152 95.1083628 49.13891602 96.99975586 C48.91809357 97.85236496 48.69727112 98.70497406 48.46975708 99.5834198 C48.26644272 100.37800598 48.06312836 101.17259216 47.85365295 101.99125671 C47.67759049 102.67459926 47.50152803 103.3579418 47.32013035 104.06199169 C46.7062257 106.77080807 46.27888555 109.51906949 45.82226562 112.25878906 C36.91226563 112.25878906 28.00226563 112.25878906 18.82226562 112.25878906 C17.88125 109.35195312 16.94023437 106.44511719 15.97070312 103.45019531 C15.03779816 100.5736408 14.10413823 97.69733234 13.17041016 94.82104492 C12.53160352 92.85189863 11.8935577 90.88250532 11.25634766 88.9128418 C9.42157057 83.24236932 7.57336835 77.57663202 5.70153809 71.91827393 C5.12944193 70.18788758 4.56004227 68.45660661 3.99377441 66.7243042 C3.23300645 64.40715464 2.45615104 62.09608002 1.67382812 59.78613281 C1.45802094 59.12094131 1.24221375 58.45574982 1.01986694 57.770401 C-0.83714415 52.38563893 -3.4581354 46.89986115 -8.45922852 43.88208008 C-10.58314468 41.87584076 -10.49379965 41.13336268 -10.67944336 38.27807617 C-10.69909794 36.61421008 -10.69573585 34.94997076 -10.67382812 33.28613281 C-10.67528336 32.40727921 -10.67673859 31.5284256 -10.67823792 30.62294006 C-10.67657848 28.76608971 -10.66501211 26.90922567 -10.64428711 25.05249023 C-10.61530618 22.20334791 -10.62368163 19.35606249 -10.63671875 16.50683594 C-10.63048227 14.70409248 -10.62209203 12.90135492 -10.61132812 11.09863281 C-10.61426376 10.24341537 -10.6171994 9.38819794 -10.620224 8.50706482 C-10.58178711 6.11010742 -10.58178711 6.11010742 -10.17773438 2.25878906 C-6.43357382 -0.23731798 -4.47595474 0.00540922 0 0 Z " fill="#D26A5C" transform="translate(260.177734375,19.7412109375)"/>
<path d="M0 0 C1.2852507 -0.00686325 2.5705014 -0.0137265 3.8946991 -0.02079773 C7.4093044 -0.0386998 10.92365963 -0.03756618 14.43829679 -0.03185534 C17.37800527 -0.02875858 20.31766605 -0.03486149 23.25736773 -0.04089409 C30.19619589 -0.05492858 37.1349009 -0.0533876 44.07373047 -0.04199219 C51.2186105 -0.03051725 58.36311489 -0.0445783 65.50794542 -0.07138866 C71.65423954 -0.09358376 77.80041609 -0.10017434 83.94674742 -0.09431225 C87.61235972 -0.09094989 91.27773139 -0.09330908 94.94330978 -0.11056328 C99.03406095 -0.12897918 103.12408707 -0.11480636 107.21484375 -0.09765625 C109.02303337 -0.1121582 109.02303337 -0.1121582 110.86775208 -0.12695312 C118.44402997 -0.06051335 124.43786059 0.65349126 130.07666016 6.22045898 C130.43888672 6.79666992 130.80111328 7.37288086 131.17431641 7.96655273 C131.74472656 8.83473633 131.74472656 8.83473633 132.32666016 9.72045898 C134.70505742 14.11998354 134.9380839 18.53457734 134.23681641 23.40405273 C131.71617643 29.36573236 127.79026503 33.78773648 121.85714722 36.48646545 C116.49582039 37.84531512 111.25960722 37.70734903 105.74902344 37.71044922 C104.49303345 37.71877274 103.23704346 37.72709625 101.94299316 37.735672 C98.50902747 37.75754455 95.07515077 37.76640585 91.64112329 37.77149844 C89.49253832 37.77515004 87.34397639 37.78139418 85.19540024 37.78849983 C77.69080335 37.81296734 70.18627535 37.82604077 62.68164062 37.82958984 C55.7003057 37.83322499 48.71941042 37.86312532 41.73820984 37.90499443 C35.73205353 37.93974549 29.72604264 37.9551391 23.71978652 37.95583588 C20.13791845 37.95662694 16.5564989 37.96528625 12.97473526 37.99383354 C8.9773097 38.02498408 4.98092587 38.01593182 0.98339844 38.00341797 C-0.19400909 38.01825226 -1.37141663 38.03308655 -2.58450317 38.04837036 C-9.59171868 37.98595653 -14.38413637 37.06776827 -19.76318359 32.40405273 C-24.96615225 26.66744627 -25.22822298 22.61489637 -25.17333984 14.97045898 C-24.58563026 9.86018423 -22.73072185 6.64502534 -18.76318359 3.40405273 C-12.88502817 -0.57643381 -6.8301149 -0.02542089 0 0 Z " fill="#FBC950" transform="translate(201.76318359375,151.595947265625)"/>
<path d="M0 0 C2.9375 1.5625 2.9375 1.5625 5 4 C5.8125 7.75 5.8125 7.75 6 11 C6.639375 11.0825 7.27875 11.165 7.9375 11.25 C14.60249988 12.88224487 21.76141071 15.98476169 26.8125 20.6875 C28.5564679 24.08364801 28.68081506 27.3104216 28 31 C26.20636089 33.8100346 24.98119065 35.50940468 22 37 C15.70515968 37.52457003 13.18258293 36.83060477 8 33 C1.78562868 30.17528576 -4.96391885 29.93174922 -11.375 32.1875 C-14.45730005 34.31575479 -16.17296727 35.69728698 -18 39 C-18.60857994 42.45241145 -18.85807382 45.58902334 -18 49 C-14.38085281 53.55693005 -10.18500954 55.68830869 -5 58 C-4.25322998 58.34321289 -3.50645996 58.68642578 -2.73706055 59.04003906 C1.84664419 61.11985045 6.471953 62.99184439 11.1875 64.75 C21.36484063 68.55224432 29.12626557 75.12906551 33.98046875 84.9921875 C38.00923598 95.31944998 36.60858507 105.60008995 32.609375 115.69921875 C28.48033481 124.16775992 22.49165007 130.79096721 14 135 C11.31060786 135.9218216 8.80885618 136.48929888 6 137 C5.98582031 137.60328125 5.97164063 138.2065625 5.95703125 138.828125 C5.71352985 142.90841872 5.55278638 145.31320481 2.9375 148.5625 C-0.88380097 150.43249834 -3.82601256 150.80950059 -8 150 C-10.9375 148.5 -10.9375 148.5 -13 146 C-13.69926312 143.26556811 -13.8576733 140.84653402 -14 138 C-14.9075 138.103125 -15.815 138.20625 -16.75 138.3125 C-25.561184 138.29462742 -34.70459594 132.88145968 -41 127 C-42.75451816 123.49096368 -42.6706258 119.81993716 -42 116 C-39.03533191 112.19914347 -39.03533191 112.19914347 -36 111 C-30.92064197 110.39123799 -27.29445365 111.67272818 -23.1875 114.5625 C-18.2628029 117.58566815 -13.43222637 117.49140637 -7.8125 117.5 C-6.94455811 117.50588135 -6.07661621 117.5117627 -5.18237305 117.51782227 C1.54482207 117.38774375 5.91274843 116.13468911 10.75 111.1875 C14.53770792 105.82158044 15.98997915 100.49999465 15 94 C11.4480807 85.76600525 2.58707507 83.62641209 -5.16772461 80.51342773 C-30.8470523 70.17750544 -30.8470523 70.17750544 -37.4375 58 C-40.65908168 49.89050128 -40.37605036 39.1988102 -37.09765625 31.1171875 C-32.96604285 23.1480257 -28.19692377 16.99451539 -20 13 C-16.4375 12.125 -16.4375 12.125 -14 12 C-14.12375 10.6696875 -14.12375 10.6696875 -14.25 9.3125 C-13.94530814 5.27533282 -12.77959995 3.86135289 -10 1 C-6.78597521 -0.6070124 -3.48595446 -0.46746516 0 0 Z " fill="#082B74" transform="translate(260,279)"/>
<path d="M0 0 C0.98367554 -0.00619858 1.96735107 -0.01239716 2.98083496 -0.01878357 C5.05866507 -0.02588122 7.13655205 -0.0227087 9.21435547 -0.01000977 C12.39526854 0.00385837 15.57324157 -0.03021896 18.75390625 -0.06835938 C20.77343822 -0.06931055 22.79297388 -0.06745185 24.8125 -0.0625 C26.23919006 -0.08238731 26.23919006 -0.08238731 27.69470215 -0.10267639 C34.17718298 -0.01115478 34.17718298 -0.01115478 37.30761719 2.46875 C39.52809531 6.77135024 41.08329339 11.15867147 42.578125 15.7578125 C42.90540588 16.74007309 43.23268677 17.72233368 43.56988525 18.73435974 C44.25716782 20.80456661 44.9393375 22.87647706 45.61669922 24.94995117 C46.65505252 28.12524436 47.71095642 31.2942888 48.76953125 34.46289062 C49.43593957 36.47751963 50.10133898 38.49248271 50.765625 40.5078125 C51.08118347 41.45580215 51.39674194 42.40379181 51.72186279 43.38050842 C52.00926331 44.26500168 52.29666382 45.14949493 52.59277344 46.06079102 C52.97438629 47.22397606 52.97438629 47.22397606 53.3637085 48.41065979 C53.90625 50.56640625 53.90625 50.56640625 53.90625 54.56640625 C36.74625 54.56640625 19.58625 54.56640625 1.90625 54.56640625 C-0.548125 47.24453125 -3.0025 39.92265625 -5.53125 32.37890625 C-6.30525146 30.07510986 -7.07925293 27.77131348 -7.87670898 25.39770508 C-8.4896597 23.56469583 -9.10238643 21.73161166 -9.71484375 19.8984375 C-10.03360474 18.95238647 -10.35236572 18.00633545 -10.68078613 17.03161621 C-10.9852063 16.11859741 -11.28962646 15.20557861 -11.60327148 14.26489258 C-11.86752426 13.47657547 -12.13177704 12.68825836 -12.40403748 11.87605286 C-13.13304891 9.43480563 -13.74407239 7.09200696 -14.09375 4.56640625 C-10.97530677 -0.86814531 -5.56779124 -0.02903453 0 0 Z " fill="#F2AD73" transform="translate(204.09375,77.43359375)"/>
</svg>
