<?xml version="1.0" encoding="UTF-8"?>
<svg version="1.1" xmlns="http://www.w3.org/2000/svg" width="512" height="512">
<path d="M0 0 C4.98726803 4.7668363 4.98726803 4.7668363 5.1809082 9.28955078 C5.19570238 10.70862682 5.20675015 12.12774492 5.21484375 13.546875 C5.23806051 15.09897162 5.26217857 16.65105497 5.28710938 18.203125 C5.32207401 20.64527015 5.35148159 23.0869331 5.36499023 25.52929688 C5.1262824 38.98404129 5.1262824 38.98404129 11.41479492 50.47265625 C15.31902669 54.06345596 19.11571266 55.93834878 24.4296875 56.0078125 C31.36532819 55.59250467 35.50453937 53.72229589 40.2890625 48.5390625 C43.75935177 43.4575675 44.32087586 39.09968553 44.3125 33.04296875 C44.3327862 31.49152921 44.35363693 29.94009696 44.375 28.38867188 C44.39758725 25.96176967 44.41407191 23.5351568 44.41992188 21.1081543 C44.42947896 18.75257107 44.46328449 16.39826388 44.5 14.04296875 C44.49495453 13.32403946 44.48990906 12.60511017 44.48471069 11.86439514 C44.58303951 6.79247211 45.84475274 3.88424076 49.0390625 -0.0234375 C58.18697976 -4.59739613 71.39859305 1.1060078 80.36865234 4.04833984 C118.28199096 17.2268472 147.73703001 44.58849095 166.0390625 79.9765625 C166.35327148 80.57903809 166.66748047 81.18151367 166.99121094 81.80224609 C176.18109931 99.67692226 180.88078929 118.55819359 184.6796875 138.19921875 C188.14597206 156.24050354 188.14597206 156.24050354 199.69140625 170.11328125 C209.5707833 176.72262607 218.18542276 178.41348091 229.95703125 178.3828125 C231.1730452 178.39364868 232.38905914 178.40448486 233.641922 178.41564941 C238.81292032 178.46131293 243.98386544 178.47300995 249.1550293 178.48779297 C252.94337791 178.50348562 256.7313083 178.5364749 260.51953125 178.5703125 C261.68526169 178.56729126 262.85099213 178.56427002 264.05204773 178.56115723 C274.36004645 178.65663116 274.36004645 178.65663116 279.0390625 181.9765625 C281.56474241 185.76508236 281.38351929 188.8338738 281.3515625 193.2265625 C281.34310303 194.4338501 281.34310303 194.4338501 281.33447266 195.66552734 C280.78176358 223.40495622 267.28947076 247.57193478 247.75 266.5703125 C231.48593707 281.006426 211.52214276 289.43140645 190.0390625 291.9765625 C190.02693222 292.93709785 190.02693222 292.93709785 190.01455688 293.91703796 C189.92847128 300.58446039 189.82896557 307.25158688 189.72167969 313.91870117 C189.68340672 316.40660633 189.64855093 318.89456651 189.6171875 321.38256836 C189.57150108 324.95967262 189.51351142 328.53639867 189.453125 332.11328125 C189.44157379 333.22491135 189.43002258 334.33654144 189.41812134 335.4818573 C189.39825165 336.52255875 189.37838196 337.56326019 189.35791016 338.63549805 C189.34458649 339.5481694 189.33126282 340.46084076 189.3175354 341.40116882 C188.88213173 345.42790127 187.87075355 347.99640293 185.24116707 351.09540749 C180.20545574 354.05375985 175.25033713 353.53037713 169.51281738 353.4912262 C167.58222245 353.50164449 167.58222245 353.50164449 165.6126256 353.51227325 C162.04194743 353.53092177 158.47168338 353.52458829 154.90098786 353.51412022 C151.04950982 353.50713444 147.19811738 353.52312133 143.34666443 353.53611755 C135.80239986 353.55777283 128.25828603 353.55762685 120.71400058 353.54949201 C114.58333114 353.54319549 108.45270571 353.54432584 102.32203674 353.55076408 C101.44991902 353.55166574 100.57780129 353.55256739 99.67925575 353.55349637 C97.90763707 353.55534755 96.13601839 353.55721011 94.36439973 353.55908393 C77.74685942 353.57566754 61.12940399 353.56693823 44.51186877 353.55009835 C29.30298667 353.53539891 14.09430208 353.55003221 -1.11455458 353.57886852 C-16.72587992 353.60824784 -32.33711405 353.61923921 -47.94846582 353.60968632 C-49.71361445 353.60866375 -51.47876309 353.60766914 -53.24391174 353.6067028 C-54.5466861 353.60598822 -54.5466861 353.60598822 -55.87577912 353.6052592 C-62.00002046 353.60309324 -68.12417561 353.61290874 -74.24839783 353.62747383 C-81.7105128 353.64497304 -89.17237587 353.64491458 -96.63448083 353.62212218 C-100.44279046 353.61095817 -104.25065586 353.60786568 -108.05894661 353.62642288 C-112.18456299 353.64626797 -116.30909132 353.6274922 -120.43469238 353.60475159 C-121.64236629 353.61658732 -122.8500402 353.62842304 -124.09431028 353.64061743 C-133.0998089 353.53930192 -133.0998089 353.53930192 -136.19384861 350.56141186 C-138.93881696 346.54614713 -139.08491839 343.5365445 -139.16625977 338.74902344 C-139.1961776 337.18785797 -139.1961776 337.18785797 -139.22669983 335.59515381 C-139.24341232 334.47836243 -139.26012482 333.36157104 -139.27734375 332.2109375 C-139.29812485 331.06240295 -139.31890594 329.91386841 -139.34031677 328.73052979 C-139.40568743 325.06260139 -139.46463944 321.39460157 -139.5234375 317.7265625 C-139.56663457 315.23957596 -139.61024925 312.75259663 -139.65429688 310.265625 C-139.76135608 304.16934628 -139.86314575 298.07299655 -139.9609375 291.9765625 C-141.04632813 291.77957764 -142.13171875 291.58259277 -143.25 291.37963867 C-144.69533957 291.11391675 -146.14065057 290.84803935 -147.5859375 290.58203125 C-148.65521484 290.38861145 -148.65521484 290.38861145 -149.74609375 290.19128418 C-175.14643879 285.49425937 -197.55594597 270.68635847 -212.6484375 249.7890625 C-223.7385906 232.98519904 -230.99023292 214.73206347 -231.3359375 194.4140625 C-231.37332031 193.57681641 -231.41070312 192.73957031 -231.44921875 191.87695312 C-231.51259623 187.42996674 -231.42548359 185.57860802 -228.625 181.94921875 C-224.86867297 179.16777425 -222.20131415 178.85128358 -217.65429688 178.8347168 C-216.56886597 178.82768234 -215.48343506 178.82064789 -214.3651123 178.81340027 C-213.19017212 178.80923599 -212.01523193 178.80507172 -210.8046875 178.80078125 C-208.31249168 178.7775693 -205.82030417 178.75345142 -203.328125 178.72851562 C-199.40261389 178.69351013 -195.47740546 178.66411907 -191.55175781 178.65063477 C-187.76069365 178.63506621 -183.97051489 178.59478315 -180.1796875 178.55078125 C-179.02094116 178.55268967 -177.86219482 178.55459808 -176.66833496 178.55656433 C-164.4007903 178.37441548 -154.62967562 174.80774716 -145.9609375 165.9765625 C-139.15608688 157.28788317 -136.26783354 148.39170224 -134.37768555 137.66796875 C-126.4396534 92.73706122 -104.88453475 50.76666807 -67.21875 23.859375 C-53.68771575 14.52439752 -16.86513071 -8.80212001 0 0 Z " fill="#062A75" transform="translate(230.9609375,1.0234375)"/>
<path d="M0 0 C29.86872538 6.94234568 56.83424692 26.87235948 73.33984375 52.6171875 C87.64951829 75.84186892 94.97381197 99.65525733 99.796875 126.36328125 C102.79294508 142.6585735 109.16635096 156.18543679 123 166 C139.47034432 176.56143653 155.92687882 177.4480524 175 177.6875 C176.85418919 177.72077283 178.70835681 177.75527114 180.5625 177.79101562 C185.04154464 177.87475495 189.52055008 177.94208711 194 178 C193.57203906 184.26292085 192.78127492 189.89077319 190.5 195.75 C190.10905151 196.76634521 190.10905151 196.76634521 189.71020508 197.80322266 C181.13048223 219.02870017 164.63161902 234.63286441 144 244 C135.78491623 247.25786751 128.09550432 249.05261972 119.24560547 249.28808594 C118.597202 249.30590118 117.94879852 249.32371643 117.28074646 249.34207153 C111.25026429 249.49776407 105.21825096 249.58447328 99.1862011 249.65206528 C95.16169255 249.6977144 91.14019894 249.76388972 87.1171875 249.88476562 C64.38933246 250.55001917 47.63017279 248.06510206 27 238 C24.70351918 236.93690459 22.40476592 235.87870423 20.10375977 234.82543945 C-3.95859205 223.78293814 -28.40353378 210.81729811 -49 194 C-49 193.67 -49 193.34 -49 193 C-47.99582031 192.98582031 -46.99164063 192.97164062 -45.95703125 192.95703125 C-34.41977027 192.61965957 -24.92569838 190.2058297 -15 184 C-14.46109131 184.42410156 -13.92218262 184.84820312 -13.36694336 185.28515625 C-10.9036977 187.20779251 -8.42117556 189.10384092 -5.9375 191 C-5.08994141 191.66773438 -4.24238281 192.33546875 -3.36914062 193.0234375 C1.76541346 197.10125694 1.76541346 197.10125694 7.9765625 198.484375 C10.83765268 198.02600913 12.67908983 197.71919272 15 196 C17.30712385 192.77002661 17.54403353 189.88595382 17 186 C13.39591029 181.00122423 9.19642785 177.65281904 4.1875 174.125 C3.49462891 173.62742188 2.80175781 173.12984375 2.08789062 172.6171875 C0.39697331 171.40439164 -1.30081492 170.20118492 -3 169 C-2.12480637 161.49834034 -2.12480637 161.49834034 -1.44921875 158.80078125 C0.1554895 152.36799428 -1.17437445 146.20712688 -3 140 C-3.05078125 137.6796875 -3.05078125 137.6796875 -2 135 C0.42480551 132.69683897 3.12822314 130.83635879 5.875 128.9375 C7.33446333 127.91023275 8.7903284 126.87783044 10.2421875 125.83984375 C10.8904248 125.38988037 11.53866211 124.93991699 12.20654297 124.47631836 C15.49284121 121.77113928 16.88253373 119.80758063 17.5 115.5625 C17.25511122 111.90906618 17.25511122 111.90906618 15 109.0625 C11.89547548 106.92813939 10.04711274 106.39103187 6.3046875 106.48999023 C1.46694151 107.56054652 -2.19775213 110.97455545 -6 114 C-6.87011719 114.66773438 -7.74023438 115.33546875 -8.63671875 116.0234375 C-10.77164043 117.66568495 -12.89132936 119.32426898 -15 121 C-15.78503906 120.59007812 -16.57007813 120.18015625 -17.37890625 119.7578125 C-18.95478516 118.94957031 -18.95478516 118.94957031 -20.5625 118.125 C-21.59503906 117.59132813 -22.62757813 117.05765625 -23.69140625 116.5078125 C-33.56710026 112.00720106 -44.6729556 111.12697614 -55 114.75 C-59.22570635 116.45653526 -63.0707464 118.7079354 -67 121 C-67.49927002 120.61142822 -67.99854004 120.22285645 -68.51293945 119.82250977 C-70.77617942 118.06490123 -73.04425854 116.31364842 -75.3125 114.5625 C-76.09818359 113.95083984 -76.88386719 113.33917969 -77.69335938 112.70898438 C-78.8293457 111.8340332 -78.8293457 111.8340332 -79.98828125 110.94140625 C-80.68477783 110.40201416 -81.38127441 109.86262207 -82.09887695 109.30688477 C-85.93241097 106.67160705 -89.46933063 106.53131007 -94 107 C-97.1866503 108.7698823 -97.1866503 108.7698823 -99 112 C-99.57663479 115.31720013 -99.22712092 117.87003078 -98 121 C-95.71025214 123.86973676 -92.97271277 125.87127508 -90 128 C-89.01773438 128.72960937 -88.03546875 129.45921875 -87.0234375 130.2109375 C-84.36686331 132.16732935 -81.69295333 134.09414149 -79 136 C-79.144375 136.67804688 -79.28875 137.35609375 -79.4375 138.0546875 C-81.53941599 148.59346075 -81.23513122 157.50286589 -79 168 C-82.43930583 166.51873643 -84.66954338 164.57572554 -87.30078125 161.9296875 C-88.11353516 161.115 -88.92628906 160.3003125 -89.76367188 159.4609375 C-90.60478516 158.60757813 -91.44589844 157.75421875 -92.3125 156.875 C-93.14201172 156.04484375 -93.97152344 155.2146875 -94.82617188 154.359375 C-99.7519049 149.39865255 -104.46391337 144.31787292 -109 139 C-109.88896941 137.97885881 -110.77826819 136.95800422 -111.66796875 135.9375 C-127.3682292 117.63270022 -140.87913186 97.82975961 -153 77 C-153.63421875 75.96746094 -154.2684375 74.93492188 -154.921875 73.87109375 C-155.48390625 72.92363281 -156.0459375 71.97617188 -156.625 71 C-157.11226562 70.195625 -157.59953125 69.39125 -158.1015625 68.5625 C-159.35944123 64.9748111 -158.91234232 62.66946492 -158 59 C-142.98899498 31.29560357 -116.45528004 13.01797104 -87.91259766 1.55981445 C-86 1 -86 1 -82 1 C-81.98582031 2.29292969 -81.97164063 3.58585937 -81.95703125 4.91796875 C-81.63372655 19.19703035 -79.68215667 31.74591672 -70 43 C-60.06755497 52.20970995 -49.8346271 54.58451659 -36.62890625 54.33984375 C-26.79470098 53.85724479 -17.84084836 48.97684932 -11 42 C-8.58216417 38.83571821 -6.74244753 35.57520483 -5 32 C-4.5978125 31.22527344 -4.195625 30.45054688 -3.78125 29.65234375 C0.33315726 20.38023311 -0.16108172 9.97179146 0 0 Z " fill="#BB99F3" transform="translate(297,23)"/>
<path d="M0 0 C0.28649414 0.57693604 0.57298828 1.15387207 0.86816406 1.74829102 C15.07434055 30.01049242 33.45838786 56.18238738 54.765625 79.546875 C56.22598751 81.15021007 57.6745036 82.76443741 59.109375 84.390625 C63.56905533 89.43624873 68.18786129 94.29127203 72.9375 99.0625 C73.5056543 99.63524658 74.07380859 100.20799316 74.65917969 100.7980957 C77.55377904 103.76264737 77.55377904 103.76264737 81 106 C80.7834375 105.32195312 80.566875 104.64390625 80.34375 103.9453125 C77.17203646 93.34356632 77.7121353 84.74479313 80 74 C79.53102295 73.65219482 79.0620459 73.30438965 78.57885742 72.94604492 C76.44650114 71.36240831 74.31698227 69.77499882 72.1875 68.1875 C71.44951172 67.64029297 70.71152344 67.09308594 69.95117188 66.52929688 C69.23896484 65.99755859 68.52675781 65.46582031 67.79296875 64.91796875 C67.1383667 64.43094482 66.48376465 63.9439209 65.80932617 63.44213867 C62.38650032 60.71394649 60.61604802 59.06854983 60.0625 54.625 C59.75992427 51.0522789 59.87759866 50.20259532 61.8125 47 C64.54726728 44.49964135 65.46744008 44.05221176 69.1875 43.6875 C76.21096695 44.26319401 81.55662725 48.99966653 86.9375 53.25 C87.52595703 53.70890625 88.11441406 54.1678125 88.72070312 54.640625 C90.15028342 55.75639498 91.57560423 56.87761898 93 58 C93.96421875 57.50628906 94.9284375 57.01257813 95.921875 56.50390625 C97.19780852 55.85655763 98.47385621 55.20943401 99.75 54.5625 C100.38421875 54.23701172 101.0184375 53.91152344 101.671875 53.57617188 C111.33355859 48.69500881 122.18755721 48.42970592 132.5 51.75 C136.97900873 53.37171006 140.90841503 55.58961083 145 58 C145.53367187 57.57589844 146.06734375 57.15179688 146.6171875 56.71484375 C149.06289563 54.78958908 151.53073549 52.89493188 154 51 C155.25876953 49.99839844 155.25876953 49.99839844 156.54296875 48.9765625 C163.67423544 43.55901106 163.67423544 43.55901106 168.44140625 43.41015625 C172.82404657 44.1365873 174.25644308 45.59133837 177 49 C177.33 49.33 177.66 49.66 178 50 C178.6220376 54.44312573 178.31834778 56.50375199 175.875 60.3125 C170.74970509 65.76123586 164.15278059 69.81105212 158 74 C158.144375 75.258125 158.28875 76.51625 158.4375 77.8125 C158.51871094 78.52019531 158.59992188 79.22789062 158.68359375 79.95703125 C158.97170735 82.19396393 158.97170735 82.19396393 160 85 C160.48820258 91.3920477 159.69398334 96.85931039 158 103 C157.54035752 106.85682191 157.54035752 106.85682191 159.40527344 108.47631836 C160.05012695 108.92628174 160.69498047 109.37624512 161.359375 109.83984375 C162.06320312 110.34580078 162.76703125 110.85175781 163.4921875 111.37304688 C164.23726563 111.88931641 164.98234375 112.40558594 165.75 112.9375 C175.01835632 119.44663717 175.01835632 119.44663717 178 124 C178.52022372 127.56724837 178.24128949 129.46916312 176.75 132.75 C174.07631227 136.1875985 172.24297476 136.80221747 167.98046875 137.48046875 C162.33248839 137.42388607 158.29550154 133.33489703 154.0625 130 C153.18787109 129.33226562 152.31324219 128.66453125 151.41210938 127.9765625 C149.26279855 126.33228099 147.12656393 124.67352856 145 123 C144.20335937 123.40992188 143.40671875 123.81984375 142.5859375 124.2421875 C141.52632813 124.78101563 140.46671875 125.31984375 139.375 125.875 C138.33085937 126.40867187 137.28671875 126.94234375 136.2109375 127.4921875 C130.48335066 130.18178424 125.42721051 131.33187393 119.125 131.625 C118.43664062 131.66367188 117.74828125 131.70234375 117.0390625 131.7421875 C115.35976754 131.83548166 113.67992233 131.91878238 112 132 C138.42454713 150.45825832 165.99676317 166.94226183 196.09130859 178.79638672 C199 180 199 180 202.03759766 181.58251953 C216.01716305 188.12445097 231.58639335 186.90415711 246.69372559 186.87554932 C250.56939685 186.8746262 254.44477784 186.90763807 258.3203125 186.9375 C265.88031693 186.99089826 273.43978403 187.00760101 281 187 C281 187.33 281 187.66 281 188 C240.34480772 188.04581502 199.68961881 188.08103828 159.03440585 188.10213066 C154.23061948 188.10463196 149.42683317 188.10722062 144.62304688 188.10986328 C143.18857438 188.11065021 143.18857438 188.11065021 141.72512265 188.11145304 C126.25694157 188.1201468 110.78877541 188.1359111 95.32060318 188.15430559 C79.43934223 188.17303329 63.55808907 188.18412279 47.67681754 188.18817699 C37.8835913 188.1909161 28.09040726 188.19955574 18.29719402 188.21583293 C11.5742968 188.22643526 4.85142127 188.22959329 -1.8714837 188.22700275 C-5.74555674 188.22572651 -9.61955626 188.22763127 -13.4936161 188.23841095 C-17.04966668 188.24823281 -20.60559514 188.2485778 -24.16165166 188.24179779 C-26.03820591 188.24056916 -27.91475899 188.24911449 -29.79129183 188.25816262 C-55.23580384 188.169752 -76.42822213 179.95634684 -94.875 162.5 C-105.14169795 151.60111622 -114.19844084 135.84990636 -115.5703125 120.734375 C-115.6943042 119.39971191 -115.6943042 119.39971191 -115.82080078 118.03808594 C-115.87993652 117.36551758 -115.93907227 116.69294922 -116 116 C-114.76137207 116.00112793 -113.52274414 116.00225586 -112.24658203 116.00341797 C-107.56059276 115.99968996 -102.87559766 115.95638303 -98.18994141 115.90234375 C-96.17893979 115.88440268 -94.16781721 115.87657457 -92.15673828 115.87988281 C-71.08889949 115.9009191 -54.52507955 112.03396053 -38.484375 97.76171875 C-25.93844874 85.06643622 -22.34445875 68.94061699 -19 52 C-15.2895701 33.64641497 -8.87217667 16.4967035 0 0 Z " fill="#6763F6" transform="translate(137,85)"/>
<path d="M0 0 C1.59104454 0.26514549 3.18221981 0.52950753 4.77351379 0.79315186 C9.06362591 1.5062328 13.35181903 2.23028576 17.63972354 2.95650744 C22.13711368 3.71634657 26.63616272 4.46623641 31.13502502 5.21730042 C38.6802042 6.47834828 46.22426754 7.74589077 53.76757812 9.01806641 C64.40724069 10.81242401 75.04891536 12.59461481 85.69099319 14.37458313 C93.96180425 15.75842657 102.23202283 17.14580521 110.50219727 18.53344727 C111.83155182 18.75640854 111.83155182 18.75640854 113.18776202 18.98387408 C118.2773128 19.83765227 123.3665665 20.69316246 128.45536613 21.55140686 C129.99682068 21.81115487 131.53836534 22.07036874 133.08000565 22.32901192 C135.18241393 22.68186093 137.28447738 23.03669603 139.38645935 23.39207458 C141.15146365 23.68935282 141.15146365 23.68935282 142.9521246 23.99263668 C145.31902713 24.42362473 147.62235166 24.91197034 149.94360352 25.53735352 C149.92040039 24.22379883 149.89719727 22.91024414 149.87329102 21.55688477 C149.854527 19.82121338 149.83632748 18.08553583 149.81860352 16.34985352 C149.8018457 15.48553711 149.78508789 14.6212207 149.76782227 13.73071289 C149.72413926 8.03008057 149.92267548 3.98296141 153.68007755 -0.56402493 C156.47347214 -2.90709467 157.7960013 -2.96680146 161.40220642 -2.97731018 C162.51114761 -2.99003464 163.62008881 -3.00275909 164.76263428 -3.01586914 C165.97469543 -3.00934326 167.18675659 -3.00281738 168.43554688 -2.99609375 C170.35558281 -3.00901711 170.35558281 -3.00901711 172.31440735 -3.02220154 C175.8227942 -3.04470356 179.3307301 -3.04175408 182.83916163 -3.03288007 C185.7691242 -3.02776955 188.69900206 -3.03506328 191.6289559 -3.04235214 C198.54177508 -3.05935394 205.45437353 -3.05578291 212.3671875 -3.0390625 C219.49626514 -3.02214183 226.62473045 -3.03797369 233.7537412 -3.07028538 C239.87703763 -3.09698621 246.00014351 -3.10425599 252.1234923 -3.0957703 C255.77958391 -3.09084226 259.43530713 -3.09304932 263.09135246 -3.11355782 C267.16871199 -3.13533466 271.2449116 -3.11651115 275.32226562 -3.09375 C276.53230255 -3.1054422 277.74233948 -3.1171344 278.98904419 -3.12918091 C288.09096802 -3.02558365 288.09096802 -3.02558365 291.16993713 -0.04820251 C293.37697336 3.16909691 294.06883983 4.74309883 294.07299805 8.57226562 C294.07615021 9.40330307 294.07930237 10.23434052 294.08255005 11.09056091 C294.0795137 12.43900841 294.0795137 12.43900841 294.07641602 13.81469727 C294.0778511 15.19813072 294.0778511 15.19813072 294.07931519 16.60951233 C294.07999641 18.56226672 294.07814612 20.51502338 294.07397461 22.46777344 C294.06863162 25.45911752 294.07391841 28.45031104 294.08032227 31.44165039 C294.07966135 33.33683301 294.07837992 35.23201554 294.07641602 37.12719727 C294.07844025 38.02413803 294.08046448 38.9210788 294.08255005 39.84519958 C294.07939789 40.67938919 294.07624573 41.5135788 294.07299805 42.37304688 C294.07180466 43.47319374 294.07180466 43.47319374 294.07058716 44.5955658 C293.94360352 46.53735352 293.94360352 46.53735352 292.94360352 49.53735352 C294.05348633 49.68430664 295.16336914 49.83125977 296.30688477 49.98266602 C307.58699098 51.51451769 318.83968148 53.24590194 330.07284546 55.08929443 C331.6486539 55.34556995 333.22534801 55.59645979 334.80288696 55.84185791 C337.05042721 56.19289643 339.29383542 56.56391309 341.53735352 56.93969727 C342.21058151 57.040793 342.88380951 57.14188873 343.57743835 57.24604797 C348.02412343 58.02009938 350.70121065 59.40995249 353.94360352 62.53735352 C355.54049392 65.73113433 355.31709308 69.06256667 354.94360352 72.53735352 C353.69181202 75.41647395 352.80319847 76.9886084 350.15722656 78.67773438 C339.39186426 82.85826163 320.62799622 76.31728555 309.63110352 74.47485352 C307.32975577 74.09348361 305.02832408 73.7126199 302.72680664 73.33227539 C297.13142377 72.40647249 291.53711191 71.47441145 285.94360352 70.53735352 C285.6479248 71.30845459 285.35224609 72.07955566 285.04760742 72.87402344 C278.61033141 88.40348915 263.67921473 99.13588327 248.70922852 105.47094727 C247.79657227 105.82286133 246.88391602 106.17477539 245.94360352 106.53735352 C245.11344727 106.85833008 244.28329102 107.17930664 243.42797852 107.51000977 C225.30870281 113.20539614 204.59380856 110.42730308 187.94921875 101.99536133 C173.48318567 94.19275449 162.80129643 82.51433084 156.00610352 67.53735352 C155.72331543 66.92158447 155.44052734 66.30581543 155.14916992 65.67138672 C153.4293948 61.59787394 152.55008998 57.63993829 151.85546875 53.27172852 C151.68256821 52.19632812 151.50966766 51.12092773 151.33152771 50.01293945 C151.20351273 49.19599609 151.07549774 48.37905273 150.94360352 47.53735352 C150.16461197 47.41680099 149.38562042 47.29624847 148.58302307 47.17204285 C117.72553283 42.38030217 86.91316281 37.30968686 56.10632896 32.20407295 C47.33033077 30.7497998 38.55321348 29.30268196 29.7745685 27.86446983 C23.51352953 26.83810757 17.25384837 25.80371963 10.99512106 24.76335496 C7.28686069 24.14717201 3.57810135 23.53450979 -0.1321888 22.93065834 C-4.23137451 22.26333614 -8.32762865 21.57945679 -12.42382812 20.89404297 C-14.24291687 20.60176064 -14.24291687 20.60176064 -16.09875488 20.30357361 C-17.21186539 20.11459503 -18.32497589 19.92561646 -19.47181702 19.73091125 C-20.91736009 19.49233383 -20.91736009 19.49233383 -22.39210606 19.24893665 C-26.1742229 18.23880257 -29.01485577 16.50706383 -31.86889648 13.84985352 C-33.61286438 10.4537055 -33.73721155 7.22693191 -33.05639648 3.53735352 C-26.10336555 -7.35572828 -10.83753824 -1.85225469 0 0 Z " fill="#052A75" transform="translate(95.056396484375,402.462646484375)"/>
<path d="M0 0 C94.38 0 188.76 0 286 0 C286 13.53 286 27.06 286 41 C191.62 41 97.24 41 0 41 C0 27.47 0 13.94 0 0 Z " fill="#FB7C9F" transform="translate(113,293)"/>
<path d="M0 0 C5.06854501 2.59418439 9.47954612 5.72867707 13.9375 9.25 C14.52595703 9.70890625 15.11441406 10.1678125 15.72070312 10.640625 C17.15028342 11.75639498 18.57560423 12.87761898 20 14 C20.96421875 13.50628906 21.9284375 13.01257813 22.921875 12.50390625 C24.19780852 11.85655763 25.47385621 11.20943401 26.75 10.5625 C27.38421875 10.23701172 28.0184375 9.91152344 28.671875 9.57617188 C38.33355859 4.69500881 49.18755721 4.42970592 59.5 7.75 C63.97900873 9.37171006 67.90841503 11.58961083 72 14 C72.53367187 13.57589844 73.06734375 13.15179688 73.6171875 12.71484375 C76.06289563 10.78958908 78.53073549 8.89493188 81 7 C81.83917969 6.33226562 82.67835938 5.66453125 83.54296875 4.9765625 C90.67423544 -0.44098894 90.67423544 -0.44098894 95.44140625 -0.58984375 C99.82404657 0.1365873 101.25644308 1.59133837 104 5 C104.495 5.495 104.495 5.495 105 6 C105.6220376 10.44312573 105.31834778 12.50375199 102.875 16.3125 C97.74970509 21.76123586 91.15278059 25.81105212 85 30 C85.2165625 31.8871875 85.2165625 31.8871875 85.4375 33.8125 C85.51871094 34.52019531 85.59992188 35.22789062 85.68359375 35.95703125 C85.97170735 38.19396393 85.97170735 38.19396393 87 41 C87.48820258 47.3920477 86.69398334 52.85931039 85 59 C84.54035752 62.85682191 84.54035752 62.85682191 86.40527344 64.47631836 C87.05012695 64.92628174 87.69498047 65.37624512 88.359375 65.83984375 C89.06320312 66.34580078 89.76703125 66.85175781 90.4921875 67.37304688 C91.23726563 67.88931641 91.98234375 68.40558594 92.75 68.9375 C102.01835632 75.44663717 102.01835632 75.44663717 105 80 C105.52022372 83.56724837 105.24128949 85.46916312 103.75 88.75 C101.07631227 92.1875985 99.24297476 92.80221747 94.98046875 93.48046875 C89.33248839 93.42388607 85.29550154 89.33489703 81.0625 86 C80.18787109 85.33226562 79.31324219 84.66453125 78.41210938 83.9765625 C76.26279855 82.33228099 74.12656393 80.67352856 72 79 C71.20335937 79.40992188 70.40671875 79.81984375 69.5859375 80.2421875 C68.52632813 80.78101563 67.46671875 81.31984375 66.375 81.875 C65.33085937 82.40867187 64.28671875 82.94234375 63.2109375 83.4921875 C53.77268394 87.92426277 43.38116963 88.44545108 33.2421875 85.84375 C28.56884367 84.08513978 24.28215849 81.54528299 20 79 C19.46632812 79.42410156 18.93265625 79.84820312 18.3828125 80.28515625 C15.93710437 82.21041092 13.46926451 84.10506812 11 86 C10.16082031 86.66773438 9.32164062 87.33546875 8.45703125 88.0234375 C1.32588723 93.44089574 1.32588723 93.44089574 -3.44140625 93.5859375 C-7.8419014 92.86137738 -9.28146834 91.45994938 -12 88 C-13.47896861 85.04206277 -13.4355582 83.29779776 -13 80 C-8.11332511 72.52626194 -0.2698643 67.94948296 7 63 C6.52173399 58.90057703 6.00634896 54.99914327 5 51 C4.44855074 43.80551076 5.50463686 37.02286618 7 30 C6.53102295 29.65219482 6.0620459 29.30438965 5.57885742 28.94604492 C3.44650114 27.36240831 1.31698227 25.77499882 -0.8125 24.1875 C-1.55048828 23.64029297 -2.28847656 23.09308594 -3.04882812 22.52929688 C-3.76103516 21.99755859 -4.47324219 21.46582031 -5.20703125 20.91796875 C-5.8616333 20.43094482 -6.51623535 19.9439209 -7.19067383 19.44213867 C-10.61349968 16.71394649 -12.38395198 15.06854983 -12.9375 10.625 C-13.24007573 7.0522789 -13.12240134 6.20259532 -11.1875 3 C-7.47446539 -0.3947745 -4.99760447 -0.40963971 0 0 Z " fill="#072B76" transform="translate(210,129)"/>
<path d="M0 0 C33.66 0 67.32 0 102 0 C102 42.79744264 102 42.79744264 87.20703125 58.04296875 C75.89582364 68.07290683 61.90094921 73.22355277 46.85546875 72.4140625 C30.83898257 70.69395355 18.56132486 62.4663317 8.5078125 50.17578125 C7.1155681 48.18253695 6.05405764 46.19200222 5 44 C4.30197266 42.60587891 4.30197266 42.60587891 3.58984375 41.18359375 C-2.26080503 27.11922077 0 16.59198179 0 0 Z " fill="#6763F6" transform="translate(266,420)"/>
<path d="M0 0 C1.58942142 0.26514833 3.1789742 0.52951028 4.76864624 0.79315186 C9.05468961 1.50626206 13.33881581 2.23032569 17.62266111 2.95650744 C22.11689683 3.71644564 26.61281494 4.46629912 31.10855103 5.21730042 C38.64952441 6.47840804 46.1894002 7.74590053 53.72851562 9.01806641 C64.35819249 10.81173792 74.98969447 12.59439221 85.62163615 14.37458313 C99.8681988 16.76049745 114.11417191 19.14997359 128.35812759 21.55140686 C129.89759798 21.81086689 131.43711086 22.07007492 132.97666931 22.32901192 C135.07859819 22.68261582 137.18035888 23.03720252 139.28207397 23.39207458 C140.45782171 23.59026008 141.63356945 23.78844557 142.84494591 23.99263668 C145.5571926 24.46699653 148.25952619 24.99736422 150.95947266 25.53735352 C150.95947266 32.79735352 150.95947266 40.05735352 150.95947266 47.53735352 C119.31400771 42.6300807 87.71468152 37.43989249 56.1221981 32.20407295 C47.34619991 30.7497998 38.56908262 29.30268196 29.79043764 27.86446983 C23.52939867 26.83810757 17.26971751 25.80371963 11.0109902 24.76335496 C7.30272983 24.14717201 3.59397049 23.53450979 -0.11631966 22.93065834 C-4.21550537 22.26333614 -8.31175951 21.57945679 -12.40795898 20.89404297 C-14.22704773 20.60176064 -14.22704773 20.60176064 -16.08288574 20.30357361 C-17.19599625 20.11459503 -18.30910675 19.92561646 -19.45594788 19.73091125 C-20.90149095 19.49233383 -20.90149095 19.49233383 -22.37623692 19.24893665 C-26.15835376 18.23880257 -28.99898663 16.50706383 -31.85302734 13.84985352 C-33.59699524 10.4537055 -33.7213424 7.22693191 -33.04052734 3.53735352 C-26.08919846 -7.35306174 -10.83467075 -1.85373848 0 0 Z " fill="#6763F7" transform="translate(95.04052734375,402.462646484375)"/>
<path d="M0 0 C11.53612475 1.33506238 22.99550486 3.00893105 34.44946289 4.921875 C36.29342521 5.2270372 38.13852241 5.52541046 39.98461914 5.81738281 C42.69423934 6.24620594 45.39987196 6.69500312 48.10546875 7.1484375 C49.33670723 7.33773331 49.33670723 7.33773331 50.59281921 7.53085327 C55.40291793 8.3653787 58.43599574 9.43122581 62 13 C63.59689041 16.19378082 63.37348957 19.52521315 63 23 C61.74869265 25.87800692 60.85965401 27.45061652 58.21557617 29.14038086 C47.54740025 33.27951556 29.07607919 26.80171433 18.1875 24.9375 C15.9343345 24.55611029 13.68107991 24.17524646 11.42773438 23.79492188 C5.95078059 22.86934495 0.47496411 21.93727055 -5 21 C-4.28913046 16.54257338 -3.25197667 12.57545561 -1.71875 8.34375 C-0.87404486 5.58927672 -0.45331766 2.84247682 0 0 Z " fill="#6763F6" transform="translate(387,452)"/>
<path d="M0 0 C6.3343712 2.84375432 10.45183379 7.38232853 13.15234375 13.72265625 C14.28823677 21.0428557 13.34893818 26.49147953 9.10546875 32.625 C5.3708368 37.25132778 0.98592629 39.88315275 -4.8984375 40.71875 C-11.71495733 40.8864502 -16.08130488 39.85027942 -21.28515625 35.34765625 C-26.8968018 29.29298606 -27.7434347 24.68313447 -27.59765625 16.546875 C-27.03179562 10.75387683 -24.62808484 7.36001975 -20.28515625 3.53515625 C-13.91635016 -1.10876486 -7.73804864 -2.20898141 0 0 Z " fill="#FBFBFD" transform="translate(263.28515625,155.65234375)"/>
</svg>
