<?xml version="1.0" encoding="UTF-8"?>
<svg version="1.1" xmlns="http://www.w3.org/2000/svg" width="512" height="512">
<path d="M0 0 C0.79187714 -0.00807175 1.58375427 -0.01614349 2.39962769 -0.02445984 C4.0756412 -0.03827059 5.75168248 -0.04900616 7.42773438 -0.05688477 C9.12671257 -0.06836872 10.8256557 -0.08876346 12.52441406 -0.1184082 C31.86433493 -0.45555719 31.86433493 -0.45555719 38.8671875 4.23828125 C42.52787243 8.02423154 44.58119965 11.09432987 45.8671875 16.23828125 C88.7671875 16.23828125 131.6671875 16.23828125 175.8671875 16.23828125 C176.1971875 14.58828125 176.5271875 12.93828125 176.8671875 11.23828125 C178.1796875 9.10546875 178.1796875 9.10546875 179.8671875 7.11328125 C180.6715625 6.11941406 180.6715625 6.11941406 181.4921875 5.10546875 C189.2568934 -0.99902043 199.03466462 -0.22687651 208.43261719 -0.15283203 C210.86189941 -0.13675375 213.28951842 -0.1527356 215.71875 -0.171875 C233.494483 -0.19946999 233.494483 -0.19946999 240.2421875 5.10546875 C241.0465625 6.09933594 241.0465625 6.09933594 241.8671875 7.11328125 C242.7025 8.09941406 242.7025 8.09941406 243.5546875 9.10546875 C244.8671875 11.23828125 244.8671875 11.23828125 245.8671875 16.23828125 C288.7671875 16.23828125 331.6671875 16.23828125 375.8671875 16.23828125 C376.5271875 14.25828125 377.1871875 12.27828125 377.8671875 10.23828125 C381.68333907 4.27554442 386.03683258 1.95706395 392.8671875 0.23828125 C398.18373175 -0.3905238 403.53465991 -0.33815015 408.88037109 -0.28320312 C411.36264732 -0.26175797 413.8420304 -0.28308005 416.32421875 -0.30859375 C434.79248803 -0.34389973 434.79248803 -0.34389973 442.12109375 6.2734375 C442.55292969 6.94246094 442.98476563 7.61148438 443.4296875 8.30078125 C443.88472656 8.97238281 444.33976562 9.64398438 444.80859375 10.3359375 C447.18509819 14.60662997 447.0024483 18.64172102 446.98071289 23.3815918 C446.98085892 24.21108337 446.98100494 25.04057495 446.9811554 25.89520264 C446.98045842 28.63849497 446.97267603 31.38171952 446.96484375 34.125 C446.96297881 36.02643293 446.96155526 37.92786634 446.96055603 39.82929993 C446.95673686 44.83522873 446.94691166 49.84112855 446.93585205 54.8470459 C446.92562506 59.95466723 446.92105565 65.06229325 446.91601562 70.16992188 C446.90528888 80.19272107 446.88821962 90.21549875 446.8671875 100.23828125 C447.47844482 100.29089111 448.08970215 100.34350098 448.71948242 100.39770508 C449.52490479 100.47529053 450.33032715 100.55287598 451.16015625 100.6328125 C451.95703857 100.70604736 452.7539209 100.77928223 453.57495117 100.85473633 C458.53360589 101.68443561 461.24673432 104.41660002 464.1796875 108.30078125 C466.21333439 111.84083325 466.99069957 114.46053488 467.07592773 118.47509766 C467.09521835 119.32673492 467.11450897 120.17837219 467.13438416 121.05581665 C467.19244008 124.96017938 467.24143456 128.86436269 467.2722168 132.76904297 C467.29375301 134.82129794 467.32780358 136.87346214 467.37475586 138.92529297 C467.44209278 141.89722362 467.46927333 144.86725562 467.48828125 147.83984375 C467.51611191 148.74642731 467.54394257 149.65301086 467.57261658 150.58706665 C467.55055648 157.50881354 465.45255572 162.04940254 460.8671875 167.23828125 C456.77593737 170.56484647 453.14524945 171.35860426 447.8671875 172.23828125 C447.5371875 222.39828125 447.2071875 272.55828125 446.8671875 324.23828125 C449.8371875 324.56828125 452.8071875 324.89828125 455.8671875 325.23828125 C458.64453125 326.91015625 458.64453125 326.91015625 460.8046875 328.98828125 C461.53558594 329.66375 462.26648438 330.33921875 463.01953125 331.03515625 C467.38326893 336.23842909 467.20009879 341.58011941 467.23828125 348.0703125 C467.24730972 349.02089035 467.2563382 349.9714682 467.26564026 350.95085144 C467.28012162 352.95882021 467.28902423 354.96683594 467.29272461 356.97485352 C467.30460776 360.03027825 467.35380307 363.08367373 467.40429688 366.13867188 C467.41376362 368.09504229 467.42099745 370.05142503 467.42578125 372.0078125 C467.44531357 372.91328323 467.46484589 373.81875397 467.48497009 374.75166321 C467.44013649 381.12639229 465.90684553 385.27934052 461.8671875 390.23828125 C459.76953125 392.078125 459.76953125 392.078125 457.8046875 393.17578125 C457.15371094 393.55605469 456.50273437 393.93632812 455.83203125 394.328125 C451.28873346 396.43267447 446.87356176 396.38222054 441.93782616 396.37250233 C441.12916412 396.37485456 440.32050209 396.37720679 439.48733515 396.3796303 C436.76045412 396.38632078 434.03362073 396.38586206 431.30673218 396.38545227 C429.33875157 396.38875086 427.37077164 396.39247642 425.40279257 396.39659375 C419.98118281 396.40662235 414.55958412 396.41033193 409.13796639 396.41298306 C403.29593195 396.41688354 397.45390629 396.42646203 391.61187744 396.43519592 C378.16418495 396.45403255 364.71649254 396.46421729 351.26879002 396.4726566 C343.95721423 396.47728493 336.64563945 396.48314626 329.33406448 396.48891258 C307.25151179 396.50601069 285.16895929 396.52044489 263.08640099 396.52766132 C261.65825748 396.52813608 260.23011397 396.52861197 258.80197046 396.52908899 C258.09374061 396.52932536 257.38551077 396.52956174 256.65581941 396.52980528 C253.06758403 396.53100647 249.47934865 396.53222192 245.89111328 396.53344727 C245.17901761 396.53368742 244.46692194 396.53392757 243.73324761 396.53417499 C220.64598809 396.54206772 197.55877995 396.56549905 174.47154286 396.59800321 C150.06207461 396.63230617 125.65263643 396.65201289 101.24314368 396.65530556 C87.93736042 396.65737859 74.63164036 396.66624272 61.32587814 396.69176674 C49.99555637 396.71345094 38.66532845 396.72153534 27.33498828 396.71179996 C21.55353751 396.70724874 15.77228049 396.70918945 9.99085617 396.7285614 C4.69693856 396.74614676 -0.5966433 396.74523278 -5.89056425 396.72966411 C-7.80447673 396.72728102 -9.71841218 396.73164778 -11.63228948 396.74349276 C-32.93964857 396.86718276 -32.93964857 396.86718276 -39.75655329 390.79096776 C-43.25873444 386.83983021 -45.37525407 383.11731092 -45.4074707 377.84033203 C-45.41700272 376.97908722 -45.42653473 376.11784241 -45.43635559 375.23049927 C-45.43544418 374.30752045 -45.43453278 373.38454163 -45.43359375 372.43359375 C-45.43787888 371.4768576 -45.442164 370.52012146 -45.44657898 369.53439331 C-45.45231736 367.51203197 -45.45282617 365.48964998 -45.44848633 363.46728516 C-45.4453311 360.38147523 -45.46877541 357.29662861 -45.49414062 354.2109375 C-45.49641422 352.24349079 -45.49711684 350.27604151 -45.49609375 348.30859375 C-45.5053035 347.38966339 -45.51451324 346.47073303 -45.52400208 345.5239563 C-45.47937921 339.30886102 -44.47987949 335.06856792 -40.40625 330.15625 C-39.46652344 329.29966797 -39.46652344 329.29966797 -38.5078125 328.42578125 C-37.89679687 327.84183594 -37.28578125 327.25789063 -36.65625 326.65625 C-34.1328125 325.23828125 -34.1328125 325.23828125 -25.1328125 324.23828125 C-25.4628125 274.07828125 -25.7928125 223.91828125 -26.1328125 172.23828125 C-28.7728125 171.57828125 -31.4128125 170.91828125 -34.1328125 170.23828125 C-36.3046875 169.1953125 -36.3046875 169.1953125 -37.8828125 168.05078125 C-38.41390625 167.68597656 -38.945 167.32117188 -39.4921875 166.9453125 C-45.03215995 161.18110307 -45.73296753 155.88035055 -45.6640625 148.2109375 C-45.6678894 147.26318954 -45.67171631 146.31544159 -45.67565918 145.338974 C-45.67837023 143.34291517 -45.67106584 141.34682031 -45.65429688 139.35083008 C-45.63289962 136.31314991 -45.65411387 133.27784106 -45.6796875 130.24023438 C-45.67704362 128.29296358 -45.67191738 126.34569425 -45.6640625 124.3984375 C-45.67215942 123.49924088 -45.68025635 122.60004425 -45.68859863 121.67359924 C-45.59211821 115.11042612 -44.28929488 109.54463387 -39.64196777 104.676651 C-36.35284219 102.00939828 -33.61174405 100.97659335 -29.39453125 100.609375 C-28.19316528 100.49807251 -28.19316528 100.49807251 -26.9675293 100.38452148 C-26.36207275 100.33626221 -25.75661621 100.28800293 -25.1328125 100.23828125 C-25.14613617 99.1808522 -25.15945984 98.12342316 -25.17318726 97.03395081 C-25.29507815 87.04463134 -25.38488524 77.05546373 -25.44368553 67.06556797 C-25.47493252 61.9301956 -25.5172838 56.79542594 -25.58544922 51.66040039 C-25.65087879 46.70015011 -25.68656839 41.74047771 -25.70207596 36.77982903 C-25.71312007 34.89202724 -25.734687 33.00425534 -25.76719284 31.11670113 C-26.06205489 13.27710104 -26.06205489 13.27710104 -20.77871704 6.75889587 C-14.52644547 0.98256113 -8.2338142 0.0803136 0 0 Z " fill="#062A74" transform="translate(45.1328125,57.76171875)"/>
<path d="M0 0 C31.02 0 62.04 0 94 0 C94.495 6.435 94.495 6.435 95 13 C97.68177633 21.48629222 102.21456084 27.8023723 109.99192905 32.10094452 C115.66962547 34.81554447 120.3317992 35.57782371 126.58374023 35.51757812 C127.49558075 35.5245874 128.40742126 35.53159668 129.34689331 35.53881836 C132.33444483 35.55629521 135.32103408 35.54481131 138.30859375 35.53125 C140.40169963 35.53394811 142.49480427 35.53783318 144.58790588 35.54284668 C148.96473173 35.54872799 153.34122996 35.54022365 157.71801758 35.52148438 C163.30748082 35.49871008 168.89617502 35.51181735 174.48561001 35.53577423 C178.80525933 35.5502812 183.12472865 35.54560353 187.44438362 35.53526306 C189.50431473 35.53260857 191.56426257 35.53582018 193.62417412 35.54518127 C212.46592759 35.65119898 212.46592759 35.65119898 228.2421875 26.09765625 C234.89003128 18.16456267 235.20015833 10.39794174 236 0 C267.02 0 298.04 0 330 0 C330 50.49 330 100.98 330 153 C221.1 153 112.2 153 0 153 C0 102.51 0 52.02 0 0 Z " fill="#FC8F01" transform="translate(91,229)"/>
<path d="M0 0 C93.06 0 186.12 0 282 0 C282 21.12 282 42.24 282 64 C249.61656994 64.22043386 217.23386756 64.40508139 184.84991305 64.51065329 C181.02721936 64.52316045 177.20452726 64.53610366 173.38183594 64.54931641 C172.62080303 64.55193951 171.85977013 64.55456261 171.07567562 64.55726521 C158.75104873 64.60078541 146.42688802 64.67963418 134.10253774 64.77152796 C121.45769909 64.86502543 108.81310467 64.92058373 96.16793454 64.94088495 C88.36410245 64.95461065 80.56158789 64.99796507 72.75816138 65.07916467 C66.7755093 65.13824882 60.79399173 65.1445573 54.81101418 65.13107681 C52.35591449 65.13383235 49.90076583 65.15378413 47.44596291 65.19205475 C44.09623429 65.2417242 40.75216917 65.22989715 37.40231323 65.20254517 C36.42759847 65.23167358 35.4528837 65.26080199 34.44863212 65.29081309 C31.63472061 65.22857627 29.60544653 65.07488231 27 64 C24.32472858 60.95245794 22.67094475 57.67248816 21 54 C20.27056936 52.60287617 19.53716919 51.20780431 18.796875 49.81640625 C18.10571549 48.40273874 17.4237247 46.98455918 16.75 45.5625 C16.37866943 44.7789917 16.00733887 43.9954834 15.62475586 43.18823242 C9.23005665 29.3297306 3.70085539 14.80342154 0 0 Z " fill="#FC8E01" transform="translate(139,318)"/>
<path d="M0 0 C155.76 0 311.52 0 472 0 C472 10.23 472 20.46 472 31 C316.24 31 160.48 31 0 31 C0 20.77 0 10.54 0 0 Z " fill="#FBC950" transform="translate(20,402)"/>
<path d="M0 0 C12.21 0 24.42 0 37 0 C37.1546875 7.2084375 37.1546875 7.2084375 37.3125 14.5625 C37.68376908 28.21115799 38.90979614 41.49868317 41 55 C41.66 59.62 42.32 64.24 43 69 C137.71 69 232.42 69 330 69 C330 75.6 330 82.2 330 89 C237.27 89.33 144.54 89.66 49 90 C55.13099243 108.89415949 55.13099243 108.89415949 62.5625 127.125 C62.99240234 128.09179688 63.42230469 129.05859375 63.86523438 130.0546875 C67.35666061 137.82940985 71.18189178 145.36378356 75 153 C50.25 153 25.5 153 0 153 C0 102.51 0 52.02 0 0 Z " fill="#FCCA4F" transform="translate(91,229)"/>
<path d="M0 0 C1.2758622 -0.00744736 1.2758622 -0.00744736 2.57749939 -0.01504517 C5.3995748 -0.02968476 8.22159398 -0.0364721 11.04370117 -0.04199219 C13.00184633 -0.04774257 14.95999148 -0.05350032 16.9181366 -0.05926514 C21.02810936 -0.06978052 25.13806254 -0.07561953 29.24804688 -0.07910156 C34.51408178 -0.08458458 39.77985789 -0.10860628 45.04581165 -0.13707352 C49.09243017 -0.1557 53.13898639 -0.16090552 57.18564415 -0.16243744 C59.12691346 -0.16546494 61.06818165 -0.17349675 63.00940895 -0.18662262 C65.72652464 -0.20368177 68.4430087 -0.2018031 71.16015625 -0.1953125 C71.96190277 -0.20452728 72.76364929 -0.21374207 73.58969116 -0.22323608 C78.16552888 -0.18900373 81.16191889 0.27839013 84.77416992 3.16113281 C87.35831285 7.0373472 87.0769747 10.27849322 87.08056641 14.77587891 C87.08888992 15.65586044 87.09721344 16.53584198 87.10578918 17.44248962 C87.12991894 20.3565613 87.13866486 23.27040928 87.14526367 26.18457031 C87.15422762 28.20854765 87.16334942 30.2325243 87.17262268 32.25650024 C87.18912324 36.50174572 87.19681476 40.74691224 87.19970703 44.9921875 C87.20509243 50.43215302 87.24277464 55.87137653 87.28845119 61.31113243 C87.31819266 65.49244904 87.32542995 69.67358634 87.32643318 73.85499954 C87.33064114 75.86048405 87.34309841 77.86596882 87.36395073 79.87134933 C87.39080511 82.67732054 87.3860576 85.4815636 87.37353516 88.28759766 C87.38836945 89.11582535 87.40320374 89.94405304 87.41848755 90.79737854 C87.36426255 95.06392644 87.15052621 96.68193573 84.42420959 100.15322876 C79.93323391 103.55598849 75.84155818 103.32005745 70.43481445 103.33813477 C69.58409363 103.34470596 68.7333728 103.35127716 67.85687256 103.35804749 C65.04024162 103.3777666 62.22366392 103.38943876 59.40698242 103.39941406 C57.96417215 103.40552735 57.96417215 103.40552735 56.4922142 103.41176414 C51.40309616 103.43261696 46.31400503 103.44692323 41.22485352 103.45629883 C35.96661725 103.46737372 30.70880294 103.50178834 25.45071602 103.54147053 C21.40838833 103.56759944 17.36616188 103.57598725 13.32375717 103.57958031 C11.38526427 103.58445433 9.44677613 103.59609147 7.50836563 103.6146183 C4.7960066 103.63893508 2.08474884 103.63805872 -0.62768555 103.63110352 C-1.42786102 103.64391357 -2.2280365 103.65672363 -3.05245972 103.66992188 C-6.82354243 103.63467787 -8.99268888 103.31037824 -12.20071411 101.25675964 C-15.92715873 97.40056698 -15.39270942 93.75991853 -15.41870117 88.65991211 C-15.42687866 87.7800766 -15.43505615 86.90024109 -15.44348145 85.9937439 C-15.4683487 83.07428676 -15.48485441 80.15487827 -15.49926758 77.23535156 C-15.50459126 76.23946329 -15.50991493 75.24357502 -15.51539993 74.21750832 C-15.54213666 68.94685256 -15.56151033 63.67622054 -15.57592773 58.40551758 C-15.59258147 52.95771589 -15.63736398 47.51051845 -15.68829918 42.06294537 C-15.72193147 37.87735793 -15.73350074 33.69191465 -15.73915482 29.50620461 C-15.74587786 27.49791658 -15.76112717 25.48963839 -15.78504562 23.48148155 C-15.81661533 20.67066363 -15.81674638 17.86148529 -15.80932617 15.05053711 C-15.82573151 14.22073837 -15.84213684 13.39093964 -15.85903931 12.53599548 C-15.81240479 8.22111752 -15.62060939 6.65112848 -12.81436157 3.16804504 C-8.51827771 -0.16274821 -5.26850914 0.00729055 0 0 Z " fill="#D36A5C" transform="translate(220.225830078125,141.8388671875)"/>
<path d="M0 0 C42.9 0 85.8 0 130 0 C130 21.12 130 42.24 130 64 C98.98 64 67.96 64 36 64 C35.67 59.71 35.34 55.42 35 51 C32.47232656 42.5684036 27.71269092 36.29339795 20 32 C12.83217969 29.33535628 12.83217969 29.33535628 0 29 C0 19.43 0 9.86 0 0 Z " fill="#FA8E02" transform="translate(291,94)"/>
<path d="M0 0 C42.9 0 85.8 0 130 0 C130 9.57 130 19.14 130 29 C127.69 29.0825 125.38 29.165 123 29.25 C116.86581749 29.59258135 112.07879865 30.443623 107 34 C105.96875 34.66 104.9375 35.32 103.875 36 C95.44305103 43.57720346 94.83186781 53.1857185 94 64 C62.98 64 31.96 64 0 64 C0 42.88 0 21.76 0 0 Z " fill="#F85F4F" transform="translate(91,94)"/>
<path d="M0 0 C54.45 0 108.9 0 165 0 C165 10.23 165 20.46 165 31 C110.55 31 56.1 31 0 31 C0 20.77 0 10.54 0 0 Z " fill="#FBCA50" transform="translate(327,178)"/>
<path d="M0 0 C54.45 0 108.9 0 165 0 C165 10.23 165 20.46 165 31 C110.55 31 56.1 31 0 31 C0 20.77 0 10.54 0 0 Z " fill="#FBCA50" transform="translate(20,178)"/>
<path d="M0 0 C10.23 0 20.46 0 31 0 C31 50.49 31 100.98 31 153 C20.77 153 10.54 153 0 153 C0 102.51 0 52.02 0 0 Z " fill="#FCCA50" transform="translate(441,229)"/>
<path d="M0 0 C10.23 0 20.46 0 31 0 C31 50.49 31 100.98 31 153 C20.77 153 10.54 153 0 153 C0 102.51 0 52.02 0 0 Z " fill="#FCCA50" transform="translate(40,229)"/>
<path d="M0 0 C15.84 0 31.68 0 48 0 C49.72456729 4.59884612 51.43157995 9.17860254 53.05859375 13.80859375 C58.74316825 29.73383285 65.38986002 44.90517937 73 60 C73.99 61.98 73.99 61.98 75 64 C50.25 64 25.5 64 0 64 C0 42.88 0 21.76 0 0 Z " fill="#FC604F" transform="translate(91,318)"/>
<path d="M0 0 C18.48 0 36.96 0 56 0 C56 8.91 56 17.82 56 27 C52.37 27.33 48.74 27.66 45 28 C33.92553034 31.55965096 28.6059787 36.05824871 23.1640625 46.31640625 C21.39458223 51.43010526 21.39458223 51.43010526 21 63 C5.82 63 -9.36 63 -25 63 C-24.23910332 57.67372324 -23.25753329 53.03430593 -21.5625 48 C-21.3051709 47.23453857 -21.0478418 46.46907715 -20.78271484 45.68041992 C-18.50442358 39.10691421 -15.87930709 32.69948333 -13.125 26.3125 C-12.73900635 25.41208984 -12.3530127 24.51167969 -11.95532227 23.58398438 C-8.36994926 15.43813386 -4.22504846 7.92196586 0 0 Z " fill="#FC8E01" transform="translate(164,95)"/>
<path d="M0 0 C12.21 0 24.42 0 37 0 C37.1546875 7.2084375 37.1546875 7.2084375 37.3125 14.5625 C37.68376908 28.21115799 38.90979614 41.49868317 41 55 C41.66 59.62 42.32 64.24 43 69 C28.81 69 14.62 69 0 69 C0 46.23 0 23.46 0 0 Z " fill="#FC604F" transform="translate(91,229)"/>
<path d="M0 0 C10.23 0 20.46 0 31 0 C31 26.07 31 52.14 31 79 C20.77 79 10.54 79 0 79 C0 52.93 0 26.86 0 0 Z " fill="#FCCA50" transform="translate(441,79)"/>
<path d="M0 0 C10.23 0 20.46 0 31 0 C31 26.07 31 52.14 31 79 C20.77 79 10.54 79 0 79 C0 52.93 0 26.86 0 0 Z " fill="#FCCA50" transform="translate(40,79)"/>
<path d="M0 0 C1.3096875 0.00193359 2.619375 0.00386719 3.96875 0.00585938 C14.50682646 0.15132362 14.50682646 0.15132362 19.375 3.5625 C19.973125 3.954375 20.57125 4.34625 21.1875 4.75 C23.1905163 7.8072354 23.00452142 11.0899786 22.375 14.5625 C20.58136089 17.3725346 19.35619065 19.07190468 16.375 20.5625 C14.37539988 20.602492 12.37452758 20.60596799 10.375 20.5625 C10.39071045 21.35422607 10.4064209 22.14595215 10.42260742 22.96166992 C10.48506699 26.55770695 10.52402635 30.1536297 10.5625 33.75 C10.58763672 34.99587891 10.61277344 36.24175781 10.63867188 37.52539062 C10.64833984 38.72744141 10.65800781 39.92949219 10.66796875 41.16796875 C10.6836792 42.27293701 10.69938965 43.37790527 10.71557617 44.51635742 C10.23819051 48.78613587 8.56354957 51.37395043 5.5625 54.375 C2.5222735 56.02540867 0.79550168 56.10978027 -2.625 55.5625 C-6.05045988 53.48814959 -8.33092195 51.44473414 -9.625 47.5625 C-9.70815752 45.49751108 -9.73235878 43.4299211 -9.72265625 41.36328125 C-9.71943359 40.15478516 -9.71621094 38.94628906 -9.71289062 37.70117188 C-9.70451172 36.43853516 -9.69613281 35.17589844 -9.6875 33.875 C-9.68298828 32.60076172 -9.67847656 31.32652344 -9.67382812 30.01367188 C-9.66202873 26.86323436 -9.64556597 23.71289051 -9.625 20.5625 C-11.02298828 20.62050781 -11.02298828 20.62050781 -12.44921875 20.6796875 C-16.44768997 20.53214244 -17.80327217 19.30360704 -20.625 16.5625 C-22.27190856 13.26868288 -22.37632901 10.09688031 -21.625 6.5625 C-16.73744481 -1.26811122 -8.19032356 -0.23111309 0 0 Z " fill="#B55348" transform="translate(255.625,165.4375)"/>
<path d="M0 0 C9.9 0 19.8 0 30 0 C30 14.19 30 28.38 30 43 C20.1 43 10.2 43 0 43 C0 28.81 0 14.62 0 0 Z " fill="#FDCB50" transform="translate(241,79)"/>
</svg>
