<?xml version="1.0" encoding="UTF-8"?>
<svg version="1.1" xmlns="http://www.w3.org/2000/svg" width="512" height="512">
<path d="M0 0 C0.80474258 -0.00983917 1.60948517 -0.01967834 2.43861389 -0.02981567 C53.83036695 -0.52812626 101.74066176 12.46352176 142.28515625 45.23828125 C142.85137695 45.69025879 143.41759766 46.14223633 144.00097656 46.60791016 C157.75876709 57.64557514 169.84698803 70.02177847 180.28515625 84.23828125 C181.03023438 85.23859375 181.7753125 86.23890625 182.54296875 87.26953125 C196.88171321 107.21015078 207.03241326 128.80211106 214.05859375 152.26171875 C216.24641731 159.52170196 216.24641731 159.52170196 221.59765625 164.73828125 C225.13809911 167.36250727 228.28221752 169.991861 231.28515625 173.23828125 C232.00638672 173.96917969 232.00638672 173.96917969 232.7421875 174.71484375 C239.12568875 181.53468559 244.28515625 191.82260835 244.28515625 201.23828125 C245.15140625 201.48578125 246.01765625 201.73328125 246.91015625 201.98828125 C255.31976995 205.10295299 261.4449999 211.37623822 265.72265625 219.17578125 C268.91746901 227.12823725 268.92356696 238.46254641 265.59765625 246.36328125 C264.86501308 247.67698624 264.09584294 248.97124775 263.28515625 250.23828125 C262.95773437 250.84671875 262.6303125 251.45515625 262.29296875 252.08203125 C258.21199518 258.87372448 250.79846201 263.49315833 243.2109375 265.3984375 C237.4259983 266.55457835 231.6048464 266.6930913 225.72265625 266.86328125 C224.61857422 266.90195312 223.51449219 266.940625 222.37695312 266.98046875 C219.679845 267.07387509 216.98272855 267.15964601 214.28515625 267.23828125 C213.98448242 268.18743408 213.98448242 268.18743408 213.67773438 269.15576172 C203.00840207 302.59722335 182.73950027 354.06857452 149.4453125 371.74609375 C145.97617978 373.68258018 144.3713277 374.80044455 142.28515625 378.23828125 C141.01544212 386.47843736 141.67904207 394.95782909 142.28515625 403.23828125 C142.89641357 403.56151367 143.5076709 403.88474609 144.13745117 404.21777344 C144.94287354 404.65250977 145.7482959 405.08724609 146.578125 405.53515625 C147.37500732 405.96151367 148.17188965 406.38787109 148.99291992 406.82714844 C155.42148585 410.78466373 158.95844728 417.21747048 161.28515625 424.23828125 C161.83282288 427.75506558 161.89374623 431.20285923 161.88671875 434.7578125 C161.895289 435.73763596 161.90385925 436.71745941 161.91268921 437.72697449 C161.92411082 439.78841073 161.92522449 441.84992752 161.91650391 443.91137695 C161.91019252 447.03284096 161.95713661 450.1504891 162.0078125 453.27148438 C162.08322745 465.19706229 161.76768993 474.68555933 153.66137695 484.13012695 C146.48748016 490.96176757 138.11785173 492.92447546 128.47265625 492.73828125 C127.50360352 492.73199707 126.53455078 492.72571289 125.53613281 492.71923828 C119.19913467 492.57362125 113.86788821 491.75814573 108.11328125 488.91796875 C99.54587158 486.8589504 88.22115927 492.14127072 79.9030304 494.52405167 C77.33008096 495.26006054 74.75537906 495.98960535 72.18005371 496.71725464 C64.86476246 498.78451921 57.55093939 500.85674102 50.24267578 502.94873047 C45.75389694 504.23314307 41.26163829 505.5046843 36.766922 506.76815414 C35.06567481 507.2489919 33.36575529 507.73455505 31.6672821 508.22510147 C29.28599669 508.9123668 26.90058727 509.58308115 24.51367188 510.25048828 C23.82662674 510.45306244 23.1395816 510.6556366 22.43171692 510.86434937 C13.76094563 513.24381589 5.86794404 512.55548689 -2.6652832 510.01928711 C-3.49751907 509.78359512 -4.32975494 509.54790314 -5.18721008 509.30506897 C-6.97519413 508.79687229 -8.76148539 508.28268778 -10.54616737 507.76301384 C-13.3720044 506.94035074 -16.20208416 506.13407907 -19.03373718 505.3316803 C-25.03582434 503.6276318 -31.03177376 501.90259465 -37.02734375 500.17578125 C-43.99567166 498.17075595 -50.96632596 496.17442863 -57.94219017 494.19577217 C-60.72849945 493.40121194 -63.51062559 492.59306134 -66.2928009 491.78416443 C-67.99881302 491.29810469 -69.70499603 490.81264425 -71.41137695 490.32788086 C-72.18185364 490.09986786 -72.95233032 489.87185486 -73.74615479 489.63693237 C-79.86173525 487.92393679 -83.53715944 488.79544089 -89.34765625 490.765625 C-99.93153507 493.97683888 -113.5638912 494.43324523 -123.71484375 489.67578125 C-131.43230709 484.92998483 -135.87910167 478.8033292 -138.71484375 470.23828125 C-139.24533233 466.68431838 -139.2772887 463.20209711 -139.24609375 459.61328125 C-139.25183411 458.13287354 -139.25183411 458.13287354 -139.25769043 456.62255859 C-139.26039659 454.54849215 -139.25312688 452.47439081 -139.23632812 450.40039062 C-139.21490036 447.24661329 -139.2361747 444.0951137 -139.26171875 440.94140625 C-139.25907524 438.91535961 -139.2539498 436.88931438 -139.24609375 434.86328125 C-139.25419067 433.93177246 -139.2622876 433.00026367 -139.27062988 432.04052734 C-139.15683219 423.99688441 -136.85679198 417.03752839 -131.46484375 410.92578125 C-130.9440625 410.31089844 -130.42328125 409.69601562 -129.88671875 409.0625 C-126.80952412 406.4778779 -123.34885531 404.91218549 -119.71484375 403.23828125 C-117.64076882 388.18629243 -117.64076882 388.18629243 -120.99365234 373.87695312 C-124.31711558 370.01591451 -128.44374873 367.31980791 -132.71386719 364.59912109 C-135.86546978 362.45575447 -138.45017161 359.84626637 -141.08984375 357.11328125 C-141.57855957 356.61691162 -142.06727539 356.12054199 -142.57080078 355.60913086 C-176.15569643 321.10807659 -198.63999918 270.68971298 -198.91796875 222.3125 C-198.92849022 221.08050621 -198.92849022 221.08050621 -198.93922424 219.82362366 C-198.95661797 217.19095302 -198.96307549 214.55850722 -198.96484375 211.92578125 C-198.96551849 211.02678101 -198.96619324 210.12778076 -198.96688843 209.20153809 C-198.95149586 196.31493443 -198.63321571 183.84352159 -195.71484375 171.23828125 C-195.53260254 170.41569824 -195.35036133 169.59311523 -195.16259766 168.74560547 C-192.67814704 157.67246927 -189.47826996 146.93947016 -185.71484375 136.23828125 C-187.04491455 136.26184692 -187.04491455 136.26184692 -188.40185547 136.28588867 C-191.73801697 136.33746534 -195.07374583 136.37484616 -198.41015625 136.40307617 C-199.84544625 136.41802711 -201.28069166 136.43839549 -202.71582031 136.46459961 C-215.36525294 136.68953722 -225.49516347 135.75360248 -235.27734375 126.92578125 C-243.20290894 118.18733758 -245.49130923 110.36101957 -245.1484375 98.578125 C-244.54334828 89.95041989 -240.43120593 83.48192664 -234.21484375 77.67578125 C-226.27838325 71.23828125 -226.27838325 71.23828125 -221.71484375 71.23828125 C-221.64007813 70.655625 -221.5653125 70.07296875 -221.48828125 69.47265625 C-219.50465889 57.10418739 -213.53805582 47.92168891 -204.71484375 39.23828125 C-204.12703125 38.65175781 -203.53921875 38.06523438 -202.93359375 37.4609375 C-193.27850529 28.51176353 -180.34130578 24.64922327 -167.40234375 24.80078125 C-166.48735107 24.80835449 -165.5723584 24.81592773 -164.62963867 24.82373047 C-152.09411676 25.12685755 -139.82891042 28.84630245 -130.96484375 38.11328125 C-125.47515828 41.70269098 -120.03664797 41.49329624 -113.71484375 40.23828125 C-110.27593116 38.42341739 -107.29219495 36.24137444 -104.23046875 33.87109375 C-76.32591115 12.34335086 -34.87089288 0.35448759 0 0 Z " fill="#062A75" transform="translate(244.71484375,-0.23828125)"/>
<path d="M0 0 C2.62126352 2.22149553 5.19658628 4.49033245 7.76904297 6.76831055 C8.68685547 7.56366211 9.60466797 8.35901367 10.55029297 9.1784668 C15.73824628 13.73355231 20.39381634 18.43436893 24.76904297 23.76831055 C25.19411133 24.27040039 25.61917969 24.77249023 26.05712891 25.28979492 C42.35338992 44.55002928 56.83320702 68.02774631 62.76904297 92.76831055 C61.58761719 92.80698242 61.58761719 92.80698242 60.38232422 92.84643555 C47.11348298 93.53735746 33.57060167 96.65040027 24.08154297 106.58081055 C19.39955896 109.67268678 15.17247785 109.21136886 9.65966797 109.41674805 C0.11047309 110.2796271 -8.46832861 115.07290507 -15.23095703 121.76831055 C-18.7411352 126.05591073 -21.14687293 130.41595246 -23.10595703 135.58081055 C-24.90898438 139.90508362 -26.9191939 141.07135898 -31.14501953 142.83081055 C-39.40746087 146.54426733 -43.01829403 153.81616003 -46.54345703 161.70581055 C-48.7326653 171.45773828 -46.71226826 180.5874104 -41.51220703 189.0769043 C-36.83758393 195.24797686 -30.67972204 199.68561979 -23.23095703 201.76831055 C-16.78713375 202.56165403 -10.23911679 202.37475028 -3.75830078 202.37768555 C-1.86542862 202.39268223 0.02743052 202.40941248 1.92027283 202.42779541 C6.87678663 202.47131411 11.83312394 202.49143359 16.78979492 202.50653076 C21.85785287 202.52615784 26.92572178 202.56812146 31.99365234 202.6081543 C41.91872402 202.68328859 51.84375304 202.73368149 61.76904297 202.76831055 C60.41856476 209.16730844 58.72760109 215.07951502 56.26904297 221.14331055 C55.92228516 222.00182617 55.57552734 222.8603418 55.21826172 223.74487305 C45.12385312 248.14266627 30.36584972 270.03425799 11.76904297 288.76831055 C11.43904297 288.76831055 11.10904297 288.76831055 10.76904297 288.76831055 C10.76095612 288.12573303 10.75286926 287.48315552 10.74453735 286.82110596 C10.65852976 280.13761485 10.55902757 273.45442163 10.45166016 266.77124023 C10.41335943 264.27649943 10.37850851 261.78170319 10.34716797 259.28686523 C10.30154173 255.7023537 10.24354237 252.11822415 10.18310547 248.53393555 C10.16577866 246.85874847 10.16577866 246.85874847 10.14810181 245.14971924 C10.11829727 243.58855377 10.11829727 243.58855377 10.08789062 241.99584961 C10.06790512 240.62351166 10.06790512 240.62351166 10.04751587 239.22344971 C9.75194652 236.61758079 9.14437941 234.98726864 7.76904297 232.76831055 C4.31211567 230.20762366 0.94051212 230.60488268 -3.23095703 230.76831055 C-6.49596777 231.4047723 -6.49596777 231.4047723 -9.76611328 232.37768555 C-10.98878906 232.72057617 -12.21146484 233.0634668 -13.47119141 233.41674805 C-15.36321289 233.96202148 -15.36321289 233.96202148 -17.29345703 234.51831055 C-18.52773438 234.86635742 -19.76201172 235.2144043 -21.03369141 235.57299805 C-24.76893021 236.62848154 -28.50031548 237.69670154 -32.23095703 238.76831055 C-40.97438562 241.27139828 -49.72194608 243.75777928 -58.48095703 246.20581055 C-59.56376953 246.50874023 -60.64658203 246.81166992 -61.76220703 247.1237793 C-67.91677048 248.84472358 -74.0729072 250.55988831 -80.23095703 252.26831055 C-82.38464331 252.86647236 -84.53828377 253.46479877 -86.69189453 254.06323242 C-88.59279166 254.59109693 -90.49386197 255.1183379 -92.39501953 255.64526367 C-95.8408968 256.60092554 -99.2859773 257.5594188 -102.73095703 258.51831055 C-103.83697266 258.82446289 -104.94298828 259.13061523 -106.08251953 259.44604492 C-107.11119141 259.73286133 -108.13986328 260.01967773 -109.19970703 260.31518555 C-110.12203125 260.57138672 -111.04435547 260.82758789 -111.99462891 261.09155273 C-114.23935686 261.70210455 -114.23935686 261.70210455 -116.23095703 262.76831055 C-122.6196011 262.45411494 -128.11552381 260.96637945 -134.18017578 259.0065918 C-139.29003327 257.39912953 -144.48171004 256.10129239 -149.66845703 254.76831055 C-157.08497713 252.85670769 -164.4696214 250.8891628 -171.82470703 248.75268555 C-175.72351806 247.62596493 -179.63215704 246.53820189 -183.54345703 245.45581055 C-190.96177249 243.39920784 -198.37874463 241.33786991 -205.79345703 239.26831055 C-206.85918945 238.9719873 -207.92492187 238.67566406 -209.02294922 238.37036133 C-213.80698243 237.03427336 -218.5796542 235.67882905 -223.32470703 234.2097168 C-224.088396 233.97510742 -224.85208496 233.74049805 -225.63891602 233.4987793 C-227.01393316 233.07248503 -228.38621255 232.63718544 -229.75463867 232.19018555 C-234.44538681 230.73833141 -238.37374073 230.4441531 -243.23095703 230.76831055 C-245.66215326 232.63846149 -246.87164876 234.049694 -248.23095703 236.76831055 C-248.34952339 238.37102035 -248.40801827 239.97836408 -248.4362793 241.58520508 C-248.45622452 242.58609161 -248.47616974 243.58697815 -248.49671936 244.61819458 C-248.5217881 246.24324417 -248.5217881 246.24324417 -248.54736328 247.90112305 C-248.56814438 249.0080954 -248.58892548 250.11506775 -248.6103363 251.25558472 C-248.67586695 254.80142853 -248.73473317 258.34734809 -248.79345703 261.89331055 C-248.8366389 264.29305805 -248.88025308 266.69279782 -248.92431641 269.0925293 C-249.03155191 274.98437567 -249.13331175 280.87629785 -249.23095703 286.76831055 C-250.34691106 285.82089119 -251.46156828 284.87194419 -252.57568359 283.92236328 C-253.19654846 283.39408432 -253.81741333 282.86580536 -254.45709229 282.32151794 C-282.08051883 258.13426773 -299.67546736 219.22057409 -306.23095703 183.76831055 C-306.38193848 182.97505371 -306.53291992 182.18179688 -306.68847656 181.36450195 C-313.25454458 145.80007095 -309.67635155 105.39227619 -293.23095703 72.76831055 C-291.82393524 72.76617302 -291.82393524 72.76617302 -290.38848877 72.76399231 C-281.50344218 72.74724721 -272.61884919 72.70424607 -263.73404312 72.63621998 C-259.16735654 72.60208075 -254.60099986 72.57686048 -250.03417969 72.57275391 C-245.61829425 72.56844271 -241.20315136 72.539749 -236.78749847 72.49487877 C-235.11164441 72.48199322 -233.43570108 72.477564 -231.75980377 72.48215675 C-220.05738553 72.50673364 -209.52768457 71.71019591 -200.29345703 63.58081055 C-193.68042576 56.19167781 -190.77020034 47.38793341 -190.88720703 37.58862305 C-191.78292178 30.23969069 -195.27065417 22.72884264 -200.28955078 17.2644043 C-202.80148169 15.3286507 -205.45496955 14.22829716 -208.35595703 12.95581055 C-213.80898333 10.43076389 -213.80898333 10.43076389 -215.68408203 7.48706055 C-216.29801584 5.80134399 -216.85854084 4.09520283 -217.36376953 2.3737793 C-218.60824887 -1.36526448 -220.7694407 -4.24542919 -223.05908203 -7.41918945 C-224.23095703 -9.23168945 -224.23095703 -9.23168945 -224.23095703 -11.23168945 C-205.88006649 -22.22955089 -187.88151985 -30.6464077 -167.23095703 -36.23168945 C-165.84457031 -36.65901367 -165.84457031 -36.65901367 -164.43017578 -37.0949707 C-109.62762107 -53.71471902 -43.36500969 -35.97481107 0 0 Z " fill="#92B1F3" transform="translate(375.23095703125,62.231689453125)"/>
<path d="M0 0 C7.58052157 1.74935113 14.6592565 3.45689238 22 5.77734375 C30.49445854 8.41624723 39.10365932 10.69096373 47.67285156 13.07226562 C50.90620347 13.97384599 54.13709392 14.88369667 57.3671875 15.796875 C68.73605411 19.00699111 80.11974952 22.12661216 91.56689453 25.04711914 C92.90083252 25.38924438 92.90083252 25.38924438 94.26171875 25.73828125 C95.51154541 26.05853271 95.51154541 26.05853271 96.78662109 26.38525391 C99 27 99 27 102.08203125 28.16796875 C109.81772572 30.37372902 117.00314125 28.5463565 124.5625 26.4375 C125.55701172 26.169375 126.55152344 25.90125 127.57617188 25.625 C135.75252267 23.40021239 143.88260557 21.0156495 152.00708008 18.609375 C159.83729394 16.30154925 167.71305945 14.22489421 175.62133789 12.20361328 C182.69191968 10.38102853 189.68677175 8.36627642 196.65332031 6.17944336 C204.38684763 3.78293528 212.09027011 1.97743247 220 0 C220 29.04 220 58.08 220 88 C215.71 88.99 211.42 89.98 207 91 C194.99023822 97.45686117 186.26497306 106.19652895 182.25390625 119.46875 C179.92026826 129.64019283 180.65315491 138.21027991 184.02734375 148.0546875 C184.90327454 150.70710444 185.48064491 153.2614773 186 156 C185.41323486 156.15033691 184.82646973 156.30067383 184.22192383 156.45556641 C167.90092137 160.64791399 151.69540191 165.153386 135.52734375 169.8984375 C133.89720337 170.37615601 133.89720337 170.37615601 132.23413086 170.86352539 C130.12359212 171.48281007 128.01369637 172.10429154 125.90454102 172.72827148 C124.94604248 173.01001221 123.98754395 173.29175293 123 173.58203125 C122.154375 173.83186768 121.30875 174.0817041 120.4375 174.33911133 C111.03587916 176.88820865 103.81645414 175.65671294 94.625 172.9375 C92.38678939 172.29272349 90.14850602 171.64819949 87.91015625 171.00390625 C86.76691895 170.67148926 85.62368164 170.33907227 84.44580078 169.99658203 C78.99474996 168.42004884 73.52848119 166.89879048 68.0625 165.375 C65.99734926 164.79704138 63.93224413 164.21891978 61.8671875 163.640625 C56.4748384 162.1322509 51.0818556 160.62618323 45.6875 159.125 C44.59417358 158.82021729 44.59417358 158.82021729 43.47875977 158.50927734 C40.32821439 157.63381003 37.1786547 156.76810679 34 156 C34.67720939 152.13634224 35.7918761 148.58212492 37.0625 144.875 C40.56837131 133.48731582 39.7837934 121.84444973 34.55859375 111.01171875 C26.23625024 97.05103578 15.1561702 91.54685106 0 87 C0 58.29 0 29.58 0 0 Z " fill="#D36A5C" transform="translate(146,315)"/>
<path d="M0 0 C15.98689389 8.91005855 34.46380783 19.8188313 40.140625 38.33984375 C41.52388971 45.68278165 39.03340265 51.19193974 35.140625 57.33984375 C32.90032488 60.44330679 30.60274241 63.479832 28.2265625 66.48046875 C22.30886633 74.59236687 21.25627001 82.49658825 22.140625 92.33984375 C23.91880964 99.04484571 28.57751458 103.46342106 34.140625 107.33984375 C45.77777733 113.96311662 58.13128642 114.15649503 71.19140625 112.8515625 C109.29003479 109.26109879 109.29003479 109.26109879 123.18359375 119.60546875 C125.68623237 121.74565626 128.00456471 123.83464862 130.140625 126.33984375 C130.140625 126.99984375 130.140625 127.65984375 130.140625 128.33984375 C128.903125 128.69175781 127.665625 129.04367187 126.390625 129.40625 C124.64058772 129.90481709 122.89059124 130.40352739 121.140625 130.90234375 C120.19654785 131.17119385 119.2524707 131.44004395 118.27978516 131.71704102 C113.29699812 133.1395846 108.31948788 134.57711531 103.3515625 136.05078125 C91.27920765 139.62612191 79.17169979 142.95898777 66.96044922 146.03100586 C65.88166504 146.30436768 64.80288086 146.57772949 63.69140625 146.859375 C62.73919189 147.09760986 61.78697754 147.33584473 60.8059082 147.58129883 C58.16144206 148.33391917 55.68948398 149.31631202 53.140625 150.33984375 C46.95533364 150.70226317 40.98945657 148.45176053 35.19140625 146.578125 C30.08154876 144.97066273 24.88987199 143.67282559 19.703125 142.33984375 C12.2866049 140.42824089 4.90196063 138.460696 -2.453125 136.32421875 C-6.35193603 135.19749813 -10.26057501 134.1097351 -14.171875 133.02734375 C-21.59019046 130.97074104 -29.0071626 128.90940311 -36.421875 126.83984375 C-37.48760742 126.54352051 -38.55333984 126.24719727 -39.65136719 125.94189453 C-44.4354004 124.60580656 -49.20807217 123.25036225 -53.953125 121.78125 C-54.71681396 121.54664063 -55.48050293 121.31203125 -56.26733398 121.0703125 C-57.64235113 120.64401823 -59.01463052 120.20871864 -60.38305664 119.76171875 C-65.07380478 118.30986461 -69.0021587 118.01568631 -73.859375 118.33984375 C-76.29057123 120.20999469 -77.50006673 121.6212272 -78.859375 124.33984375 C-78.97794136 125.94255355 -79.03643624 127.54989728 -79.06469727 129.15673828 C-79.08464249 130.15762482 -79.10458771 131.15851135 -79.12513733 132.18972778 C-79.15020607 133.81477737 -79.15020607 133.81477737 -79.17578125 135.47265625 C-79.19656235 136.5796286 -79.21734344 137.68660095 -79.23875427 138.82711792 C-79.30428491 142.37296174 -79.36315114 145.91888129 -79.421875 149.46484375 C-79.46505687 151.86459125 -79.50867105 154.26433102 -79.55273438 156.6640625 C-79.65996988 162.55590888 -79.76172972 168.44783106 -79.859375 174.33984375 C-80.97532903 173.39242439 -82.08998625 172.4434774 -83.20410156 171.49389648 C-83.82496643 170.96561752 -84.4458313 170.43733856 -85.08551025 169.89305115 C-112.7089368 145.70580094 -130.30388533 106.79210729 -136.859375 71.33984375 C-137.01035645 70.54658691 -137.16133789 69.75333008 -137.31689453 68.93603516 C-140.69416248 50.64341122 -141.09170006 31.80844001 -138.859375 13.33984375 C-135.3088546 13.92754583 -132.44407208 14.8677853 -129.234375 16.484375 C-128.36941406 16.91250488 -127.50445312 17.34063477 -126.61328125 17.78173828 C-125.70449219 18.23403809 -124.79570313 18.68633789 -123.859375 19.15234375 C-109.84212586 25.93744223 -96.73514515 31.47786868 -80.984375 26.90234375 C-69.30446965 22.48044747 -59.50816704 15.17632169 -49.671875 7.65234375 C-32.89345253 -5.08499654 -19.60902527 -10.42051469 0 0 Z " fill="#B0D852" transform="translate(205.859375,174.66015625)"/>
<path d="M0 0 C21.02984862 7.36204746 39.96470551 20.76248136 56 36 C57.41071844 37.21527255 58.82693719 38.42420605 60.25 39.625 C64.23993678 43.11619468 67.62848122 46.91527532 71 51 C71.42796875 51.50499023 71.8559375 52.00998047 72.296875 52.53027344 C88.58911618 71.78779203 103.06536275 95.26443196 109 120 C108.21238281 120.02578125 107.42476563 120.0515625 106.61328125 120.078125 C93.34444001 120.76904691 79.80155871 123.88208973 70.3125 133.8125 C65.630516 136.90437623 61.40343488 136.44305831 55.890625 136.6484375 C46.34143012 137.51131656 37.76262842 142.30459452 31 149 C27.46991863 153.31191147 25.02088726 157.78690371 22.9375 162.9375 C21.68830739 165.89529902 21.30292987 166.79804675 18.5625 168.625 C15.64338301 169.05218785 13.82237873 168.85368246 11 168 C4.16001395 161.07954353 0.82423963 150.82352914 0.5 141.3125 C1.01521499 126.54837042 6.20377432 114.81219798 13 102 C17.92339935 92.67289345 18.92839478 81.91217394 15.875 71.7421875 C13.38028858 64.80880475 9.46723402 58.52346273 5.82617188 52.14648438 C-0.08550803 41.5544411 -3.70636697 32.03293763 -3.4375 19.8125 C-3.44458984 18.89275391 -3.45167969 17.97300781 -3.45898438 17.02539062 C-3.40213498 10.85504478 -2.30689015 5.71845112 0 0 Z " fill="#B0D852" transform="translate(329,35)"/>
<path d="M0 0 C7.75809525 1.79032967 15.04112213 3.56360236 22.56640625 5.94921875 C28.66129693 7.81443558 34.83188223 9.39611876 41 11 C40.34 11.33 39.68 11.66 39 12 C39.268125 13.19625 39.53625 14.3925 39.8125 15.625 C40.44938165 18.47537943 41.06782233 21.32747351 41.66015625 24.1875 C46.25789545 46.29684698 53.13449583 67.15267274 64 87 C64.37882324 87.69577148 64.75764648 88.39154297 65.14794922 89.10839844 C70.88049808 99.52139378 77.34883959 108.91393011 85 118 C85.53012695 118.63164062 86.06025391 119.26328125 86.60644531 119.9140625 C92.29866989 126.98876665 92.29866989 126.98876665 98.63691711 133.43391418 C101.11150123 136.27703629 100.35940802 140.23021079 100.29296875 143.82421875 C100.28872391 144.68561966 100.28447906 145.54702057 100.28010559 146.43452454 C100.26331248 149.18583431 100.22565956 151.93641162 100.1875 154.6875 C100.17245396 156.5527238 100.15876541 158.41795907 100.14648438 160.28320312 C100.11340693 164.85575098 100.0616206 169.4277513 100 174 C95.98343115 172.93562862 91.96734795 171.86944718 87.95166016 170.80175781 C86.59240961 170.440612 85.23303914 170.07991718 83.87353516 169.71972656 C75.61316425 167.53081999 67.37776092 165.27546041 59.16552734 162.91064453 C54.90891885 161.68612273 50.64327281 160.49559523 46.375 159.3125 C45.61316406 159.10044922 44.85132813 158.88839844 44.06640625 158.66992188 C40.71967631 157.74092591 37.3720931 156.8320324 34 156 C34.67720939 152.13634224 35.7918761 148.58212492 37.0625 144.875 C40.56837131 133.48731582 39.7837934 121.84444973 34.55859375 111.01171875 C26.23625024 97.05103578 15.1561702 91.54685106 0 87 C0 58.29 0 29.58 0 0 Z " fill="#B45248" transform="translate(146,315)"/>
<path d="M0 0 C6.00409136 -0.49445458 11.14949529 1.32116382 16.8125 3.0625 C18.95794618 3.70571984 21.10379334 4.34760344 23.25 4.98828125 C24.35730469 5.32037598 25.46460938 5.6524707 26.60546875 5.99462891 C32.15787952 7.6391073 37.73412376 9.19630955 43.3125 10.75 C44.31837158 11.03109619 45.32424316 11.31219238 46.3605957 11.60180664 C48.30331327 12.14366401 50.24771975 12.6795062 52.19384766 13.20898438 C54.0223569 13.7244159 55.84110466 14.27628092 57.64599609 14.86914062 C66.11581848 17.53773621 71.22006331 17 81 17 C81 64.85 81 112.7 81 162 C73.05355658 164.2704124 68.653599 164.70505883 61 162 C61.03778564 160.89188965 61.07557129 159.7837793 61.11450195 158.64208984 C61.23913423 154.4631756 61.27520641 150.28707282 61.28686523 146.10644531 C61.30372336 144.31017242 61.34344423 142.51394312 61.40795898 140.71875 C61.72229358 131.55960217 61.8197858 124.06407599 55.51371765 116.91836548 C53.29849832 114.68067709 50.99382852 112.5771007 48.62138367 110.50794983 C40.19331602 102.66951934 33.95139848 91.76639751 28 82 C27.63551758 81.41476562 27.27103516 80.82953125 26.89550781 80.2265625 C16.80310261 63.90768666 9.669529 45.57823301 5 27 C4.72800781 26.1028125 4.45601562 25.205625 4.17578125 24.28125 C1.77287341 16.31062887 0.87984746 8.24986384 0 0 Z " fill="#D36A5B" transform="translate(185,327)"/>
<path d="M0 0 C7.93610567 6.38338934 14.05750089 13.81371185 15.19140625 24.21484375 C15.30807164 26.06411429 15.38435555 27.91671367 15.40625 29.76953125 C16.05244048 33.2751146 17.32446273 34.84166702 19.875 37.3125 C22.97639316 38.58099695 22.97639316 38.58099695 26.375 39.3125 C31.61118639 40.56149859 33.87644541 41.78637987 36.875 46.3125 C38.4297669 49.42203379 38.16144437 51.87516761 37.875 55.3125 C35.55814371 59.7745936 33.33248108 62.07184417 28.875 64.3125 C26.30873203 64.69002342 26.30873203 64.69002342 23.53065491 64.69345093 C21.94307625 64.70614014 21.94307625 64.70614014 20.32342529 64.71908569 C19.17263489 64.713013 18.02184448 64.70694031 16.83618164 64.70068359 C15.61613937 64.70594055 14.39609711 64.71119751 13.13908386 64.71661377 C9.80004387 64.7275446 6.46156259 64.72499722 3.12255406 64.71547651 C-0.3766839 64.70786748 -3.8758984 64.71492913 -7.37513733 64.71963501 C-13.25200675 64.72508968 -19.128763 64.71790935 -25.00561523 64.70361328 C-31.79203335 64.68729483 -38.57818095 64.69257043 -45.36459249 64.7090925 C-51.19830793 64.72272474 -57.03194213 64.72461834 -62.86566836 64.71677649 C-66.34674387 64.71210851 -69.82769242 64.71145074 -73.30875969 64.72138596 C-77.19154167 64.73169391 -81.07402295 64.71738978 -84.95678711 64.70068359 C-86.67993637 64.70979263 -86.67993637 64.70979263 -88.43789673 64.71908569 C-95.02852818 64.66654803 -100.07400155 64.36996243 -104.96875 59.46484375 C-107.18960649 55.3307494 -106.85898076 50.85105995 -106.125 46.3125 C-102.01168705 40.86513961 -97.75822918 39.08453768 -91.28125 37.97265625 C-88.67333286 37.17421785 -87.70919107 36.53609349 -86.125 34.3125 C-85.36670007 31.39424146 -85.36670007 31.39424146 -84.875 28.125 C-83.22485779 20.37537927 -80.09168164 15.9020251 -73.4921875 11.59375 C-68.33574238 9.6316688 -63.45918428 10.24572567 -58.02539062 10.60546875 C-52.73084533 10.81918493 -52.73084533 10.81918493 -48.296875 8.02734375 C-47.58015625 7.13144531 -46.8634375 6.23554688 -46.125 5.3125 C-31.86069995 -7.4168661 -16.82293549 -9.08438516 0 0 Z " fill="#FDFDFE" transform="translate(454.125,180.6875)"/>
<path d="M0 0 C2.63933361 2.20515751 4.78369022 4.48101077 6.91015625 7.1953125 C11.51832608 10.87687328 15.95157174 9.75766378 21.59179688 9.3125 C29.51391762 8.93375319 33.82465256 11.85889255 39.6171875 17.0078125 C42.66237458 20.88535071 43.13138135 25.73749062 43.93359375 30.484375 C44.93846729 33.97214236 45.91372243 35.34467843 48.8046875 37.5078125 C51.20507274 38.22520489 51.20507274 38.22520489 53.7421875 38.4453125 C58.51947431 39.22038853 60.72874742 40.63808144 63.8046875 44.5078125 C64.1346875 44.8378125 64.4646875 45.1678125 64.8046875 45.5078125 C65.32717486 50.61277093 65.63819083 55.04918167 63.0546875 59.5703125 C59.25616237 62.84126469 56.51044124 63.75700097 51.50466919 63.78196716 C50.43082977 63.79194229 49.35699036 63.80191742 48.25061035 63.81219482 C47.07752319 63.8128595 45.90443604 63.81352417 44.69580078 63.81420898 C43.4563974 63.8225325 42.21699402 63.83085602 40.94003296 63.83943176 C37.54321196 63.85940195 34.14663607 63.87017285 30.74977732 63.87525821 C28.62634498 63.87890394 26.50293615 63.8851451 24.37951279 63.8922596 C16.96800452 63.91674672 9.55656618 63.9298045 2.14501953 63.93334961 C-4.75792649 63.93698493 -11.6604279 63.96688144 -18.56323802 64.00875419 C-24.49458901 64.04346962 -30.42579273 64.05889826 -36.35724461 64.05959564 C-39.89772086 64.06038801 -43.43774402 64.06910718 -46.97811508 64.09759331 C-50.92813005 64.12866559 -54.87750778 64.11970822 -58.82763672 64.10717773 C-59.99667542 64.12201202 -61.16571411 64.13684631 -62.37017822 64.15213013 C-71.20802821 64.07219379 -71.20802821 64.07219379 -74.88235474 61.08753967 C-78.06684016 57.53576553 -79.04166532 55.89063712 -79.5703125 51.1328125 C-79.12046667 46.78430281 -77.99321674 44.83504997 -75.1953125 41.5078125 C-71.5269524 38.57312442 -67.81456688 37.87547192 -63.28125 37.1328125 C-60.65172924 36.34494111 -59.75925131 35.78390202 -58.1953125 33.5078125 C-57.62316042 30.96202469 -57.18483282 28.51921778 -56.8203125 25.9453125 C-55.10196411 15.6363801 -51.7449622 7.03547801 -43.1953125 0.5078125 C-29.20544987 -8.26313684 -14.32860255 -9.73937042 0 0 Z " fill="#FDFDFE" transform="translate(99.1953125,51.4921875)"/>
<path d="M0 0 C2.475 0.495 2.475 0.495 5 1 C9.95 1 14.9 1 20 1 C20 48.85 20 96.7 20 146 C11.66951771 148.3801378 8.1600091 148.72000303 0 146 C0 97.82 0 49.64 0 0 Z " fill="#F6AF73" transform="translate(246,343)"/>
<path d="M0 0 C2.62855933 2.1822002 4.47228152 3.94456305 6 7 C6.12311126 9.56761586 6.18836415 12.10706019 6.203125 14.67578125 C6.20882507 15.43795456 6.21452515 16.20012787 6.22039795 16.98539734 C6.22985081 18.60019542 6.23638307 20.21501282 6.24023438 21.82983398 C6.24992133 24.29250092 6.28093303 26.75432656 6.3125 29.21679688 C6.3190321 30.78645338 6.32428176 32.35611586 6.328125 33.92578125 C6.3404718 34.65928299 6.3528186 35.39278473 6.36553955 36.14851379 C6.34617948 40.62481503 5.74459045 43.43661568 3 47 C-2.45554151 51.24732959 -8.39130275 50.72719643 -15 50 C-18.00386042 49.06578504 -20.41903009 47.78209827 -23 46 C-23.9075 45.38125 -24.815 44.7625 -25.75 44.125 C-31.56259817 38.63532395 -34.02798759 32.61927898 -34.4375 24.75 C-34.28691058 17.83229844 -31.94977871 12.32112852 -27.35546875 7.1484375 C-19.49978705 -0.05112632 -10.41561928 -1.75518196 0 0 Z " fill="#F97B9F" transform="translate(380,422)"/>
<path d="M0 0 C6.65250651 1.77336269 12.550166 5.42246463 16.4765625 11.15625 C20.00080182 17.37781216 21.12711834 22.91673336 20 30 C17.37282623 38.60166031 13.0709933 43.73555842 5.21875 47.984375 C-0.54834544 50.62424263 -6.76025863 50.75809942 -13 50 C-15.79629524 48.64119987 -16.91873287 47.41876991 -19 45 C-20.21057138 41.36828585 -20.18123388 38.00952365 -20.203125 34.2265625 C-20.20882507 33.46580414 -20.21452515 32.70504578 -20.22039795 31.92123413 C-20.22983748 30.31241238 -20.23637778 28.70357138 -20.24023438 27.09472656 C-20.24993701 24.64093085 -20.2809678 22.18797411 -20.3125 19.734375 C-20.31903085 18.16927579 -20.324281 16.60417061 -20.328125 15.0390625 C-20.3404718 14.30869781 -20.3528186 13.57833313 -20.36553955 12.82583618 C-20.34614646 8.36275825 -19.77333138 5.53124532 -17 2 C-11.8930313 -1.4046458 -5.95928569 -0.52581933 0 0 Z " fill="#FA7C9F" transform="translate(146,422)"/>
<path d="M0 0 C7.875 4.5 7.875 4.5 10.96484375 6.578125 C11.94614258 7.23554688 11.94614258 7.23554688 12.94726562 7.90625 C13.60404297 8.3496875 14.26082031 8.793125 14.9375 9.25 C15.62134766 9.70890625 16.30519531 10.1678125 17.00976562 10.640625 C18.67461112 11.75828351 20.3375124 12.87883719 22 14 C18.63812194 15.82478467 15.20984249 16.98652315 11.5625 18.125 C10.45003906 18.47820312 9.33757812 18.83140625 8.19140625 19.1953125 C5 20 5 20 0 20 C0 13.4 0 6.8 0 0 Z " fill="#B35348" transform="translate(266,468)"/>
</svg>
